<?xml version="1.0" encoding="UTF-8" standalone="no"?>
<svg
   xmlns:dc="http://purl.org/dc/elements/1.1/"
   xmlns:cc="http://creativecommons.org/ns#"
   xmlns:rdf="http://www.w3.org/1999/02/22-rdf-syntax-ns#"
   xmlns:svg="http://www.w3.org/2000/svg"
   xmlns="http://www.w3.org/2000/svg"
   xmlns:sodipodi="http://sodipodi.sourceforge.net/DTD/sodipodi-0.dtd"
   xmlns:inkscape="http://www.inkscape.org/namespaces/inkscape"
   width="37.99921pt"
   height="49.433594pt"
   viewBox="0 0 37.99921 49.433594"
   version="1.2"
   id="svg45"
   sodipodi:docname="flower.eps"
   inkscape:version="0.92.3 (2405546, 2018-03-11)">
  <metadata
     id="metadata51">
    <rdf:RDF>
      <cc:Work
         rdf:about="">
        <dc:format>image/svg+xml</dc:format>
        <dc:type
           rdf:resource="http://purl.org/dc/dcmitype/StillImage" />
        <dc:title></dc:title>
      </cc:Work>
    </rdf:RDF>
  </metadata>
  <defs
     id="defs49" />
  <sodipodi:namedview
     pagecolor="#ffffff"
     bordercolor="#666666"
     borderopacity="1"
     objecttolerance="10"
     gridtolerance="10"
     guidetolerance="10"
     inkscape:pageopacity="0"
     inkscape:pageshadow="2"
     inkscape:window-width="1920"
     inkscape:window-height="1016"
     id="namedview47"
     showgrid="false"
     inkscape:zoom="7.3202127"
     inkscape:cx="25.332767"
     inkscape:cy="33.911461"
     inkscape:window-x="0"
     inkscape:window-y="0"
     inkscape:window-maximized="1"
     inkscape:current-layer="surface529" />
  <g
     id="surface529"
     transform="translate(-13.000424,-8)">
    <path
       style="fill:#75caa8;fill-opacity:1;fill-rule:nonzero;stroke:none"
       d="m 30,24 v 25 c 0,1.105469 0.894531,2 2,2 1.105469,0 2,-0.894531 2,-2 V 24 c 0,-1.105469 -0.894531,-2 -2,-2 -1.105469,0 -2,0.894531 -2,2"
       id="path4"
       inkscape:connector-curvature="0" />
    <path
       style="fill:#3f4a5e;fill-opacity:1;fill-rule:nonzero;stroke:none"
       d="m 31.996094,57.433594 -0.04297,-0.0078 -0.04687,0.0078 c -14.070312,0 -18.515625,-11.980469 -18.902344,-18.3125 -0.04687,-0.796875 0.382813,-1.546875 1.09375,-1.90625 C 14.382812,37.070312 14.691406,37 15,37 c 0.460938,0 0.914062,0.15625 1.28125,0.464844 0.04687,0.03906 4.511719,3.75 10.015625,6.78125 1.519531,0.835937 2.730469,1.777344 3.703125,2.75 V 49 c 0,1.105469 0.894531,2 2,2 1.105469,0 2,-0.894531 2,-2 v -2.097656 c 0.953125,-0.9375 2.136719,-1.847656 3.605469,-2.65625 C 43.121094,41.210938 47.6875,37.488281 47.734375,37.453125 48.097656,37.152344 48.546875,37 49,37 c 0.308594,0 0.621094,0.07422 0.910156,0.21875 0.707032,0.363281 1.132813,1.109375 1.085938,1.902344 -0.386719,6.332031 -4.851563,18.3125 -19,18.3125"
       id="path6"
       inkscape:connector-curvature="0" />
    <path
       style="fill:#61a38c;fill-opacity:1;fill-rule:nonzero;stroke:none"
       d="m 32,51 c -1.105469,0 -2,-0.894531 -2,-2 v -2.003906 c 0.804688,0.808594 1.445312,1.636718 1.953125,2.445312 C 32.480469,48.601562 33.148438,47.738281 34,46.902344 V 49 c 0,1.105469 -0.894531,2 -2,2"
       id="path8"
       inkscape:connector-curvature="0" />
    <path
       style="fill:#75caa8;fill-opacity:1;fill-rule:nonzero;stroke:none"
       d="m 31.996094,53.433594 c 0,0 0,-5.816406 6.574218,-9.433594 C 44.328125,40.828125 49,37 49,37 49,37 48,53.433594 31.996094,53.433594"
       id="path10"
       inkscape:connector-curvature="0" />
    <path
       style="fill:#75caa8;fill-opacity:1;fill-rule:nonzero;stroke:none"
       d="m 31.996094,53.433594 h 2 -1.070313 l 1.070313,0.01953 v -0.01953 h -1.070313 l 1.070313,0.01953 c 0,0 0,-0.07031 0.01563,-0.207031 0.04297,-0.476563 0.238281,-1.710938 1,-3.121094 0.769531,-1.414062 2.078125,-3.019531 4.523437,-4.371094 5.945313,-3.28125 10.675782,-7.164062 10.734375,-7.207031 L 49,37 47.003906,36.878906 47.453125,36.90625 47.003906,36.875 v 0.0039 l 0.449219,0.02734 -0.449219,-0.03125 c 0.0039,0.08594 -0.308594,3.949219 -2.355468,7.550781 -1.015626,1.808594 -2.4375,3.539063 -4.4375,4.828125 -2.003907,1.285156 -4.609376,2.171875 -8.214844,2.179688 v 2 h 2 -2 v 2 c 4.339844,0.0039 7.835937,-1.136719 10.507812,-2.898438 2.003906,-1.316406 3.539063,-2.960937 4.703125,-4.652344 1.746094,-2.546874 2.671875,-5.199218 3.183594,-7.226562 0.511719,-2.03125 0.597656,-3.445312 0.605469,-3.535156 0.04687,-0.792969 -0.375,-1.539063 -1.085938,-1.902344 -0.707031,-0.363281 -1.5625,-0.269531 -2.179687,0.234375 l -0.04297,0.03516 c -0.480469,0.390625 -4.863281,3.886719 -10.082031,6.757813 -3.695313,2.027344 -5.667969,4.789062 -6.625,7.035156 -0.964844,2.25 -0.984375,3.964844 -0.984375,4.152344 0,0.523437 0.214844,1.039062 0.585937,1.414062 0.371094,0.371094 0.886719,0.585938 1.414063,0.585938 v -2"
       id="path12"
       inkscape:connector-curvature="0" />
    <path
       style="fill:#75caa8;fill-opacity:1;fill-rule:nonzero;stroke:none"
       d="m 31.90625,53.433594 c 0,0 0,-5.816406 -6.570312,-9.433594 C 19.578125,40.828125 15,37 15,37 c 0,0 1,16.433594 16.90625,16.433594"
       id="path14"
       inkscape:connector-curvature="0" />
    <path
       style="fill:#75caa8;fill-opacity:1;fill-rule:nonzero;stroke:none"
       d="m 31.90625,53.433594 h 2 c 0,-0.1875 -0.01563,-1.902344 -0.984375,-4.152344 C 31.964844,47.035156 29.992188,44.273438 26.300781,42.246094 23.523438,40.71875 21,39.011719 19.183594,37.691406 c -0.90625,-0.65625 -1.640625,-1.21875 -2.140625,-1.613281 -0.25,-0.199219 -0.445313,-0.355469 -0.574219,-0.460937 L 16.324219,35.5 16.285159,35.46484 c -0.613281,-0.507813 -1.476562,-0.609375 -2.1875,-0.25 -0.710937,0.359375 -1.140625,1.113281 -1.09375,1.90625 0.01953,0.160156 0.265625,4.503906 2.726563,9.050781 1.238281,2.269531 3.058593,4.601563 5.722656,6.359375 2.65625,1.765625 6.136719,2.90625 10.453125,2.902344 0.527344,0 1.042969,-0.214844 1.414062,-0.585938 0.375,-0.375 0.585938,-0.890625 0.585938,-1.414062 h -2 v -2 c -3.632812,-0.0078 -6.246094,-0.917969 -8.25,-2.238282 -1.5,-0.992187 -2.664062,-2.234374 -3.582031,-3.574218 -1.371094,-2.007813 -2.160157,-4.230469 -2.585938,-5.9375 -0.214843,-0.855469 -0.339843,-1.578125 -0.410156,-2.078125 -0.03516,-0.25 -0.05469,-0.441407 -0.06641,-0.566407 L 16.996088,36.90234 V 36.875 l -0.257813,0.01953 0.257813,-0.01563 V 36.875 L 16.738275,36.89453 16.996088,36.8789 15,37 13.714844,38.535156 c 0.05859,0.04297 4.699218,3.933594 10.65625,7.21875 2.878906,1.59375 4.191406,3.542969 4.878906,5.109375 0.335938,0.785157 0.503906,1.46875 0.582031,1.941407 0.04297,0.234374 0.05859,0.414062 0.07031,0.523437 l 0.0039,0.113281 v 0.01172 l 1.070312,-0.01953 H 29.90625 v 0.01953 l 1.070312,-0.01953 h -1.070312 2 v -2 2"
       id="path16"
       inkscape:connector-curvature="0" />
    <path
       style="fill:#3f4a5e;fill-opacity:1;fill-rule:nonzero;stroke:none"
       d="M 24.203125,31.796875 C 20.648438,30.980469 18,27.800781 18,24 c 0,-0.339844 0.01953,-0.671875 0.0625,-1 0.410156,3.28125 2.800781,5.941406 5.941406,6.75 C 24,29.832031 24,29.914062 24,30 c 0,0.617188 0.07031,1.21875 0.203125,1.796875"
       id="path18"
       inkscape:connector-curvature="0" />
    <path
       style="fill:#3f4a5e;fill-opacity:1;fill-rule:nonzero;stroke:none"
       d="M 39.796875,31.796875 C 39.929688,31.21875 40,30.617188 40,30 c 0,-0.08594 0,-0.167969 -0.0039,-0.25 3.140625,-0.808594 5.53125,-3.46875 5.941406,-6.75 0.04297,0.328125 0.0625,0.660156 0.0625,1 0,3.800781 -2.648438,6.980469 -6.203125,7.796875"
       id="path20"
       inkscape:connector-curvature="0" />
    <path
       style="fill:#3f4a5e;fill-opacity:1;fill-rule:nonzero;stroke:none"
       d="m 30,37.746094 c -2.878906,-0.738282 -5.128906,-3.042969 -5.796875,-5.949219 0.273437,0.0625 0.550781,0.113281 0.835937,0.144531 C 26.09375,33.804688 27.875,35.203125 30,35.746094 v 2 m 4,0 v -2 c 2.125,-0.542969 3.90625,-1.941406 4.960938,-3.804688 0.285156,-0.03125 0.5625,-0.08203 0.835937,-0.144531 C 39.128906,34.703125 36.878906,37.007812 34,37.746094"
       id="path22"
       inkscape:connector-curvature="0" />
    <path
       style="fill:#61a38c;fill-opacity:1;fill-rule:nonzero;stroke:none"
       d="m 32,38 c -0.691406,0 -1.359375,-0.08594 -2,-0.253906 v -2 C 30.640625,35.914062 31.308594,36 32,36 c 0.691406,0 1.359375,-0.08594 2,-0.253906 v 2 C 33.359375,37.914062 32.691406,38 32,38"
       id="path24"
       inkscape:connector-curvature="0" />
    <path
       style="fill:#383f4f;fill-opacity:1;fill-rule:nonzero;stroke:none"
       d="m 25.039062,31.941406 c -0.285156,-0.03125 -0.5625,-0.08203 -0.835937,-0.144531 C 24.070312,31.21875 24,30.617188 24,30 c 0,-0.08594 0,-0.167969 0.0039,-0.25 0.06641,0.01563 0.132813,0.03125 0.199219,0.04687 0.175781,0.761719 0.457031,1.484375 0.835937,2.144531"
       id="path26"
       inkscape:connector-curvature="0" />
    <path
       style="fill:#383f4f;fill-opacity:1;fill-rule:nonzero;stroke:none"
       d="m 38.960938,31.941406 c 0.378906,-0.660156 0.660156,-1.382812 0.835937,-2.144531 0.06641,-0.01563 0.132813,-0.03125 0.199219,-0.04687 C 40,29.832031 40,29.914062 40,30 c 0,0.617188 -0.07031,1.21875 -0.203125,1.796875 -0.273437,0.0625 -0.550781,0.113281 -0.835937,0.144531"
       id="path28"
       inkscape:connector-curvature="0" />
    <path
       style="fill:#c74554;fill-opacity:1;fill-rule:nonzero;stroke:none"
       d="m 34,22 c 0,4.417969 -3.582031,8 -8,8 -4.417969,0 -8,-3.582031 -8,-8 0,-4.417969 3.582031,-8 8,-8 4.417969,0 8,3.582031 8,8"
       id="path30"
       inkscape:connector-curvature="0" />
    <path
       style="fill:#c74554;fill-opacity:1;fill-rule:nonzero;stroke:none"
       d="m 46,22 c 0,4.417969 -3.582031,8 -8,8 -4.417969,0 -8,-3.582031 -8,-8 0,-4.417969 3.582031,-8 8,-8 4.417969,0 8,3.582031 8,8"
       id="path32"
       inkscape:connector-curvature="0" />
    <path
       style="fill:#c74554;fill-opacity:1;fill-rule:nonzero;stroke:none"
       d="m 32,24 c -4.417969,0 -8,-3.582031 -8,-8 0,-4.417969 3.582031,-8 8,-8 4.417969,0 8,3.582031 8,8 0,4.417969 -3.582031,8 -8,8"
       id="path34"
       inkscape:connector-curvature="0" />
    <path
       style="fill:#c74554;fill-opacity:1;fill-rule:nonzero;stroke:none"
       d="m 32,36 c -4.417969,0 -8,-3.582031 -8,-8 0,-4.417969 3.582031,-8 8,-8 4.417969,0 8,3.582031 8,8 0,4.417969 -3.582031,8 -8,8"
       id="path36"
       inkscape:connector-curvature="0" />
    <path
       style="fill:#a33d47;fill-opacity:1;fill-rule:nonzero;stroke:none"
       d="M 27.910156,21.121094 C 28.816406,19.839844 30.308594,19 32,19 c 1.691406,0 3.183594,0.839844 4.089844,2.121094 C 34.894531,20.410156 33.496094,20 32,20 c -1.496094,0 -2.894531,0.410156 -4.089844,1.121094"
       id="path38"
       inkscape:connector-curvature="0" />
    <path
       style="fill:#a33d47;fill-opacity:1;fill-rule:nonzero;stroke:none"
       d="m 32,29 c -2.761719,0 -5,-2.238281 -5,-5 0,-1.070312 0.335938,-2.0625 0.910156,-2.878906 C 29.105469,20.410156 30.503906,20 32,20 c 1.496094,0 2.894531,0.410156 4.089844,1.121094 C 36.664062,21.9375 37,22.929688 37,24 c 0,2.761719 -2.238281,5 -5,5"
       id="path40"
       inkscape:connector-curvature="0" />
    <path
       style="fill:#f3ca6e;fill-opacity:1;fill-rule:nonzero;stroke:none"
       d="m 37,22 c 0,2.761719 -2.238281,5 -5,5 -2.761719,0 -5,-2.238281 -5,-5 0,-2.761719 2.238281,-5 5,-5 2.761719,0 5,2.238281 5,5"
       id="path42"
       inkscape:connector-curvature="0" />
  </g>
</svg>
