<?xml version="1.0" encoding="UTF-8" standalone="no"?>
<svg
   xmlns:dc="http://purl.org/dc/elements/1.1/"
   xmlns:cc="http://creativecommons.org/ns#"
   xmlns:rdf="http://www.w3.org/1999/02/22-rdf-syntax-ns#"
   xmlns:svg="http://www.w3.org/2000/svg"
   xmlns="http://www.w3.org/2000/svg"
   xmlns:sodipodi="http://sodipodi.sourceforge.net/DTD/sodipodi-0.dtd"
   xmlns:inkscape="http://www.inkscape.org/namespaces/inkscape"
   width="241.67578pt"
   height="241.15291pt"
   viewBox="0 0 241.67578 241.15291"
   version="1.2"
   id="svg2633"
   sodipodi:docname="42.eps"
   inkscape:version="0.92.3 (2405546, 2018-03-11)">
  <metadata
     id="metadata2637">
    <rdf:RDF>
      <cc:Work
         rdf:about="">
        <dc:format>image/svg+xml</dc:format>
        <dc:type
           rdf:resource="http://purl.org/dc/dcmitype/StillImage" />
        <dc:title></dc:title>
      </cc:Work>
    </rdf:RDF>
  </metadata>
  <sodipodi:namedview
     pagecolor="#ffffff"
     bordercolor="#666666"
     borderopacity="1"
     objecttolerance="10"
     gridtolerance="10"
     guidetolerance="10"
     inkscape:pageopacity="0"
     inkscape:pageshadow="2"
     inkscape:window-width="1920"
     inkscape:window-height="1016"
     id="namedview2635"
     showgrid="false"
     inkscape:zoom="0.19"
     inkscape:cx="-272.70299"
     inkscape:cy="-1566.537"
     inkscape:window-x="0"
     inkscape:window-y="0"
     inkscape:window-maximized="1"
     inkscape:current-layer="surface445" />
  <defs
     id="defs14">
    <clipPath
       id="clip1">
      <path
         d="m 4633,2664 h 1 v 1 h -1 z m 0,0"
         id="path2"
         inkscape:connector-curvature="0" />
    </clipPath>
    <clipPath
       id="clip2">
      <path
         d="m 4633.3906,2664.7109 h -0.1914 l 0.1211,-0.07 c 0.031,0.02 0.051,0.039 0.07,0.07"
         id="path5"
         inkscape:connector-curvature="0" />
    </clipPath>
    <clipPath
       id="clip3">
      <path
         d="m 2137,4078 h 114 v 5 h -114 z m 0,0"
         id="path8"
         inkscape:connector-curvature="0" />
    </clipPath>
    <clipPath
       id="clip4">
      <path
         d="m 2137.0391,4082.1289 c 1.5703,-1.7695 3.8007,-3.2187 7,-3.6289 l 106.2226,-0.039 -0.051,0.078 h -105.2617 c -3.0195,0 -5.8203,1.3593 -7.9101,3.5898"
         id="path11"
         inkscape:connector-curvature="0" />
    </clipPath>
  </defs>
  <g
     id="surface445"
     transform="translate(-702.12109,-2131.414)">
    <path
       style="fill:#232e3a;fill-opacity:1;fill-rule:nonzero;stroke:none"
       d="m 802.41797,2246.6484 -10.90625,-0.016 h -2.83594 l -59.33203,-0.035 c -0.96094,0 -1.91406,-0.051 -2.85156,-0.1563 -0.96485,-0.1016 -1.90625,-0.2422 -2.82813,-0.4492 -12.3125,-2.625 -21.54687,-13.5508 -21.54297,-26.6563 l 0.0117,-6.3359 c 0.008,-13.0352 9.16016,-23.9141 21.37891,-26.6055 0.92578,-0.1914 1.86328,-0.3476 2.82031,-0.4492 1.00391,-0.1211 2.02344,-0.1719 3.05469,-0.1719 l 59.14453,0.035 h 2.83594 l 11.08593,0.016 c 15.05079,0 27.23829,12.2227 27.22657,27.2617 l -0.004,6.3204 c -0.008,15.0546 -12.21484,27.2421 -27.25781,27.2421"
       id="path882"
       inkscape:connector-curvature="0" />
    <path
       style="fill:#f3f3f3;fill-opacity:1;fill-rule:nonzero;stroke:none"
       d="m 917.97266,2136.5156 c -47.26172,34.8867 -161.27344,49.1875 -161.27344,49.1875 l -0.0195,29.6172 -0.0899,29.5664 c 0,0 113.95703,14.7227 161.09375,49.7852 l 0.23828,-79.0703 h -0.10546 0.10546 l 0.0508,-79.086"
       id="path884"
       inkscape:connector-curvature="0" />
    <path
       style="fill:#dcdccf;fill-opacity:1;fill-rule:nonzero;stroke:none"
       d="m 755.64453,2214.7539 v 0.1875 l -0.0898,29.5625 c 0,0 113.95703,14.7266 161.09375,49.793 l 0.23828,-78.7578 -161.24219,-0.7852"
       id="path886"
       inkscape:connector-curvature="0" />
    <path
       style="fill:#33425c;fill-opacity:1;fill-rule:nonzero;stroke:none"
       d="m 917.92187,2215.6016 0.0508,-79.086 c -8.85938,6.5352 -20.07422,12.3672 -32.4375,17.4961 19.70312,31.8125 22.66796,77.1016 4.25,119.5469 -0.66407,1.5273 -1.35157,3.0391 -2.0586,4.5312 11.39063,4.918 21.69922,10.4532 29.95703,16.5821 l 0.23828,-79.0703"
       id="path888"
       inkscape:connector-curvature="0" />
    <path
       style="fill:#232e3a;fill-opacity:1;fill-rule:nonzero;stroke:none"
       d="m 768.46875,2219.8945 -4.0625,74.1641 -0.004,0.07 -2.03125,37.0899 v 0.035 l -1.47265,26.8242 c -0.5625,11.4805 -5.64453,13.7852 -8.14453,13.7852 l -16.02735,0.7031 c -4.99609,0.016 -12.35937,-0.2578 -10.96875,-16.7266 l 2.16406,-24.5703 0.004,-0.035 1.05469,-11.9571 2.21875,-25.1328 0.004,-0.066 5.92969,-67.2304 c -0.30469,-2.9063 1.82422,-5.793 4.75391,-6.4414 l 20.72265,-4.5977 c 2.9336,-0.6484 5.5586,1.1797 5.85938,4.0859"
       id="path890"
       inkscape:connector-curvature="0" />
    <path
       style="fill:#33425c;fill-opacity:1;fill-rule:nonzero;stroke:none"
       d="m 924.67969,2239.75 17.74218,-0.019 c 0.75391,0 1.375,-0.6211 1.375,-1.3789 l -5.39453,-23.8282 5.35547,-23.8671 c 0,-0.7579 -0.62109,-1.379 -1.3789,-1.379 l -17.73438,0.016 c -0.76172,0 -1.37891,0.6211 -1.37891,1.3789 l 0.0391,47.6992 c 0,0.7578 0.62109,1.3789 1.375,1.3789"
       id="path892"
       inkscape:connector-curvature="0" />
    <path
       style="fill:#33425c;fill-opacity:1;fill-rule:nonzero;stroke:none"
       d="m 791.34766,2255.1445 c -0.80079,-0.207 -1.75,-0.4492 -2.82422,-0.6406 -14.86719,-2.9101 -53.72266,-4.0703 -60.9336,-4.2617 -0.35547,-0.016 -0.63281,-0.016 -0.82812,-0.035 h -0.10156 c -0.15235,0 -0.23047,0 -0.23047,0 l 0.0625,-3.7578 0.51953,-30.6523 -0.67969,-29.8516 -0.10937,-4.7461 c 0,0 45.68359,-1.3515 62.08203,-4.6601 1.07031,-0.2266 2.01562,-0.4532 2.8125,-0.6758 l 0.25,9.9453 0.71875,28.9844 0.0312,0.019 -0.0117,0.8125 0.0195,0.5898 h -0.0312 l -0.58203,30.4258 -0.16406,8.5039"
       id="path894"
       inkscape:connector-curvature="0" />
    <path
       style="fill:#33425c;fill-opacity:1;fill-rule:nonzero;stroke:none"
       d="m 929.31641,2293.4297 c 0,3.3594 -2.72657,6.0703 -6.08594,6.0703 -3.35938,0 -6.07813,-2.7266 -6.07813,-6.0703 l 0.10157,-155.9609 c 0.004,-3.3438 2.72656,-6.0743 6.08593,-6.0547 3.35938,0 6.08203,2.7109 6.07813,6.0703 l -0.10156,155.9453"
       id="path896"
       inkscape:connector-curvature="0" />
    <path
       style="fill:#232e3a;fill-opacity:1;fill-rule:nonzero;stroke:none"
       d="m 784.14453,2196.1641 -48.78125,0.035 c -0.73828,0 -1.33984,-0.6054 -1.33984,-1.3281 l -0.008,-4.3477 c 0,-0.7226 0.60157,-1.3242 1.33985,-1.3242 l 48.78515,-0.035 c 0.73829,0 1.33985,0.6015 1.33985,1.3437 l 0.004,4.3125 c 0,0.7383 -0.60156,1.3438 -1.33984,1.3438"
       id="path898"
       inkscape:connector-curvature="0" />
    <path
       style="fill:#232e3a;fill-opacity:1;fill-rule:nonzero;stroke:none"
       d="m 784.15625,2207.4023 -48.78516,0.031 c -0.73437,0 -1.33984,-0.5977 -1.33984,-1.3359 v -4.3321 c -0.004,-0.7383 0.59766,-1.3359 1.33594,-1.3359 l 48.78515,-0.035 c 0.73438,0 1.33985,0.6016 1.33985,1.3399 v 4.3281 c 0.004,0.7383 -0.59766,1.3398 -1.33594,1.3398"
       id="path900"
       inkscape:connector-curvature="0" />
    <path
       style="fill:#232e3a;fill-opacity:1;fill-rule:nonzero;stroke:none"
       d="m 784.16016,2218.6523 -48.78516,0.051 c -0.73438,0 -1.33594,-0.6133 -1.33594,-1.3515 l -0.004,-4.3086 c 0,-0.7539 0.60156,-1.3516 1.33593,-1.3516 l 48.78516,-0.035 c 0.73828,0 1.33984,0.5976 1.33984,1.3359 l 0.004,4.3281 c 0,0.7344 -0.60156,1.332 -1.33984,1.332"
       id="path902"
       inkscape:connector-curvature="0" />
    <path
       style="fill:#232e3a;fill-opacity:1;fill-rule:nonzero;stroke:none"
       d="m 784.17187,2229.8906 -48.78515,0.035 c -0.73438,0 -1.33985,-0.5977 -1.33985,-1.332 v -4.3282 c 0,-0.7304 0.60157,-1.3437 1.33594,-1.3437 l 48.78516,-0.035 c 0.73437,0 1.33984,0.6133 1.33984,1.3477 l 0.004,4.3086 c 0,0.75 -0.60156,1.3476 -1.33985,1.3476"
       id="path904"
       inkscape:connector-curvature="0" />
    <path
       style="fill:#232e3a;fill-opacity:1;fill-rule:nonzero;stroke:none"
       d="m 784.18359,2241.1406 -48.78515,0.035 c -0.73828,0 -1.33985,-0.6094 -1.33985,-1.3399 l -0.004,-4.3281 c 0,-0.7265 0.60156,-1.3398 1.33984,-1.3398 l 48.78125,-0.035 c 0.73828,0 1.33984,0.5938 1.34375,1.3438 v 4.3242 c 0,0.7305 -0.60156,1.3398 -1.33594,1.3398"
       id="path906"
       inkscape:connector-curvature="0" />
    <path
       style="fill:#3fa6a6;fill-opacity:1;fill-rule:nonzero;stroke:none"
       d="m 765.52734,2273.6289 -1.39062,25.375 -33.36719,0.016 2.23438,-25.3554 32.52343,-0.035"
       id="path908"
       inkscape:connector-curvature="0" />
  </g>
</svg>
