<?xml version="1.0" encoding="UTF-8" standalone="no"?>
<svg
   xmlns:dc="http://purl.org/dc/elements/1.1/"
   xmlns:cc="http://creativecommons.org/ns#"
   xmlns:rdf="http://www.w3.org/1999/02/22-rdf-syntax-ns#"
   xmlns:svg="http://www.w3.org/2000/svg"
   xmlns="http://www.w3.org/2000/svg"
   xmlns:sodipodi="http://sodipodi.sourceforge.net/DTD/sodipodi-0.dtd"
   xmlns:inkscape="http://www.inkscape.org/namespaces/inkscape"
   width="260.24219pt"
   height="235.34766pt"
   viewBox="0 0 260.24219 235.34766"
   version="1.2"
   id="svg2633"
   sodipodi:docname="42.eps"
   inkscape:version="0.92.3 (2405546, 2018-03-11)">
  <metadata
     id="metadata2637">
    <rdf:RDF>
      <cc:Work
         rdf:about="">
        <dc:format>image/svg+xml</dc:format>
        <dc:type
           rdf:resource="http://purl.org/dc/dcmitype/StillImage" />
        <dc:title></dc:title>
      </cc:Work>
    </rdf:RDF>
  </metadata>
  <sodipodi:namedview
     pagecolor="#ffffff"
     bordercolor="#666666"
     borderopacity="1"
     objecttolerance="10"
     gridtolerance="10"
     guidetolerance="10"
     inkscape:pageopacity="0"
     inkscape:pageshadow="2"
     inkscape:window-width="1920"
     inkscape:window-height="1016"
     id="namedview2635"
     showgrid="false"
     inkscape:zoom="0.19"
     inkscape:cx="663.45844"
     inkscape:cy="1936.7072"
     inkscape:window-x="0"
     inkscape:window-y="0"
     inkscape:window-maximized="1"
     inkscape:current-layer="surface445" />
  <defs
     id="defs14">
    <clipPath
       id="clip1">
      <path
         d="m 4633,2664 h 1 v 1 h -1 z m 0,0"
         id="path2"
         inkscape:connector-curvature="0" />
    </clipPath>
    <clipPath
       id="clip2">
      <path
         d="m 4633.3906,2664.7109 h -0.1914 l 0.1211,-0.07 c 0.031,0.02 0.051,0.039 0.07,0.07"
         id="path5"
         inkscape:connector-curvature="0" />
    </clipPath>
    <clipPath
       id="clip3">
      <path
         d="m 2137,4078 h 114 v 5 h -114 z m 0,0"
         id="path8"
         inkscape:connector-curvature="0" />
    </clipPath>
    <clipPath
       id="clip4">
      <path
         d="m 2137.0391,4082.1289 c 1.5703,-1.7695 3.8007,-3.2187 7,-3.6289 l 106.2226,-0.039 -0.051,0.078 h -105.2617 c -3.0195,0 -5.8203,1.3593 -7.9101,3.5898"
         id="path11"
         inkscape:connector-curvature="0" />
    </clipPath>
  </defs>
  <g
     id="surface445"
     transform="translate(-1645.8789,-4063.9258)">
    <path
       style="fill:#110f0f;fill-opacity:1;fill-rule:nonzero;stroke:none"
       d="m 1649.332,4159.4648 v 121.7969 c 0,9.8203 7.6602,18.0117 17.0977,18.0117 h 222.4219 c 9.4336,0 17.2695,-8.1914 17.2695,-18.0117 V 4159.4648 H 1649.332"
       id="path1764"
       inkscape:connector-curvature="0" />
    <path
       style="fill:#f0fafd;fill-opacity:1;fill-rule:nonzero;stroke:none"
       d="M 1906.1211,4129.6523 H 1649.332 v 33.1524 h 256.7891 v -33.1524"
       id="path1766"
       inkscape:connector-curvature="0" />
    <path
       style="fill:#110f0f;fill-opacity:1;fill-rule:nonzero;stroke:none"
       d="m 1651.0039,4129.6523 20.0234,33.1485 h -21.6914 v -33.1485 h 1.668"
       id="path1768"
       inkscape:connector-curvature="0" />
    <path
       style="fill:#110f0f;fill-opacity:1;fill-rule:nonzero;stroke:none"
       d="m 1672.207,4129.6523 21.5391,33.1485 h 28.1211 l -21.7617,-33.1485 h -27.8985"
       id="path1770"
       inkscape:connector-curvature="0" />
    <path
       style="fill:#110f0f;fill-opacity:1;fill-rule:nonzero;stroke:none"
       d="m 1723.0508,4129.6523 21.5312,33.1485 h 28.125 l -21.75,-33.1485 h -27.9062"
       id="path1772"
       inkscape:connector-curvature="0" />
    <path
       style="fill:#110f0f;fill-opacity:1;fill-rule:nonzero;stroke:none"
       d="m 1773.8906,4129.6484 21.5469,33.1524 h 28.125 l -21.7578,-33.1524 h -27.9141"
       id="path1774"
       inkscape:connector-curvature="0" />
    <path
       style="fill:#110f0f;fill-opacity:1;fill-rule:nonzero;stroke:none"
       d="m 1824.7461,4129.6484 21.5273,33.1524 h 28.1289 l -21.7578,-33.1524 h -27.8984"
       id="path1776"
       inkscape:connector-curvature="0" />
    <path
       style="fill:#110f0f;fill-opacity:1;fill-rule:nonzero;stroke:none"
       d="m 1903.4688,4129.6523 h -27.8907 l 21.5274,33.1524 h 9.0156 v -29.25 l -2.6523,-3.9024"
       id="path1778"
       inkscape:connector-curvature="0" />
    <path
       style="fill:#f0fafd;fill-opacity:1;fill-rule:nonzero;stroke:none"
       d="m 1901.207,4063.9258 -255.3281,26.6914 3.4453,32.9687 255.3321,-26.6875 -3.4493,-32.9726"
       id="path1780"
       inkscape:connector-curvature="0" />
    <path
       style="fill:#110f0f;fill-opacity:1;fill-rule:nonzero;stroke:none"
       d="m 1651.0352,4123.4062 16.4726,-35.0507 -21.6289,2.2617 3.4492,32.9687 1.7071,-0.1797"
       id="path1782"
       inkscape:connector-curvature="0" />
    <path
       style="fill:#110f0f;fill-opacity:1;fill-rule:nonzero;stroke:none"
       d="m 1672.125,4121.2109 17.9609,-35.2109 27.9844,-2.9297 -18.2031,35.2383 -27.7422,2.9023"
       id="path1784"
       inkscape:connector-curvature="0" />
    <path
       style="fill:#110f0f;fill-opacity:1;fill-rule:nonzero;stroke:none"
       d="m 1722.6914,4115.918 17.9688,-35.2071 27.9726,-2.9218 -18.1875,35.2304 -27.7539,2.8985"
       id="path1786"
       inkscape:connector-curvature="0" />
    <path
       style="fill:#110f0f;fill-opacity:1;fill-rule:nonzero;stroke:none"
       d="m 1773.2461,4110.6445 17.9687,-35.2109 27.9805,-2.9297 -18.2031,35.2383 -27.7461,2.9023"
       id="path1788"
       inkscape:connector-curvature="0" />
    <path
       style="fill:#110f0f;fill-opacity:1;fill-rule:nonzero;stroke:none"
       d="m 1823.8164,4105.3516 17.9727,-35.211 27.9687,-2.9179 -18.1953,35.2304 -27.7461,2.8985"
       id="path1790"
       inkscape:connector-curvature="0" />
    <path
       style="fill:#110f0f;fill-opacity:1;fill-rule:nonzero;stroke:none"
       d="m 1902.1328,4097.1602 -27.7578,2.9023 17.9805,-35.2109 8.8437,-0.9219 3.0469,29.1406 -2.1133,4.0899"
       id="path1792"
       inkscape:connector-curvature="0" />
    <path
       style="fill:#f0fafd;fill-opacity:1;fill-rule:nonzero;stroke:none"
       d="m 1874.3789,4202.8984 h -194.6797 c -1.7656,0 -3.2031,-1.4297 -3.2031,-3.1992 0,-1.7695 1.4375,-3.1992 3.2031,-3.1992 h 194.6797 c 1.7734,0 3.2031,1.4297 3.2031,3.1992 0,1.7695 -1.4297,3.1992 -3.2031,3.1992"
       id="path1794"
       inkscape:connector-curvature="0" />
    <path
       style="fill:#f0fafd;fill-opacity:1;fill-rule:nonzero;stroke:none"
       d="m 1874.3789,4231.3086 h -194.6797 c -1.7656,0 -3.2031,-1.4297 -3.2031,-3.1992 0,-1.7696 1.4375,-3.1992 3.2031,-3.1992 h 194.6797 c 1.7734,0 3.2031,1.4296 3.2031,3.1992 0,1.7695 -1.4297,3.1992 -3.2031,3.1992"
       id="path1796"
       inkscape:connector-curvature="0" />
    <path
       style="fill:#f0fafd;fill-opacity:1;fill-rule:nonzero;stroke:none"
       d="m 1874.3789,4259.7187 h -194.6797 c -1.7656,0 -3.2031,-1.4296 -3.2031,-3.1992 0,-1.7695 1.4375,-3.1992 3.2031,-3.1992 h 194.6797 c 1.7734,0 3.2031,1.4297 3.2031,3.1992 0,1.7696 -1.4297,3.1992 -3.2031,3.1992"
       id="path1798"
       inkscape:connector-curvature="0" />
  </g>
</svg>
