<?xml version="1.0" encoding="UTF-8" standalone="no"?>
<svg
   xmlns:dc="http://purl.org/dc/elements/1.1/"
   xmlns:cc="http://creativecommons.org/ns#"
   xmlns:rdf="http://www.w3.org/1999/02/22-rdf-syntax-ns#"
   xmlns:svg="http://www.w3.org/2000/svg"
   xmlns="http://www.w3.org/2000/svg"
   xmlns:sodipodi="http://sodipodi.sourceforge.net/DTD/sodipodi-0.dtd"
   xmlns:inkscape="http://www.inkscape.org/namespaces/inkscape"
   width="277.07031pt"
   height="216.76953pt"
   viewBox="0 0 277.07031 216.76953"
   version="1.2"
   id="svg2633"
   sodipodi:docname="42.eps"
   inkscape:version="0.92.3 (2405546, 2018-03-11)">
  <metadata
     id="metadata2637">
    <rdf:RDF>
      <cc:Work
         rdf:about="">
        <dc:format>image/svg+xml</dc:format>
        <dc:type
           rdf:resource="http://purl.org/dc/dcmitype/StillImage" />
        <dc:title></dc:title>
      </cc:Work>
    </rdf:RDF>
  </metadata>
  <sodipodi:namedview
     pagecolor="#ffffff"
     bordercolor="#666666"
     borderopacity="1"
     objecttolerance="10"
     gridtolerance="10"
     guidetolerance="10"
     inkscape:pageopacity="0"
     inkscape:pageshadow="2"
     inkscape:window-width="1920"
     inkscape:window-height="1016"
     id="namedview2635"
     showgrid="false"
     inkscape:zoom="0.19"
     inkscape:cx="-1488.0502"
     inkscape:cy="1865.5608"
     inkscape:window-x="0"
     inkscape:window-y="0"
     inkscape:window-maximized="1"
     inkscape:current-layer="surface445" />
  <defs
     id="defs14">
    <clipPath
       id="clip1">
      <path
         d="m 4633,2664 h 1 v 1 h -1 z m 0,0"
         id="path2"
         inkscape:connector-curvature="0" />
    </clipPath>
    <clipPath
       id="clip2">
      <path
         d="m 4633.3906,2664.7109 h -0.1914 l 0.1211,-0.07 c 0.031,0.02 0.051,0.039 0.07,0.07"
         id="path5"
         inkscape:connector-curvature="0" />
    </clipPath>
    <clipPath
       id="clip3">
      <path
         d="m 2137,4078 h 114 v 5 h -114 z m 0,0"
         id="path8"
         inkscape:connector-curvature="0" />
    </clipPath>
    <clipPath
       id="clip4">
      <path
         d="m 2137.0391,4082.1289 c 1.5703,-1.7695 3.8007,-3.2187 7,-3.6289 l 106.2226,-0.039 -0.051,0.078 h -105.2617 c -3.0195,0 -5.8203,1.3593 -7.9101,3.5898"
         id="path11"
         inkscape:connector-curvature="0" />
    </clipPath>
  </defs>
  <g
     id="surface445"
     transform="translate(-2118.9336,-2629.2305)">
    <path
       style="fill:#c7e68c;fill-opacity:1;fill-rule:nonzero;stroke:none"
       d="m 2213.1523,2735.0508 c -6.9414,2.832 -13.3164,6.8281 -18.9531,11.9258 -6.1328,5.539 -11.3281,12.5078 -15.4101,20.2812 -0.6094,1.1485 -1.1875,2.7344 -1.7422,3.7422 h -58.1133 l 6.1328,-36.2344 c 3.1172,-21.1172 14.5313,-37.3359 31.9531,-43.4804 3.8828,3.6953 8.3985,6.5156 13.4414,8.5546 5.2266,2.1094 10.793,3.1446 16.5313,3.1446 5.6797,0 11.2031,-1.0625 16.4141,-3.1446 -0.1993,1.7422 -0.2813,3.4961 -0.2813,5.2696 0,4.0078 0.4805,7.9726 1.4297,11.8398 0.9219,3.7539 2.293,7.4219 4.0781,10.8906 1.3047,2.5079 2.8203,4.9297 4.5195,7.211"
       id="path1120"
       inkscape:connector-curvature="0" />
    <path
       style="fill:#c7e68c;fill-opacity:1;fill-rule:nonzero;stroke:none"
       d="m 2221.9922,2662.5391 c 0,1.207 -0.07,2.3828 -0.2031,3.5468 -0.9453,0.8008 -1.8594,1.6133 -2.7618,2.4571 -4.9765,4.7422 -8.9023,10.2695 -11.6367,16.4375 -0.8867,1.9765 -1.6133,3.9843 -2.2265,6.0351 -5.3086,3.0703 -11.5196,4.8282 -18.1797,4.8282 -8.3047,0 -15.9258,-2.7344 -21.918,-7.3282 -7.9844,-6.1093 -13.0898,-15.4765 -13.0898,-25.9765 0,-18.3868 15.6797,-33.3086 35.0078,-33.3086 19.3281,0 35.0078,14.9218 35.0078,33.3086"
       id="path1122"
       inkscape:connector-curvature="0" />
    <path
       style="fill:#c7e68c;fill-opacity:1;fill-rule:nonzero;stroke:none"
       d="m 2396.0039,2770.9961 h -57.9922 c -0.5859,-0.9961 -1.2031,-2.7773 -1.8672,-3.9961 -7.8476,-14.9219 -19.6679,-25.9883 -34.2773,-31.9414 1.6758,-2.2656 3.1601,-4.6914 4.4375,-7.1758 1.7812,-3.4531 3.1641,-7.1562 4.0742,-10.9062 0.9531,-3.8633 1.4414,-7.8633 1.4414,-11.8477 0,-1.7773 -0.1055,-3.543 -0.2812,-5.293 5.2031,2.0743 10.7148,3.1329 16.4179,3.1329 5.7188,0 11.2891,-1.086 16.5391,-3.1758 5.0273,-2.043 9.5391,-4.9219 13.4219,-8.5977 17.4297,6.1289 28.8398,22.4453 31.9687,43.5664 l 6.1172,36.2344"
       id="path1124"
       inkscape:connector-curvature="0" />
    <path
       style="fill:#c7e68c;fill-opacity:1;fill-rule:nonzero;stroke:none"
       d="m 2362.9609,2662.5391 c 0,10.5 -5.1054,19.8672 -13.0898,25.9765 -5.9961,4.5938 -13.6172,7.3282 -21.9219,7.3282 -6.6601,0 -12.8867,-1.7579 -18.1797,-4.8282 -0.6093,-2.0508 -1.3515,-4.0586 -2.2265,-6.0351 -2.7461,-6.168 -6.6602,-11.6953 -11.6485,-16.4375 -0.8867,-0.8438 -1.8203,-1.6563 -2.75,-2.4571 -0.1289,-1.164 -0.2031,-2.3398 -0.2031,-3.5468 0,-18.3868 15.6797,-33.3086 35.0078,-33.3086 19.3321,0 35.0117,14.9218 35.0117,33.3086"
       id="path1126"
       inkscape:connector-curvature="0" />
    <path
       style="fill:#1c2e45;fill-opacity:1;fill-rule:nonzero;stroke:none"
       d="m 2344.4766,2846 h -174.0235 l 7.8242,-46.7461 c 1.4532,-9.8359 4.3165,-19.1719 8.4454,-26.9961 l 0.1289,-0.3047 c 7.207,-13.5312 18.2109,-23.7304 32.2617,-28.707 l 0.027,-0.07 c 0.9805,0.918 1.9727,1.7812 3.0078,2.6289 0.1133,0.1016 0.2422,0.2031 0.3594,0.2891 0.1445,0.1132 0.2891,0.2304 0.4453,0.3437 0.1446,0.1172 0.3008,0.2305 0.461,0.3594 0.1562,0.1328 0.332,0.2617 0.4882,0.375 0.1719,0.1172 0.3321,0.2461 0.504,0.375 3.5937,2.6172 7.5351,4.789 11.75,6.5 l 0.1601,0.059 c 1.9844,0.8047 3.9961,1.4804 6.0547,2.0429 0.1562,0.043 0.3164,0.086 0.4609,0.1289 0.1719,0.043 0.3282,0.086 0.4883,0.129 l 0.2461,0.059 0.2578,0.07 c 0.1875,0.043 0.3594,0.074 0.5469,0.1289 l 0.1289,0.043 c 2.6758,0.6211 5.3945,1.2969 8.1563,1.2969 1.5937,0 3.1914,0.1719 4.8164,0.1719 1.6132,0 3.207,-0.086 4.789,-0.2149 l 0.031,-0.016 c 2.2851,-0.1875 4.5312,-0.5156 6.7578,-0.9765 h 0.016 c 0.5195,-0.1016 1.0195,-0.2188 1.5234,-0.3321 0.5196,-0.1289 1.0352,-0.2578 1.5547,-0.3867 0.2891,-0.09 0.5743,-0.1758 0.8789,-0.2617 l 0.2149,-0.055 c 0.8047,-0.2305 1.6094,-0.4766 2.414,-0.75 0.4922,-0.1719 0.9805,-0.3438 1.4688,-0.5313 0.5039,-0.1875 0.9922,-0.375 1.4805,-0.5742 6.4297,-2.5898 12.2109,-6.289 17.1875,-10.9922 l 0.031,0.016 c 14.1524,4.9922 25.1992,15.1445 32.3906,28.8086 4.1289,7.8242 6.9883,17.5078 8.4414,27.3437 l 7.8243,46.7461"
       id="path1128"
       inkscape:connector-curvature="0" />
    <path
       style="fill:#1c2e45;fill-opacity:1;fill-rule:nonzero;stroke:none"
       d="m 2302.2383,2705.1055 c 0,13.4218 -6.5274,25.4101 -16.7383,33.2109 -6.0937,4.6641 -13.5234,7.8477 -21.6367,8.9649 -2.0938,0.2734 -4.2188,0.4296 -6.3828,0.4296 -2.1797,0 -4.3164,-0.1562 -6.4102,-0.4296 -8.1172,-1.1172 -15.5312,-4.3008 -21.6406,-8.9649 -10.1953,-7.8008 -16.7188,-19.7891 -16.7188,-33.2109 0,-4.0586 0.6016,-7.9883 1.7032,-11.7032 5.3515,-17.8359 22.6015,-30.8867 43.0664,-30.8867 20.4492,0 37.6992,13.0508 43.0508,30.8867 1.1015,3.7149 1.707,7.6446 1.707,11.7032"
       id="path1130"
       inkscape:connector-curvature="0" />
  </g>
</svg>
