<?xml version="1.0" encoding="UTF-8" standalone="no"?>
<svg
   xmlns:dc="http://purl.org/dc/elements/1.1/"
   xmlns:cc="http://creativecommons.org/ns#"
   xmlns:rdf="http://www.w3.org/1999/02/22-rdf-syntax-ns#"
   xmlns:svg="http://www.w3.org/2000/svg"
   xmlns="http://www.w3.org/2000/svg"
   xmlns:sodipodi="http://sodipodi.sourceforge.net/DTD/sodipodi-0.dtd"
   xmlns:inkscape="http://www.inkscape.org/namespaces/inkscape"
   width="36.000301pt"
   height="36.419426pt"
   viewBox="0 0 36.000301 36.419426"
   version="1.2"
   id="svg27"
   sodipodi:docname="tripod.eps"
   inkscape:version="0.92.3 (2405546, 2018-03-11)">
  <metadata
     id="metadata33">
    <rdf:RDF>
      <cc:Work
         rdf:about="">
        <dc:format>image/svg+xml</dc:format>
        <dc:type
           rdf:resource="http://purl.org/dc/dcmitype/StillImage" />
        <dc:title></dc:title>
      </cc:Work>
    </rdf:RDF>
  </metadata>
  <defs
     id="defs31" />
  <sodipodi:namedview
     pagecolor="#ffffff"
     bordercolor="#666666"
     borderopacity="1"
     objecttolerance="10"
     gridtolerance="10"
     guidetolerance="10"
     inkscape:pageopacity="0"
     inkscape:pageshadow="2"
     inkscape:window-width="1920"
     inkscape:window-height="1016"
     id="namedview29"
     showgrid="false"
     inkscape:zoom="5.1659481"
     inkscape:cx="-10.262631"
     inkscape:cy="26.666868"
     inkscape:window-x="0"
     inkscape:window-y="0"
     inkscape:window-maximized="1"
     inkscape:current-layer="surface730" />
  <g
     id="surface730"
     transform="translate(-13.99985,-15.580726)">
    <path
       style="fill:#475470;fill-opacity:1;fill-rule:nonzero;stroke:none"
       d="m 31.951815,23.580726 c -1.105469,0 -2,-0.894531 -2,-2 v -4 c 0,-1.105469 0.894531,-2 2,-2 1.105469,0 2,0.894531 2,2 v 4 c 0,1.105469 -0.894531,2 -2,2"
       id="path6"
       inkscape:connector-curvature="0" />
    <path
       style="fill:#475470;fill-opacity:1;fill-rule:nonzero;stroke:none"
       d="m 35.951815,19.580726 h -8 c -1.105469,0 -2,-0.894531 -2,-2 0,-1.105469 0.894531,-2 2,-2 h 8 c 1.105469,0 2,0.894531 2,2 0,1.105469 -0.894531,2 -2,2"
       id="path14"
       inkscape:connector-curvature="0" />
    <path
       style="fill:#e1e1cc;fill-opacity:1;fill-rule:nonzero;stroke:none"
       d="m 32,52 c -1.105469,0 -2,-0.894531 -2,-2 V 26 c 0,-1.105469 0.894531,-2 2,-2 1.105469,0 2,0.894531 2,2 v 24 c 0,1.105469 -0.894531,2 -2,2"
       id="path18"
       inkscape:connector-curvature="0" />
    <path
       style="fill:#b5b5a6;fill-opacity:1;fill-rule:nonzero;stroke:none"
       d="m 34,34.605469 -2,-3 -2,3 v -7.210938 l 0.335938,-0.503906 C 30.707031,26.335938 31.332031,26 32,26 c 0.667969,0 1.292969,0.335938 1.664062,0.890625 L 34,27.394531 v 7.210938"
       id="path22"
       inkscape:connector-curvature="0" />
    <path
       style="fill:#e1e1cc;fill-opacity:1;fill-rule:nonzero;stroke:none"
       d="m 48.003906,52 c -0.648437,0 -1.28125,-0.3125 -1.667968,-0.890625 L 32,29.605469 17.664062,51.109375 c -0.613281,0.917969 -1.855468,1.167969 -2.773437,0.554687 -0.917969,-0.613281 -1.167969,-1.855468 -0.554687,-2.773437 l 16,-24 C 30.707031,24.335938 31.332031,24 32,24 c 0.667969,0 1.292969,0.335938 1.664062,0.890625 l 16,24 c 0.613282,0.917969 0.363282,2.160156 -0.554687,2.773437 C 48.769531,51.890625 48.382812,52 48.003906,52"
       id="path24"
       inkscape:connector-curvature="0" />
  </g>
</svg>
