<?xml version="1.0" encoding="UTF-8" standalone="no"?>
<svg
   xmlns:dc="http://purl.org/dc/elements/1.1/"
   xmlns:cc="http://creativecommons.org/ns#"
   xmlns:rdf="http://www.w3.org/1999/02/22-rdf-syntax-ns#"
   xmlns:svg="http://www.w3.org/2000/svg"
   xmlns="http://www.w3.org/2000/svg"
   xmlns:sodipodi="http://sodipodi.sourceforge.net/DTD/sodipodi-0.dtd"
   xmlns:inkscape="http://www.inkscape.org/namespaces/inkscape"
   width="44.03125pt"
   height="30.03125pt"
   viewBox="0 0 44.03125 30.03125"
   version="1.2"
   id="svg67"
   sodipodi:docname="money.eps"
   inkscape:version="0.92.3 (2405546, 2018-03-11)">
  <metadata
     id="metadata73">
    <rdf:RDF>
      <cc:Work
         rdf:about="">
        <dc:format>image/svg+xml</dc:format>
        <dc:type
           rdf:resource="http://purl.org/dc/dcmitype/StillImage" />
        <dc:title></dc:title>
      </cc:Work>
    </rdf:RDF>
  </metadata>
  <defs
     id="defs71" />
  <sodipodi:namedview
     pagecolor="#ffffff"
     bordercolor="#666666"
     borderopacity="1"
     objecttolerance="10"
     gridtolerance="10"
     guidetolerance="10"
     inkscape:pageopacity="0"
     inkscape:pageshadow="2"
     inkscape:window-width="1920"
     inkscape:window-height="1016"
     id="namedview69"
     showgrid="false"
     inkscape:zoom="4.4799236"
     inkscape:cx="131.11188"
     inkscape:cy="13.871779"
     inkscape:window-x="0"
     inkscape:window-y="0"
     inkscape:window-maximized="1"
     inkscape:current-layer="surface770" />
  <g
     id="surface770"
     transform="translate(-9.96875,-19)">
    <path
       style="fill:#3f4a5e;fill-opacity:1;fill-rule:nonzero;stroke:none"
       d="m 49.96875,49.03125 c -0.105469,0 -0.207031,-0.02344 -0.308594,-0.03125 H 18.308594 C 18.207031,49.0078 18.105469,49.03125 18,49.03125 c -2.226562,0 -4.03125,-1.804688 -4.03125,-4.03125 0,-0.105469 0.02344,-0.207031 0.03125,-0.308594 V 44.5 c 0.105469,0.0625 0.21875,0.117188 0.332031,0.167969 C 14.964844,46.0625 16.367188,47.03125 18,47.03125 c 0.171875,0 0.339844,-0.01172 0.503906,-0.03125 h 30.960938 c 0.164062,0.01953 0.332031,0.03125 0.503906,0.03125 2.222656,0 4.027344,-1.800781 4.03125,-4.023438 0,-0.0039 0,-0.0039 0,-0.0078 v 2 c 0,0.277344 -0.02734,0.546875 -0.08203,0.804688 -0.375,1.839843 -2,3.226562 -3.949219,3.226562"
       id="path4"
       inkscape:connector-curvature="0" />
    <path
       style="fill:#75caa8;fill-opacity:1;fill-rule:nonzero;stroke:none"
       d="m 18,46 c -1.65625,0 -3,-1.34375 -3,-3 V 27 c 0,-1.65625 1.34375,-3 3,-3 h 32 c 1.65625,0 3,1.34375 3,3 v 16 c 0,1.65625 -1.34375,3 -3,3 H 18"
       id="path6"
       inkscape:connector-curvature="0" />
    <path
       style="fill:#e1e1cc;fill-opacity:1;fill-rule:nonzero;stroke:none"
       d="M 50,23 H 18 c -2.210938,0 -4,1.789062 -4,4 v 16 c 0,2.210938 1.789062,4 4,4 h 32 c 2.210938,0 4,-1.789062 4,-4 V 27 c 0,-2.210938 -1.789062,-4 -4,-4 m 0,2 c 1.101562,0 2,0.898438 2,2 v 16 c 0,1.101562 -0.898438,2 -2,2 H 18 c -1.101562,0 -2,-0.898438 -2,-2 V 27 c 0,-1.101562 0.898438,-2 2,-2 h 32"
       id="path8"
       inkscape:connector-curvature="0" />
    <path
       style="fill:#475470;fill-opacity:1;fill-rule:nonzero;stroke:none"
       d="m 40,35 c 0,3.3125 -2.6875,6 -6,6 -3.3125,0 -6,-2.6875 -6,-6 0,-3.3125 2.6875,-6 6,-6 3.3125,0 6,2.6875 6,6"
       id="path10"
       inkscape:connector-curvature="0" />
    <path
       style="fill:#e1e1cc;fill-opacity:1;fill-rule:nonzero;stroke:none"
       d="m 45.9375,27.03125 c 0,2.226562 1.804688,4.03125 4.03125,4.03125 C 52.195312,31.0625 54,29.257812 54,27.03125 54,24.804688 52.195312,23 49.96875,23 47.742188,23 45.9375,24.804688 45.9375,27.03125"
       id="path12"
       inkscape:connector-curvature="0" />
    <path
       style="fill:#e1e1cc;fill-opacity:1;fill-rule:nonzero;stroke:none"
       d="m 13.96875,27.03125 c 0,2.226562 1.804688,4.03125 4.03125,4.03125 2.226562,0 4.03125,-1.804688 4.03125,-4.03125 C 22.03125,24.804688 20.226562,23 18,23 c -2.226562,0 -4.03125,1.804688 -4.03125,4.03125"
       id="path14"
       inkscape:connector-curvature="0" />
    <path
       style="fill:#e1e1cc;fill-opacity:1;fill-rule:nonzero;stroke:none"
       d="m 45.9375,43 c 0,2.226562 1.804688,4.03125 4.03125,4.03125 C 52.195312,47.03125 54,45.226562 54,43 c 0,-2.226562 -1.804688,-4.03125 -4.03125,-4.03125 -2.226562,0 -4.03125,1.804688 -4.03125,4.03125"
       id="path16"
       inkscape:connector-curvature="0" />
    <path
       style="fill:#e1e1cc;fill-opacity:1;fill-rule:nonzero;stroke:none"
       d="m 13.96875,43 c 0,2.226562 1.804688,4.03125 4.03125,4.03125 2.226562,0 4.03125,-1.804688 4.03125,-4.03125 0,-2.226562 -1.804688,-4.03125 -4.03125,-4.03125 -2.226562,0 -4.03125,1.804688 -4.03125,4.03125"
       id="path18"
       inkscape:connector-curvature="0" />
    <path
       style="fill:#61a38c;fill-opacity:1;fill-rule:nonzero;stroke:none"
       d="M 44.078125,42 H 21.90625 C 21.601562,40.808594 20.769531,39.832031 19.667969,39.332031 19.035156,37.9375 17.628906,36.96875 16,36.96875 v -6.4375 c 0.589844,0.339844 1.273438,0.53125 2,0.53125 2.226562,0 4.03125,-1.804688 4.03125,-4.03125 0,-0.742188 -0.199219,-1.433594 -0.546875,-2.03125 H 43.9375 c 0,0.01172 0,0.01953 0,0.03125 0,1.628906 0.96875,3.035156 2.359375,3.671875 0.507813,1.105469 1.496094,1.945313 2.703125,2.242187 v 6.171876 c -0.332031,-0.08594 -0.671875,-0.148438 -1.03125,-0.148438 -2.226562,0 -4.03125,1.804688 -4.03125,4.03125 0,0.347656 0.05859,0.679688 0.140625,1 M 28.875,38.125 C 29.929688,39.847656 31.832031,41 34,41 c 3.3125,0 6,-2.6875 6,-6 0,-2.167969 -1.152344,-4.070312 -2.875,-5.125 C 36.070312,28.152344 34.167969,27 32,27 c -3.3125,0 -6,2.6875 -6,6 0,2.167969 1.152344,4.070312 2.875,5.125"
       id="path20"
       inkscape:connector-curvature="0" />
    <path
       style="fill:#b5b5a6;fill-opacity:1;fill-rule:nonzero;stroke:none"
       d="m 15,37.109375 v -7.386719 c 0.285156,0.320313 0.625,0.59375 1,0.808594 v 6.4375 c -0.347656,0 -0.679688,0.05859 -1,0.140625 M 43.9375,25 H 21.484375 c -0.222656,-0.375 -0.5,-0.714844 -0.828125,-1 h 23.429688 c -0.08203,0.320312 -0.144532,0.652344 -0.148438,1"
       id="path22"
       inkscape:connector-curvature="0" />
    <path
       style="fill:#3f4a5e;fill-opacity:1;fill-rule:nonzero;stroke:none"
       d="M 34,41 C 31.832031,41 29.929688,39.847656 28.875,38.125 29.785156,38.679688 30.855469,39 32,39 c 3.3125,0 6,-2.6875 6,-6 0,-1.144531 -0.320312,-2.214844 -0.875,-3.125 C 38.847656,30.929688 40,32.832031 40,35 c 0,3.3125 -2.6875,6 -6,6"
       id="path24"
       inkscape:connector-curvature="0" />
    <path
       style="fill:#b5b5a6;fill-opacity:1;fill-rule:nonzero;stroke:none"
       d="M 49,30.945312 C 47.792969,30.648438 46.804688,29.808594 46.296875,28.703125 46.808594,28.933594 47.371094,29.0625 47.96875,29.0625 48.328125,29.0625 48.667969,29 49,28.914062 v 2.03125"
       id="path26"
       inkscape:connector-curvature="0" />
    <path
       style="fill:#b5b5a6;fill-opacity:1;fill-rule:nonzero;stroke:none"
       d="m 18,31.0625 c -0.726562,0 -1.410156,-0.191406 -2,-0.53125 -0.375,-0.214844 -0.714844,-0.488281 -1,-0.808594 v -0.800781 c 0.320312,0.08203 0.652344,0.140625 1,0.140625 2.226562,0 4.03125,-1.804688 4.03125,-4.03125 0,-0.359375 -0.0625,-0.699219 -0.148438,-1.03125 h 0.773438 c 0.328125,0.285156 0.605469,0.625 0.828125,1 0.347656,0.597656 0.546875,1.289062 0.546875,2.03125 0,2.226562 -1.804688,4.03125 -4.03125,4.03125"
       id="path28"
       inkscape:connector-curvature="0" />
    <path
       style="fill:#b5b5a6;fill-opacity:1;fill-rule:nonzero;stroke:none"
       d="m 21.90625,42 h -2.015625 c 0.08203,-0.320312 0.140625,-0.652344 0.140625,-1 0,-0.59375 -0.128906,-1.160156 -0.363281,-1.667969 1.101562,0.5 1.933593,1.476563 2.238281,2.667969"
       id="path30"
       inkscape:connector-curvature="0" />
    <path
       style="fill:#3f4a5e;fill-opacity:1;fill-rule:nonzero;stroke:none"
       d="m 14,44.5 c -1.214844,-0.695312 -2.03125,-2 -2.03125,-3.5 0,-0.105469 0.02344,-0.207031 0.03125,-0.308594 V 25.339844 c -0.0078,-0.101563 -0.03125,-0.203125 -0.03125,-0.308594 0,-1.949219 1.382812,-3.574219 3.226562,-3.949219 C 15.453125,21.027344 15.722656,21 16,21 h 32 c 1.621094,0 3.019531,0.964844 3.648438,2.351562 C 51.144531,23.125 50.585938,23 50,23 H 18 c -0.0039,0 -0.0039,0 -0.0078,0 -2.222657,0.0039 -4.023438,1.808594 -4.023438,4.03125 0,0.171875 0.01172,0.339844 0.03125,0.503906 v 0.992188 c -0.01953,0.164062 -0.03125,0.332031 -0.03125,0.503906 0,0.105469 0.02344,0.207031 0.03125,0.308594 v 13.15625 C 13.980469,42.660156 13.96875,42.828125 13.96875,43 c 0,0.171875 0.01172,0.339844 0.03125,0.503906 V 44.5"
       id="path32"
       inkscape:connector-curvature="0" />
    <path
       style="fill:#383f4f;fill-opacity:1;fill-rule:nonzero;stroke:none"
       d="M 14.332031,44.667969 C 14.21875,44.617188 14.105469,44.5625 14,44.5 v -0.996094 c 0.05078,0.410156 0.164062,0.804688 0.332031,1.164063 M 14,42.496094 v -13.15625 c -0.0078,-0.101563 -0.03125,-0.203125 -0.03125,-0.308594 0,-0.171875 0.01172,-0.339844 0.03125,-0.503906 v 13.96875"
       id="path34"
       inkscape:connector-curvature="0" />
    <path
       style="fill:#61a38c;fill-opacity:1;fill-rule:nonzero;stroke:none"
       d="M 46.46875,45 H 21.5 c 0.339844,-0.589844 0.53125,-1.273438 0.53125,-2 0,-0.34375 -0.04297,-0.679688 -0.125,-1 H 44.078125 C 43.996094,41.679688 43.9375,41.347656 43.9375,41 c 0,-2.226562 1.804688,-4.03125 4.03125,-4.03125 0.359375,0 0.699219,0.0625 1.03125,0.148438 v -6.171876 c 0.308594,0.07813 0.636719,0.117188 0.96875,0.117188 0.742188,0 1.433594,-0.199219 2.03125,-0.546875 v 9 c -0.597656,-0.347656 -1.289062,-0.546875 -2.03125,-0.546875 -2.226562,0 -4.03125,1.804688 -4.03125,4.03125 0,0.726562 0.191406,1.410156 0.53125,2 M 16,39.5 v -2.53125 c 1.628906,0 3.035156,0.96875 3.667969,2.363281 C 19.160156,39.097656 18.59375,38.96875 18,38.96875 c -0.726562,0 -1.410156,0.191406 -2,0.53125 M 46.296875,28.703125 C 44.90625,28.066406 43.9375,26.660156 43.9375,25.03125 c 0,-0.01172 0,-0.01953 0,-0.03125 h 2.546875 c -0.347656,0.597656 -0.546875,1.289062 -0.546875,2.03125 0,0.597656 0.128906,1.160156 0.359375,1.671875"
       id="path36"
       inkscape:connector-curvature="0" />
    <path
       style="fill:#b5b5a6;fill-opacity:1;fill-rule:nonzero;stroke:none"
       d="m 49.96875,31.0625 c -0.332031,0 -0.660156,-0.03906 -0.96875,-0.117188 v -2.03125 C 48.667969,29 48.328125,29.0625 47.96875,29.0625 c -0.597656,0 -1.160156,-0.128906 -1.671875,-0.359375 C 46.066406,28.191406 45.9375,27.628906 45.9375,27.03125 c 0,-0.742188 0.199219,-1.433594 0.546875,-2.03125 0.699219,-1.195312 2,-2 3.484375,-2 0.601562,0 1.171875,0.132812 1.683594,0.367188 C 51.875,23.867188 52,24.417969 52,25 v 5.515625 C 51.402344,30.863281 50.710938,31.0625 49.96875,31.0625"
       id="path40"
       inkscape:connector-curvature="0" />
    <path
       style="fill:#b5b5a6;fill-opacity:1;fill-rule:nonzero;stroke:none"
       d="m 15,29.722656 c -0.535156,-0.59375 -0.894531,-1.351562 -1,-2.1875 -0.01953,-0.164062 -0.03125,-0.332031 -0.03125,-0.503906 0,-2.222656 1.800781,-4.027344 4.023438,-4.03125 0.0039,0 0.0039,0 0.0078,0 1.019531,0 1.949219,0.378906 2.65625,1 H 19.8828 c 0.08594,0.332031 0.148438,0.671875 0.148438,1.03125 0,2.226562 -1.804688,4.03125 -4.03125,4.03125 -0.347656,0 -0.679688,-0.05859 -1,-0.140625 v 0.800781"
       id="path42"
       inkscape:connector-curvature="0" />
    <path
       style="fill:#b5b5a6;fill-opacity:1;fill-rule:nonzero;stroke:none"
       d="m 47.96875,45.03125 c -0.105469,0 -0.207031,-0.02344 -0.308594,-0.03125 H 46.46875 c -0.339844,-0.589844 -0.53125,-1.273438 -0.53125,-2 0,-2.226562 1.804688,-4.03125 4.03125,-4.03125 0.742188,0 1.433594,0.199219 2.03125,0.546875 V 41 c 0,0.277344 -0.02734,0.546875 -0.08203,0.804688 -0.375,1.839843 -2,3.226562 -3.949219,3.226562"
       id="path44"
       inkscape:connector-curvature="0" />
    <path
       style="fill:#b5b5a6;fill-opacity:1;fill-rule:nonzero;stroke:none"
       d="m 16,45.03125 c -0.59375,0 -1.160156,-0.128906 -1.667969,-0.363281 C 14.164062,44.308594 14.050781,43.914062 14,43.503906 13.980469,43.339844 13.96875,43.171875 13.96875,43 c 0,-0.171875 0.01172,-0.339844 0.03125,-0.503906 0.160156,-1.285156 0.925781,-2.382813 2,-2.996094 0.589844,-0.339844 1.273438,-0.53125 2,-0.53125 0.59375,0 1.160156,0.128906 1.667969,0.363281 0.234375,0.507813 0.363281,1.074219 0.363281,1.667969 0,0.347656 -0.05859,0.679688 -0.140625,1 h 2.015625 c 0.08203,0.320312 0.125,0.65625 0.125,1 0,0.726562 -0.191406,1.410156 -0.53125,2 H 16.308594 C 16.207031,45.007812 16.105469,45.03125 16,45.03125"
       id="path46"
       inkscape:connector-curvature="0" />
    <path
       style="fill:#61a38c;fill-opacity:1;fill-rule:nonzero;stroke:none"
       d="M 28.875,38.125 C 27.152344,37.070312 26,35.167969 26,33 c 0,-3.3125 2.6875,-6 6,-6 2.167969,0 4.070312,1.152344 5.125,2.875 C 36.214844,29.320312 35.144531,29 34,29 c -3.3125,0 -6,2.6875 -6,6 0,1.144531 0.320312,2.214844 0.875,3.125"
       id="path48"
       inkscape:connector-curvature="0" />
    <path
       style="fill:#3f4a5e;fill-opacity:1;fill-rule:nonzero;stroke:none"
       d="M 32,39 C 30.855469,39 29.785156,38.679688 28.875,38.125 28.320312,37.214844 28,36.144531 28,35 c 0,-3.3125 2.6875,-6 6,-6 1.144531,0 2.214844,0.320312 3.125,0.875 C 37.679688,30.785156 38,31.855469 38,33 c 0,3.3125 -2.6875,6 -6,6"
       id="path50"
       inkscape:connector-curvature="0" />
    <path
       style="fill:#75caa8;fill-opacity:1;fill-rule:nonzero;stroke:none"
       d="m 14,42 c -1.65625,0 -3,-1.34375 -3,-3 V 23 c 0,-1.65625 1.34375,-3 3,-3 h 32 c 1.65625,0 3,1.34375 3,3 v 16 c 0,1.65625 -1.34375,3 -3,3 H 14"
       id="path52"
       inkscape:connector-curvature="0" />
    <path
       style="fill:#e1e1cc;fill-opacity:1;fill-rule:nonzero;stroke:none"
       d="M 46,19 H 14 c -2.210938,0 -4,1.789062 -4,4 v 16 c 0,2.210938 1.789062,4 4,4 h 32 c 2.210938,0 4,-1.789062 4,-4 V 23 c 0,-2.210938 -1.789062,-4 -4,-4 z m 0,2 c 1.101562,0 2,0.898438 2,2 v 16 c 0,1.101562 -0.898438,2 -2,2 H 14 c -1.101562,0 -2,-0.898438 -2,-2 V 23 c 0,-1.101562 0.898438,-2 2,-2 h 32"
       id="path54"
       inkscape:connector-curvature="0" />
    <path
       style="fill:#475470;fill-opacity:1;fill-rule:nonzero;stroke:none"
       d="m 36,31 c 0,3.3125 -2.6875,6 -6,6 -3.3125,0 -6,-2.6875 -6,-6 0,-3.3125 2.6875,-6 6,-6 3.3125,0 6,2.6875 6,6"
       id="path56"
       inkscape:connector-curvature="0" />
    <path
       style="fill:#e1e1cc;fill-opacity:1;fill-rule:nonzero;stroke:none"
       d="m 41.9375,23.03125 c 0,2.226562 1.804688,4.03125 4.03125,4.03125 C 48.195312,27.0625 50,25.257812 50,23.03125 50,20.804688 48.195312,19 45.96875,19 43.742188,19 41.9375,20.804688 41.9375,23.03125"
       id="path58"
       inkscape:connector-curvature="0" />
    <path
       style="fill:#e1e1cc;fill-opacity:1;fill-rule:nonzero;stroke:none"
       d="m 9.96875,23.03125 c 0,2.226562 1.804688,4.03125 4.03125,4.03125 2.226562,0 4.03125,-1.804688 4.03125,-4.03125 C 18.03125,20.804688 16.226562,19 14,19 11.773438,19 9.96875,20.804688 9.96875,23.03125"
       id="path60"
       inkscape:connector-curvature="0" />
    <path
       style="fill:#e1e1cc;fill-opacity:1;fill-rule:nonzero;stroke:none"
       d="m 41.9375,39 c 0,2.226562 1.804688,4.03125 4.03125,4.03125 C 48.195312,43.03125 50,41.226562 50,39 c 0,-2.226562 -1.804688,-4.03125 -4.03125,-4.03125 -2.226562,0 -4.03125,1.804688 -4.03125,4.03125"
       id="path62"
       inkscape:connector-curvature="0" />
    <path
       style="fill:#e1e1cc;fill-opacity:1;fill-rule:nonzero;stroke:none"
       d="m 9.96875,39 c 0,2.226562 1.804688,4.03125 4.03125,4.03125 2.226562,0 4.03125,-1.804688 4.03125,-4.03125 0,-2.226562 -1.804688,-4.03125 -4.03125,-4.03125 -2.226562,0 -4.03125,1.804688 -4.03125,4.03125"
       id="path64"
       inkscape:connector-curvature="0" />
  </g>
</svg>
