<?xml version="1.0" encoding="UTF-8" standalone="no"?>
<svg
   xmlns:dc="http://purl.org/dc/elements/1.1/"
   xmlns:cc="http://creativecommons.org/ns#"
   xmlns:rdf="http://www.w3.org/1999/02/22-rdf-syntax-ns#"
   xmlns:svg="http://www.w3.org/2000/svg"
   xmlns="http://www.w3.org/2000/svg"
   xmlns:sodipodi="http://sodipodi.sourceforge.net/DTD/sodipodi-0.dtd"
   xmlns:inkscape="http://www.inkscape.org/namespaces/inkscape"
   width="284.54227pt"
   height="197.05078pt"
   viewBox="0 0 284.54227 197.05078"
   version="1.2"
   id="svg2633"
   sodipodi:docname="42.eps"
   inkscape:version="0.92.3 (2405546, 2018-03-11)">
  <metadata
     id="metadata2637">
    <rdf:RDF>
      <cc:Work
         rdf:about="">
        <dc:format>image/svg+xml</dc:format>
        <dc:type
           rdf:resource="http://purl.org/dc/dcmitype/StillImage" />
        <dc:title></dc:title>
      </cc:Work>
    </rdf:RDF>
  </metadata>
  <sodipodi:namedview
     pagecolor="#ffffff"
     bordercolor="#666666"
     borderopacity="1"
     objecttolerance="10"
     gridtolerance="10"
     guidetolerance="10"
     inkscape:pageopacity="0"
     inkscape:pageshadow="2"
     inkscape:window-width="1920"
     inkscape:window-height="1016"
     id="namedview2635"
     showgrid="false"
     inkscape:zoom="0.19"
     inkscape:cx="392.81289"
     inkscape:cy="-269.03901"
     inkscape:window-x="0"
     inkscape:window-y="0"
     inkscape:window-maximized="1"
     inkscape:current-layer="surface445" />
  <defs
     id="defs14">
    <clipPath
       id="clip1">
      <path
         d="m 4633,2664 h 1 v 1 h -1 z m 0,0"
         id="path2"
         inkscape:connector-curvature="0" />
    </clipPath>
    <clipPath
       id="clip2">
      <path
         d="m 4633.3906,2664.7109 h -0.1914 l 0.1211,-0.07 c 0.031,0.02 0.051,0.039 0.07,0.07"
         id="path5"
         inkscape:connector-curvature="0" />
    </clipPath>
    <clipPath
       id="clip3">
      <path
         d="m 2137,4078 h 114 v 5 h -114 z m 0,0"
         id="path8"
         inkscape:connector-curvature="0" />
    </clipPath>
    <clipPath
       id="clip4">
      <path
         d="m 2137.0391,4082.1289 c 1.5703,-1.7695 3.8007,-3.2187 7,-3.6289 l 106.2226,-0.039 -0.051,0.078 h -105.2617 c -3.0195,0 -5.8203,1.3593 -7.9101,3.5898"
         id="path11"
         inkscape:connector-curvature="0" />
    </clipPath>
  </defs>
  <g
     id="surface445"
     transform="translate(-4522.9515,-237.94141)">
    <path
       style="fill:#fdfdfd;fill-opacity:1;fill-rule:nonzero;stroke:none"
       d="M 4786.4453,400.42969 H 4547.2695 V 243.41797 h 239.1758 v 157.01172"
       id="path220"
       inkscape:connector-curvature="0" />
    <path
       style="fill:#2b3547;fill-opacity:1;fill-rule:nonzero;stroke:none"
       d="m 4783.3672,382.55469 c 0,7.47656 -6.0625,13.53906 -13.5391,13.53906 H 4565 c -7.4453,0 -13.5078,-6.0625 -13.5078,-13.53906 V 262.16016 c 0,-7.44532 6.0625,-13.50782 13.5078,-13.50782 h 204.8281 c 7.4766,0 13.5391,6.0625 13.5391,13.50782 z m 13.625,-131.10547 c 0,-7.44531 -6.0625,-13.50781 -13.5078,-13.50781 h -231.7852 c -7.4765,0 -13.5078,6.0625 -13.5078,13.50781 v 140.8789 c 0,7.44532 6.0313,13.50782 13.5078,13.50782 h 231.7852 c 7.4453,0 13.5078,-6.0625 13.5078,-13.50782 v -140.8789"
       id="path222"
       inkscape:connector-curvature="0" />
    <path
       style="fill:#2b3547;fill-opacity:1;fill-rule:nonzero;stroke:none"
       d="m 4807.2422,410 c -1.8906,0 -131.5039,0 -141.7422,0 0,0 -0.207,0 -0.6484,0 -10.2071,0 -139.7618,0 -141.6485,0 -1.9765,0 7.9922,24.99219 19.3242,24.99219 10.8282,0 113.2969,0 122.3243,0 0.4414,0 0.6484,0 0.6484,0 9.0586,0 111.5859,0 122.4141,0 11.332,0 21.3046,-24.99219 19.3281,-24.99219"
       id="path224"
       inkscape:connector-curvature="0" />
    <path
       style="fill:#fdfdfd;fill-opacity:1;fill-rule:nonzero;stroke:none"
       d="m 4689.875,426.82812 h -44.543 c -1.9883,0 -3.6015,-1.64062 -3.6015,-3.6289 V 421.875 c 0,-1.98438 1.6132,-3.62891 3.6015,-3.62891 h 44.543 c 1.9883,0 3.6289,1.64453 3.6289,3.62891 v 1.32422 c 0,1.98828 -1.6406,3.6289 -3.6289,3.6289"
       id="path226"
       inkscape:connector-curvature="0" />
    <path
       style="fill:#ee424c;fill-opacity:1;fill-rule:nonzero;stroke:none"
       d="m 4696.8437,285.37109 -0.2304,-0.11718 c -0.2617,-0.11329 -0.4649,-0.23047 -0.6992,-0.37891 -0.1172,-0.0547 -0.2344,-0.11328 -0.3477,-0.20313 -0.09,-0.0859 -0.207,-0.14453 -0.3203,-0.23046 l -0.1484,-0.11719 c -0.2891,-0.23438 -0.5821,-0.4961 -0.8438,-0.75781 -0.2617,-0.28907 -0.5234,-0.58204 -0.7266,-0.8711 -0.086,-0.11719 -0.1757,-0.26172 -0.2617,-0.3789 -0.2617,-0.37891 -0.4648,-0.78516 -0.6406,-1.22266 -0.4375,-0.98828 -0.668,-2.06641 -0.668,-3.23047 0,-2.41797 1.0469,-4.57031 2.6758,-6.08203 0.1758,-0.11719 0.3203,-0.23438 0.4649,-0.37891 l 0.1484,-0.11718 c 0.1133,-0.0586 0.2305,-0.14454 0.3203,-0.23438 0.3477,-0.20312 0.668,-0.40625 1.0469,-0.58203 0.1172,-0.0586 0.2304,-0.11328 0.3476,-0.17188 0.9922,-0.41015 2.0664,-0.64062 3.2032,-0.64062 1.3398,0 2.6171,0.32031 3.7539,0.90234 0.086,0.0586 0.2031,0.11328 0.3203,0.20313 0.1758,0.0859 0.3476,0.20312 0.5234,0.28906 0.1172,0.0898 0.2031,0.17578 0.3203,0.23438 l 0.1446,0.11718 c 0.1171,0.0859 0.2031,0.17188 0.3203,0.26172 0.1445,0.11719 0.2617,0.26172 0.4101,0.40625 0.1133,0.0859 0.2032,0.17578 0.2891,0.29297 0.2031,0.23047 0.4062,0.49219 0.6094,0.75391 0.09,0.11718 0.1484,0.20703 0.207,0.32031 0.086,0.11719 0.1445,0.23437 0.2305,0.35156 0.09,0.17188 0.1757,0.34766 0.2617,0.52344 0.5234,1.07812 0.8164,2.26953 0.8164,3.55078 0,0.72656 -0.086,1.39453 -0.2617,2.06641 -0.031,0.11718 -0.059,0.26172 -0.1172,0.3789 -0.059,0.20313 -0.1172,0.37891 -0.1758,0.58203 -0.059,0.11719 -0.1133,0.23047 -0.1719,0.34766 l -0.1172,0.23438 c -0.086,0.17187 -0.1445,0.32031 -0.2343,0.49218 -0.086,0.0899 -0.1446,0.20703 -0.2305,0.32032 l -0.1484,0.26171 -0.1719,0.23438 -0.1172,0.14453 c -0.086,0.11719 -0.1758,0.20313 -0.2617,0.32031 l -0.1172,0.14453 c -0.086,0.0899 -0.1758,0.17579 -0.2891,0.29297 l -0.1484,0.11719 c -0.1719,0.20313 -0.3789,0.34766 -0.582,0.52344 l -0.1446,0.11719 c -0.1172,0.0859 -0.2031,0.14453 -0.3203,0.23046 -0.1172,0.0899 -0.2344,0.14844 -0.3476,0.20313 l -0.1758,0.11719 c -0.1172,0.0586 -0.2344,0.11718 -0.3203,0.17578 -1.1368,0.58203 -2.4141,0.90234 -3.7539,0.90234 -1.0782,0 -2.125,-0.20312 -3.0586,-0.58203 z m 23.8672,-11.69922 h -3.2578 c -0.4375,-1.86328 -1.164,-3.55078 -2.1562,-5.12109 h 0.031 l 2.2969,-2.33203 c 0.5234,-0.52344 0.5234,-1.33594 0,-1.85938 l -4.0156,-4.04687 c -0.5235,-0.49609 -1.3672,-0.49609 -1.8633,0 l -2.2969,2.32812 c -1.6015,-0.98828 -3.3476,-1.6875 -5.0937,-2.09375 v -3.28906 c 0,-0.73047 -0.6407,-1.33984 -1.3672,-1.33984 h -5.7071 c -0.7265,0 -1.25,0.60937 -1.25,1.33984 v 3.25781 c -1.8632,0.46485 -3.582,1.19532 -5.125,2.15235 h -0.027 l -2.3281,-2.32813 c -0.5235,-0.52343 -1.3672,-0.52343 -1.8633,0 l -4.0469,4.04688 c -0.5234,0.49609 -0.5234,1.33984 0,1.86328 l 2.3008,2.30078 c -0.9609,1.59766 -1.6602,3.34375 -2.0664,5.12109 h -3.2891 c -0.7578,0 -1.2812,0.58204 -1.2812,1.3086 v 5.70703 c 0,0.72656 0.5234,1.30859 1.2812,1.30859 h 3.2618 c 0.4335,1.86328 1.164,3.55078 2.121,5.09375 v 0.0274 l -2.2968,2.32812 c -0.5235,0.4961 -0.5235,1.33985 0,1.86328 l 4.0156,4.01563 c 0.5234,0.52344 1.3672,0.52344 1.8633,0 l 2.3554,-2.29688 c 1.6016,0.96094 3.379,1.65625 5.125,2.09375 v 3.28907 c 0,0.72656 0.5508,1.30859 1.2813,1.30859 h 5.7031 c 0.7266,0 1.3399,-0.58203 1.3399,-1.30859 v -3.28907 c 1.8632,-0.4375 3.5507,-1.16406 5.0937,-2.125 l 2.3281,2.32813 c 0.4922,0.49609 1.336,0.49609 1.8321,0 l 4.0468,-4.04297 c 0.5235,-0.49609 0.5235,-1.33984 0,-1.86328 l -2.3007,-2.30078 c 0.9609,-1.62891 1.6601,-3.375 2.0664,-5.1211 h 3.289 c 0.7578,0 1.3985,-0.61328 1.3985,-1.33984 v -5.70313 c 0,-0.73046 -0.6407,-1.28125 -1.3985,-1.28125"
       id="path228"
       inkscape:connector-curvature="0" />
    <path
       style="fill:#7d7d7f;fill-opacity:1;fill-rule:nonzero;stroke:none"
       d="m 4669.0391,271.36328 h -105.4063 v -12.33203 h 105.4063 v 12.33203"
       id="path230"
       inkscape:connector-curvature="0" />
    <path
       style="fill:#7d7d7f;fill-opacity:1;fill-rule:nonzero;stroke:none"
       d="m 4669.0156,288.41016 h -105.375 V 276.0625 h 105.375 v 12.34766"
       id="path232"
       inkscape:connector-curvature="0" />
    <path
       style="fill:#7d7d7f;fill-opacity:1;fill-rule:nonzero;stroke:none"
       d="m 4563.8867,389.53516 v -47.14454 h 12.3164 v 47.14454 h -12.3164"
       id="path234"
       inkscape:connector-curvature="0" />
    <path
       style="fill:#7d7d7f;fill-opacity:1;fill-rule:nonzero;stroke:none"
       d="m 4582.4336,389.53516 v -47.14454 h 12.3437 v 47.14454 h -12.3437"
       id="path236"
       inkscape:connector-curvature="0" />
    <path
       style="fill:#7d7d7f;fill-opacity:1;fill-rule:nonzero;stroke:none"
       d="m 4601.0039,389.53516 v -47.14454 h 12.3164 v 47.14454 h -12.3164"
       id="path238"
       inkscape:connector-curvature="0" />
    <path
       style="fill:#7d7d7f;fill-opacity:1;fill-rule:nonzero;stroke:none"
       d="m 4619.5508,389.53516 v -47.14454 h 12.3437 v 47.14454 h -12.3437"
       id="path240"
       inkscape:connector-curvature="0" />
    <path
       style="fill:#7d7d7f;fill-opacity:1;fill-rule:nonzero;stroke:none"
       d="m 4638.125,389.53516 v -47.14454 h 12.3437 v 47.14454 h -12.3437"
       id="path242"
       inkscape:connector-curvature="0" />
    <path
       style="fill:#7d7d7f;fill-opacity:1;fill-rule:nonzero;stroke:none"
       d="m 4656.6758,389.52734 v -47.14843 h 12.3437 v 47.14843 h -12.3437"
       id="path244"
       inkscape:connector-curvature="0" />
    <path
       style="fill:#7d7d7f;fill-opacity:1;fill-rule:nonzero;stroke:none"
       d="m 4730.4844,299.74219 v -43.81641 h 43.8164 v 43.81641 h -43.8164"
       id="path246"
       inkscape:connector-curvature="0" />
    <path
       style="fill:#f8ae30;fill-opacity:1;fill-rule:nonzero;stroke:none"
       d="m 4612.5273,337.86328 h -48.6601 v -44.99219 h 48.6601 v 44.99219"
       id="path248"
       inkscape:connector-curvature="0" />
    <path
       style="fill:#f8ae30;fill-opacity:1;fill-rule:nonzero;stroke:none"
       d="m 4669.0117,337.86328 h -48.6601 v -44.99219 h 48.6601 v 44.99219"
       id="path250"
       inkscape:connector-curvature="0" />
    <path
       style="fill:#7d7d7f;fill-opacity:1;fill-rule:nonzero;stroke:none"
       d="m 4774.3008,320.42187 h -96.0117 v -8.3789 h 96.0117 v 8.3789"
       id="path252"
       inkscape:connector-curvature="0" />
    <path
       style="fill:#7d7d7f;fill-opacity:1;fill-rule:nonzero;stroke:none"
       d="m 4774.3008,334.10156 h -96.0117 v -8.3789 h 96.0117 v 8.3789"
       id="path254"
       inkscape:connector-curvature="0" />
    <path
       style="fill:#7d7d7f;fill-opacity:1;fill-rule:nonzero;stroke:none"
       d="m 4774.3008,347.75 h -96.0117 v -8.34766 h 96.0117 V 347.75"
       id="path256"
       inkscape:connector-curvature="0" />
    <path
       style="fill:#7d7d7f;fill-opacity:1;fill-rule:nonzero;stroke:none"
       d="m 4774.3008,389.54687 h -96.0117 v -35.5 h 96.0117 v 35.5"
       id="path258"
       inkscape:connector-curvature="0" />
  </g>
</svg>
