<?xml version="1.0" encoding="UTF-8" standalone="no"?>
<svg
   xmlns:dc="http://purl.org/dc/elements/1.1/"
   xmlns:cc="http://creativecommons.org/ns#"
   xmlns:rdf="http://www.w3.org/1999/02/22-rdf-syntax-ns#"
   xmlns:svg="http://www.w3.org/2000/svg"
   xmlns="http://www.w3.org/2000/svg"
   xmlns:sodipodi="http://sodipodi.sourceforge.net/DTD/sodipodi-0.dtd"
   xmlns:inkscape="http://www.inkscape.org/namespaces/inkscape"
   width="226.51562pt"
   height="246.43359pt"
   viewBox="0 0 226.51562 246.43359"
   version="1.2"
   id="svg2633"
   sodipodi:docname="EMP.svg"
   inkscape:version="0.92.3 (2405546, 2018-03-11)">
  <metadata
     id="metadata2637">
    <rdf:RDF>
      <cc:Work
         rdf:about="">
        <dc:format>image/svg+xml</dc:format>
        <dc:type
           rdf:resource="http://purl.org/dc/dcmitype/StillImage" />
        <dc:title></dc:title>
      </cc:Work>
    </rdf:RDF>
  </metadata>
  <sodipodi:namedview
     pagecolor="#ffffff"
     bordercolor="#666666"
     borderopacity="1"
     objecttolerance="10"
     gridtolerance="10"
     guidetolerance="10"
     inkscape:pageopacity="0"
     inkscape:pageshadow="2"
     inkscape:window-width="1920"
     inkscape:window-height="1016"
     id="namedview2635"
     showgrid="false"
     inkscape:zoom="0.19"
     inkscape:cx="-1807.9317"
     inkscape:cy="703.06814"
     inkscape:window-x="0"
     inkscape:window-y="0"
     inkscape:window-maximized="1"
     inkscape:current-layer="surface445" />
  <defs
     id="defs14">
    <clipPath
       id="clip1">
      <path
         d="m 4633,2664 h 1 v 1 h -1 z m 0,0"
         id="path2"
         inkscape:connector-curvature="0" />
    </clipPath>
    <clipPath
       id="clip2">
      <path
         d="m 4633.3906,2664.7109 h -0.1914 l 0.1211,-0.07 c 0.031,0.02 0.051,0.039 0.07,0.07"
         id="path5"
         inkscape:connector-curvature="0" />
    </clipPath>
    <clipPath
       id="clip3">
      <path
         d="m 2137,4078 h 114 v 5 h -114 z m 0,0"
         id="path8"
         inkscape:connector-curvature="0" />
    </clipPath>
    <clipPath
       id="clip4">
      <path
         d="m 2137.0391,4082.1289 c 1.5703,-1.7695 3.8007,-3.2187 7,-3.6289 l 106.2226,-0.039 -0.051,0.078 h -105.2617 c -3.0195,0 -5.8203,1.3593 -7.9101,3.5898"
         id="path11"
         inkscape:connector-curvature="0" />
    </clipPath>
  </defs>
  <g
     id="surface445"
     transform="translate(-4072.2031,-2618.5391)">
    <path
       style="fill:#38454c;fill-opacity:1;fill-rule:nonzero;stroke:none"
       d="m 4286.2422,2864.9727 h -201.5625 c -6.8594,0 -12.4766,-5.6211 -12.4766,-12.4844 v -126 c 0,-6.8594 5.6172,-12.4766 12.4766,-12.4766 h 201.5625 c 6.8594,0 12.4765,5.6172 12.4765,12.4766 v 126 c 0,6.8633 -5.6171,12.4844 -12.4765,12.4844"
       id="path1228"
       inkscape:connector-curvature="0" />
    <path
       style="fill:#dcd9de;fill-opacity:1;fill-rule:nonzero;stroke:none"
       d="m 4282.1641,2859.2383 h -193.4219 c -4.9766,0 -9.0547,-4.0703 -9.0547,-9.0469 v -120.1211 c 0,-4.9805 4.0781,-9.0508 9.0547,-9.0508 h 193.4219 c 4.9765,0 9.0546,4.0703 9.0546,9.0508 v 120.1211 c 0,4.9766 -4.0781,9.0469 -9.0546,9.0469"
       id="path1230"
       inkscape:connector-curvature="0" />
    <path
       style="fill:#38454c;fill-opacity:1;fill-rule:nonzero;stroke:none"
       d="m 4137.4023,2653.8906 h 0.024 c 0,-9.7812 3.7734,-18.1718 9.3398,-22.6679 0.3906,-0.3125 0.8086,-0.625 1.2227,-0.9024 0.2617,-0.1797 0.5234,-0.3594 0.8086,-0.5195 0.1289,-0.09 0.2851,-0.1719 0.4179,-0.25 0.2852,-0.1524 0.5704,-0.3008 0.8555,-0.4414 0.2891,-0.1406 0.6016,-0.2578 0.8867,-0.3789 1.6133,-0.6407 3.3282,-0.9805 5.0742,-0.9805 h 59.7618 c 1.7656,0 3.457,0.3398 5.0703,0.9805 0.289,0.1211 0.6015,0.2383 0.8867,0.3789 0.2852,0.1406 0.5703,0.2812 0.8594,0.4414 0.1289,0.078 0.2578,0.1601 0.414,0.2383 0.2618,0.1601 0.5469,0.3437 0.8086,0.5195 0.4141,0.2734 0.8047,0.6016 1.1953,0.9141 5.5938,4.4961 9.3399,12.8867 9.3399,22.6679 h 0.027 v 205.5391 h 6.4258 v -214.7383 c 0,-14.4414 -8.2734,-26.1523 -18.5508,-26.1523 h -71.9883 c -10.2773,0 -18.5781,11.7109 -18.5781,26.1523 v 214.7383 h 5.6992 v -205.5391"
       id="path1232"
       inkscape:connector-curvature="0" />
    <path
       style="fill:#dcd9de;fill-opacity:1;fill-rule:nonzero;stroke:none"
       d="m 4225.0469,2631.1914 c -0.3907,-0.3125 -0.8047,-0.6094 -1.1953,-0.8789 -0.2852,-0.1836 -0.5469,-0.3633 -0.8321,-0.5195 -0.1289,-0.094 -0.2851,-0.1719 -0.414,-0.2422 -0.2891,-0.1602 -0.5743,-0.3008 -0.8594,-0.4375 -0.2852,-0.1406 -0.5977,-0.2617 -0.8828,-0.3828 -1.6094,-0.6407 -3.3242,-0.9805 -5.0899,-0.9805 h -59.7265 c -1.7657,0 -3.4805,0.3398 -5.0899,0.9805 -0.3125,0.1211 -0.5976,0.2422 -0.8828,0.3828 -0.2851,0.1367 -0.5742,0.2773 -0.8594,0.4375 -0.1289,0.082 -0.2851,0.1601 -0.414,0.2422 -0.2852,0.1562 -0.5469,0.3359 -0.8321,0.5195 -0.3906,0.2695 -0.832,0.5664 -1.2187,0.8789 -5.5625,4.4883 -9.3555,12.9414 -9.3555,22.6406 v 205.5977 h 97.0039 V 2653.832 c 0,-9.6992 -3.7656,-18.1523 -9.3515,-22.6406"
       id="path1234"
       inkscape:connector-curvature="0" />
    <path
       style="fill:#f38517;fill-opacity:1;fill-rule:nonzero;stroke:none"
       d="m 4179.375,2723.2031 h -30.0352 c -0.9765,0 -1.7734,-0.7812 -1.7734,-1.75 v -25.1914 c 0,-0.9726 0.7969,-1.7578 1.7734,-1.7578 h 30.0352 c 0.9766,0 1.7695,0.7852 1.7695,1.7578 v 25.1914 c 0,0.9688 -0.7929,1.75 -1.7695,1.75"
       id="path1236"
       inkscape:connector-curvature="0" />
    <path
       style="fill:#f38517;fill-opacity:1;fill-rule:nonzero;stroke:none"
       d="m 4179.375,2763.7227 h -30.0352 c -0.9765,0 -1.7734,-0.7891 -1.7734,-1.75 v -25.1993 c 0,-0.9609 0.7969,-1.75 1.7734,-1.75 h 30.0352 c 0.9766,0 1.7695,0.7891 1.7695,1.75 v 25.1993 c 0,0.9609 -0.7929,1.75 -1.7695,1.75"
       id="path1238"
       inkscape:connector-curvature="0" />
    <path
       style="fill:#f38517;fill-opacity:1;fill-rule:nonzero;stroke:none"
       d="m 4223.2617,2723.2031 h -30.0664 c -0.9609,0 -1.7383,-0.7812 -1.7383,-1.75 v -25.1914 c 0,-0.9687 0.7774,-1.7578 1.7383,-1.7578 h 30.0664 c 0.9844,0 1.7617,0.7891 1.7617,1.7578 v 25.1914 c 0,0.9688 -0.7773,1.75 -1.7617,1.75"
       id="path1240"
       inkscape:connector-curvature="0" />
    <path
       style="fill:#f38517;fill-opacity:1;fill-rule:nonzero;stroke:none"
       d="m 4223.2617,2763.7227 h -30.0664 c -0.9609,0 -1.7383,-0.7891 -1.7383,-1.75 v -25.1993 c 0,-0.9609 0.7774,-1.7539 1.7383,-1.7539 h 30.0664 c 0.9844,0 1.7617,0.793 1.7617,1.7539 v 25.1993 c 0,0.9609 -0.7773,1.75 -1.7617,1.75"
       id="path1242"
       inkscape:connector-curvature="0" />
    <path
       style="fill:#f38517;fill-opacity:1;fill-rule:nonzero;stroke:none"
       d="m 4120.4687,2799.4805 h -30.0468 c -0.9844,0 -1.7696,-0.7891 -1.7696,-1.75 v -25.1914 c 0,-0.9688 0.7852,-1.7578 1.7696,-1.7578 h 30.0468 c 0.9844,0 1.7696,0.789 1.7696,1.7578 v 25.1914 c 0,0.9609 -0.7852,1.75 -1.7696,1.75"
       id="path1244"
       inkscape:connector-curvature="0" />
    <path
       style="fill:#f38517;fill-opacity:1;fill-rule:nonzero;stroke:none"
       d="m 4282.125,2799.4805 h -30.0664 c -0.9453,0 -1.7344,-0.793 -1.7344,-1.75 v -25.1914 c 0,-0.9727 0.7891,-1.7618 1.7344,-1.7618 h 30.0664 c 0.9727,0 1.7578,0.7891 1.7578,1.7618 v 25.1914 c 0,0.957 -0.7851,1.75 -1.7578,1.75"
       id="path1246"
       inkscape:connector-curvature="0" />
    <path
       style="fill:#f38517;fill-opacity:1;fill-rule:nonzero;stroke:none"
       d="m 4119.6797,2763.7188 h -30.0664 c -0.961,0 -1.7695,-0.793 -1.7695,-1.75 v -25.1993 c 0,-0.9609 0.8085,-1.75 1.7695,-1.75 h 30.0664 c 0.957,0 1.7422,0.7891 1.7422,1.75 v 25.1993 c 0,0.957 -0.7852,1.75 -1.7422,1.75"
       id="path1248"
       inkscape:connector-curvature="0" />
    <path
       style="fill:#f38517;fill-opacity:1;fill-rule:nonzero;stroke:none"
       d="m 4282.125,2763.7188 h -30.0664 c -0.9453,0 -1.7344,-0.793 -1.7344,-1.75 v -25.1993 c 0,-0.9609 0.7891,-1.75 1.7344,-1.75 h 30.0664 c 0.9727,0 1.7578,0.7891 1.7578,1.75 v 25.1993 c 0,0.957 -0.7851,1.75 -1.7578,1.75"
       id="path1250"
       inkscape:connector-curvature="0" />
    <path
       style="fill:#38454c;fill-opacity:1;fill-rule:nonzero;stroke:none"
       d="m 4225.5859,2862.0938 h -80.2422 c -0.957,0 -1.7617,-0.7813 -1.7617,-1.75 v -54.793 c 0,-4.6289 3.7852,-8.418 8.4258,-8.418 h 66.8867 c 4.6407,0 8.4297,3.7891 8.4297,8.418 v 54.793 c 0,0.9687 -0.7773,1.75 -1.7383,1.75"
       id="path1252"
       inkscape:connector-curvature="0" />
  </g>
</svg>
