<?xml version="1.0" encoding="UTF-8" standalone="no"?>
<svg
   xmlns:dc="http://purl.org/dc/elements/1.1/"
   xmlns:cc="http://creativecommons.org/ns#"
   xmlns:rdf="http://www.w3.org/1999/02/22-rdf-syntax-ns#"
   xmlns:svg="http://www.w3.org/2000/svg"
   xmlns="http://www.w3.org/2000/svg"
   xmlns:sodipodi="http://sodipodi.sourceforge.net/DTD/sodipodi-0.dtd"
   xmlns:inkscape="http://www.inkscape.org/namespaces/inkscape"
   width="304.53491pt"
   height="304.5491pt"
   viewBox="0 0 304.53491 304.5491"
   version="1.2"
   id="svg2633"
   sodipodi:docname="42.eps"
   inkscape:version="0.92.3 (2405546, 2018-03-11)">
  <metadata
     id="metadata2637">
    <rdf:RDF>
      <cc:Work
         rdf:about="">
        <dc:format>image/svg+xml</dc:format>
        <dc:type
           rdf:resource="http://purl.org/dc/dcmitype/StillImage" />
        <dc:title></dc:title>
      </cc:Work>
    </rdf:RDF>
  </metadata>
  <sodipodi:namedview
     pagecolor="#ffffff"
     bordercolor="#666666"
     borderopacity="1"
     objecttolerance="10"
     gridtolerance="10"
     guidetolerance="10"
     inkscape:pageopacity="0"
     inkscape:pageshadow="2"
     inkscape:window-width="1920"
     inkscape:window-height="1016"
     id="namedview2635"
     showgrid="false"
     inkscape:zoom="0.19"
     inkscape:cx="-1957.0769"
     inkscape:cy="-189.32974"
     inkscape:window-x="0"
     inkscape:window-y="0"
     inkscape:window-maximized="1"
     inkscape:current-layer="surface445" />
  <defs
     id="defs14">
    <clipPath
       id="clip1">
      <path
         d="m 4633,2664 h 1 v 1 h -1 z m 0,0"
         id="path2"
         inkscape:connector-curvature="0" />
    </clipPath>
    <clipPath
       id="clip2">
      <path
         d="m 4633.3906,2664.7109 h -0.1914 l 0.1211,-0.07 c 0.031,0.02 0.051,0.039 0.07,0.07"
         id="path5"
         inkscape:connector-curvature="0" />
    </clipPath>
    <clipPath
       id="clip3">
      <path
         d="m 2137,4078 h 114 v 5 h -114 z m 0,0"
         id="path8"
         inkscape:connector-curvature="0" />
    </clipPath>
    <clipPath
       id="clip4">
      <path
         d="m 2137.0391,4082.1289 c 1.5703,-1.7695 3.8007,-3.2187 7,-3.6289 l 106.2226,-0.039 -0.051,0.078 h -105.2617 c -3.0195,0 -5.8203,1.3593 -7.9101,3.5898"
         id="path11"
         inkscape:connector-curvature="0" />
    </clipPath>
  </defs>
  <g
     id="surface445"
     transform="translate(-1628.5969,-3064.6802)">
    <path
       style="fill:#a3e1f8;fill-opacity:1;fill-rule:nonzero;stroke:none"
       d="m 1887.4531,3217.8242 c 0,58.2266 -47.1992,105.4141 -105.414,105.4141 -58.2383,0 -105.4297,-47.1875 -105.4297,-105.4141 0,-58.2265 47.1914,-105.4297 105.4297,-105.4297 58.2148,0 105.414,47.2032 105.414,105.4297"
       id="path1380"
       inkscape:connector-curvature="0" />
    <path
       style="fill:#4cabe3;fill-opacity:1;fill-rule:nonzero;stroke:none"
       d="m 1850.9023,3292.7109 c -7.8593,7.2657 -16.8359,13.3243 -26.6562,17.8711 -1.4727,0.6875 -2.9688,1.3399 -4.4766,1.9453 -12.0039,4.9063 -25.1367,7.6016 -38.8984,7.6016 -13.0273,0 -25.4805,-2.4219 -36.9648,-6.8281 -1.5196,-0.582 -3.0274,-1.211 -4.5235,-1.8516 -9.7695,-4.3008 -18.7461,-10.0703 -26.6445,-17.0273 -21.4922,-18.9024 -35.0391,-46.6055 -35.0391,-77.4649 0,-56.9843 46.1875,-103.1836 103.1719,-103.1836 56.9727,0 103.1719,46.1993 103.1719,103.1836 0,29.9453 -12.75,56.9219 -33.1407,75.7539 z m 81.2188,-100 c -0.1289,-5.0468 -5.5352,-7.6015 -10.5781,-7.4804 l -22.7266,0.582 c -3.4453,-14.2383 -8.7891,-25.0664 -15.7578,-35.6719 l 0.059,-0.4258 15.6484,-16.6484 c 3.4805,-3.6562 3.3282,-9.5469 -0.3437,-13.0234 l -28.6524,-27.2657 c -3.6679,-3.4765 -9.4492,-3.3593 -12.9297,0.3204 l -15.3867,16.457 c -11.3164,-6.5039 -21.207,-11.1016 -35.5976,-13.6172 v -0.1055 l -0.5821,-22.7148 c -0.1328,-5.0469 -4.8593,-8.5625 -9.9023,-8.4336 l -39.5195,1.0117 c -5.0469,0.1289 -6.8399,3.7969 -6.7071,8.8438 l 0.5821,22.7265 c -14.2266,3.4453 -25.4688,8.8125 -36.086,15.7813 l -0.6289,-0.059 -16.7422,-15.6485 c -3.6679,-3.4804 -9.5937,-3.3281 -13.0742,0.3321 l -27.2969,28.664 c -3.4804,3.6563 -3.3593,9.4493 0.2969,12.9297 l 16.4688,16.2539 c -6.4844,11.3164 -11.0782,21.4805 -13.5938,36.4766 h -0.1094 l -22.7148,0.5703 c -5.0586,0.1328 -7.7773,3.1133 -7.6445,8.1563 l 1.0078,39.5078 c 0.1328,5.0547 3.0273,8.5703 8.0742,8.4414 l 22.7266,-0.5821 c 3.4453,14.2461 8.7734,24.625 15.7461,35.2305 l -0.07,0.1875 -15.6523,16.543 c -3.4766,3.6797 -3.3242,9.4961 0.332,12.9765 l 28.6641,27.2266 c 3.6562,3.4805 9.4414,3.3477 12.9297,-0.3203 l 10.3789,-10.2695 6.2695,-6.2227 c 6.625,3.8008 13.1914,6.9336 20.375,9.3789 1.4492,0.5 3.0156,0.961 4.5235,1.4024 l 0.062,0.035 c 3.7617,1.0938 8.0351,2.0078 12.039,2.7539 v 0.1094 l 0.2149,11.207 0.2734,11.5196 c 0.1406,5.0312 2.3125,9.5078 7.3828,9.3789 l 39.4922,-1.0078 c 5.0586,-0.1329 9.3594,-4.7618 9.2266,-9.8204 l -0.2618,-10.0703 -0.332,-12.6445 c 2.7305,-0.6523 5.3086,-1.4023 7.7656,-2.1836 1.5313,-0.5117 3.0274,-1.0352 4.4766,-1.582 8.2891,-3.168 15.2812,-7.1836 22.5859,-11.9805 l -0.012,0.07 4.082,3.8828 12.3516,11.7696 c 3.668,3.4882 9.4258,3.3359 12.918,-0.3204 l 27.2031,-28.6523 c 3.4766,-3.668 3.3359,-9.4648 -0.3437,-12.9414 l -16.4688,-15.7578 c 6.4922,-11.3281 10.9922,-23.9961 13.5938,-35.9922 h 0.094 l 22.7266,-0.6172 c 5.0468,-0.1289 10.2968,-4.082 10.1523,-9.1289 l -1.0078,-39.5391"
       id="path1382"
       inkscape:connector-curvature="0" />
    <path
       style="fill:#2b3a54;fill-opacity:1;fill-rule:nonzero;stroke:none"
       d="m 1813.0742,3167.7617 c 0,17.2656 -13.9804,31.2578 -31.2422,31.2578 -17.2656,0 -31.2461,-13.9922 -31.2461,-31.2578 0,-17.25 13.9805,-31.2422 31.2461,-31.2422 17.2618,0 31.2422,13.9922 31.2422,31.2422"
       id="path1384"
       inkscape:connector-curvature="0" />
    <path
       style="fill:#2b3a54;fill-opacity:1;fill-rule:nonzero;stroke:none"
       d="M 1850.9961,3237.9219 C 1845,3202.3555 1813,3203.5352 1813,3203.5352 V 3204 h -62.0039 v -0.4648 c 0,0 -32,-1.1797 -37.9961,34.3867 v 56.5156 c 7.9961,6.9609 17,12.7188 25.9922,17.0117 v -61.4453 H 1744 v 63.3086 c 10.9922,4.4063 24.0078,6.8242 37.0195,6.8242 13.7774,0 26.9727,-2.6914 38.9727,-7.5976 v -62.5352 h 4 v 60.5938 c 10.0039,-4.5547 19.0078,-10.6172 27.0039,-17.875 v -54.8008"
       id="path1386"
       inkscape:connector-curvature="0" />
    <path
       style="fill:#ca232b;fill-opacity:1;fill-rule:nonzero;stroke:none"
       d="m 1785.8594,3231.0039 h -8.4805 l -4.7461,63.7031 8.9961,8.8789 8.9766,-8.8671 -4.7461,-63.7149"
       id="path1388"
       inkscape:connector-curvature="0" />
    <path
       style="fill:#ca232b;fill-opacity:1;fill-rule:nonzero;stroke:none"
       d="m 1781.625,3212.293 -7.3633,5.5547 2.8633,9.1523 h 8.9883 l 2.875,-9.1523 -7.3633,-5.5547"
       id="path1390"
       inkscape:connector-curvature="0" />
  </g>
</svg>
