<?xml version="1.0" encoding="UTF-8" standalone="no"?>
<svg
   xmlns:dc="http://purl.org/dc/elements/1.1/"
   xmlns:cc="http://creativecommons.org/ns#"
   xmlns:rdf="http://www.w3.org/1999/02/22-rdf-syntax-ns#"
   xmlns:svg="http://www.w3.org/2000/svg"
   xmlns="http://www.w3.org/2000/svg"
   xmlns:sodipodi="http://sodipodi.sourceforge.net/DTD/sodipodi-0.dtd"
   xmlns:inkscape="http://www.inkscape.org/namespaces/inkscape"
   width="265.35489pt"
   height="265.34717pt"
   viewBox="0 0 265.35489 265.34717"
   version="1.2"
   id="svg2633"
   sodipodi:docname="42.eps"
   inkscape:version="0.92.3 (2405546, 2018-03-11)">
  <metadata
     id="metadata2637">
    <rdf:RDF>
      <cc:Work
         rdf:about="">
        <dc:format>image/svg+xml</dc:format>
        <dc:type
           rdf:resource="http://purl.org/dc/dcmitype/StillImage" />
        <dc:title></dc:title>
      </cc:Work>
    </rdf:RDF>
  </metadata>
  <sodipodi:namedview
     pagecolor="#ffffff"
     bordercolor="#666666"
     borderopacity="1"
     objecttolerance="10"
     gridtolerance="10"
     guidetolerance="10"
     inkscape:pageopacity="0"
     inkscape:pageshadow="2"
     inkscape:window-width="1920"
     inkscape:window-height="1016"
     id="namedview2635"
     showgrid="false"
     inkscape:zoom="0.19"
     inkscape:cx="-2155.4515"
     inkscape:cy="-349.99841"
     inkscape:window-x="0"
     inkscape:window-y="0"
     inkscape:window-maximized="1"
     inkscape:current-layer="surface445" />
  <defs
     id="defs14">
    <clipPath
       id="clip1">
      <path
         d="m 4633,2664 h 1 v 1 h -1 z m 0,0"
         id="path2"
         inkscape:connector-curvature="0" />
    </clipPath>
    <clipPath
       id="clip2">
      <path
         d="m 4633.3906,2664.7109 h -0.1914 l 0.1211,-0.07 c 0.031,0.02 0.051,0.039 0.07,0.07"
         id="path5"
         inkscape:connector-curvature="0" />
    </clipPath>
    <clipPath
       id="clip3">
      <path
         d="m 2137,4078 h 114 v 5 h -114 z m 0,0"
         id="path8"
         inkscape:connector-curvature="0" />
    </clipPath>
    <clipPath
       id="clip4">
      <path
         d="m 2137.0391,4082.1289 c 1.5703,-1.7695 3.8007,-3.2187 7,-3.6289 l 106.2226,-0.039 -0.051,0.078 h -105.2617 c -3.0195,0 -5.8203,1.3593 -7.9101,3.5898"
         id="path11"
         inkscape:connector-curvature="0" />
    </clipPath>
  </defs>
  <g
     id="surface445"
     transform="translate(-3088.5339,-3083.1838)">
    <path
       style="fill:#61c5bd;fill-opacity:1;fill-rule:nonzero;stroke:none"
       d="m 3319.4102,3304.9531 c -49.1641,54.2696 -133.0079,58.418 -187.2969,9.2578 -54.2695,-49.1679 -58.4219,-133.0273 -9.2578,-187.3086 49.164,-54.2695 133.0273,-58.4179 187.2968,-9.25 54.2891,49.1602 58.4219,133.0196 9.2579,187.3008"
       id="path1462"
       inkscape:connector-curvature="0" />
    <path
       style="fill:#2b3038;fill-opacity:1;fill-rule:nonzero;stroke:none"
       d="m 3180.5977,3261.7695 c 0.2187,-1.1718 1.5351,-6.1992 0.5781,-6.9414 -1.8164,-1.3906 -2.6133,-2.8789 -5.7813,-2.789 -2.3125,0.07 -4.2265,0.289 -6.5781,0.012 2.0938,-4.1719 1.3359,-7.6641 3.8281,-11.711 1.9727,-3.2109 -6.1797,-1.7617 -7.2343,-1.4414 -1.8555,0.5508 -1.418,1.4297 -1.6954,3.1407 -0.1992,1.1797 -1.8945,2.4804 -1.6953,3.457 -0.8164,-0.1875 -1.7539,-0.098 -2.6914,0 -1.3554,0.1328 -2.6875,0.2617 -3.6054,-0.457 -1.5938,-1.2618 -2.7305,0.6601 -3.8477,-1.4219 -0.6992,-1.2774 -0.5977,-3.3281 -1.375,-4.5508 -1.7148,-2.707 -2.3906,-8.1797 -0.5586,-10.8984 1.6133,-2.3907 -1.0547,-4.8594 1.4961,-6.8282 1.1367,-0.8828 2.4492,-4.3007 2.4492,-6.121 2.1563,-0.1602 6.1992,2.1796 8.0742,2.3085 0.5196,1.2227 3.3868,2.5313 3.6094,0.6329 0.6563,0.539 1.293,1.5586 2.332,0.8359 -0.082,-0.668 -0.4218,-1.0898 -1.0781,-1.2695 0.3594,-0.5977 0.4375,-1.2266 0.2188,-1.9063 1.375,-0.793 2.7109,0.3672 3.6093,0.418 1.0352,-0.5 1.9336,-0.3008 2.8086,-0.1016 0.7188,0.1719 2.4336,-0.9179 3.0899,-1.1679 -0.2383,1.6484 0.5976,2.8085 1.5351,2.121 1.6329,-1.2109 1.9727,0.5899 3.1485,1.7305 1.7148,1.6289 -0.4766,5.2578 2.7695,7.1289 -0.2187,1.4063 1.9141,5.211 2.6524,5.1094 5.7812,-0.7227 -1.9532,-13.7305 -0.9766,-17.1914 0.6562,-2.3399 1.5937,-3.4102 3.5664,-4.4766 1.7148,-0.9531 -0.1367,-4.875 1.5977,-5.4531 1.8125,-0.6094 4.5429,0.3203 6.2578,-0.3672 0.9765,-0.3906 1.5937,-0.9805 0.4179,-1.5937 0.3203,-0.3594 2.4727,-1.7383 2.5508,-1.7071 -0.098,-1.332 -2.1328,-3.5507 -1.9336,-4.4414 0.2383,0.1211 0.9375,-0.4101 0.8789,-0.1289 0.2774,0.7696 1.711,-1.9922 1.8125,-2.1601 1.0157,-1.7618 -1.6133,-2.8008 -1.1758,-4.2618 0.836,0.1915 3.25,0.9727 3.8047,-0.3398 0.5196,-1.2617 -1.0351,-7.8281 -1.7539,-7.75 2.1953,-2.4883 7.7149,4.332 9.7696,2.3203 1.6914,0.1406 2.5312,0.3203 2.5312,-1.4883 -0.6992,-0.7695 -1.8359,-0.012 -2.332,-1.0507 0.2969,-1.8985 1.6914,-2.6719 3.6054,-3.3321 0.7774,-0.2969 0.8594,-1.4765 1.2383,-2.1992 1.1563,-0.09 1.9532,-0.8203 3.0274,-1.2383 2.9492,-1.1601 0.8984,-0.8515 1.8554,-1.3125 0.1368,-0.039 4.9219,-0.4179 4.6641,-0.8594 0.3984,0.8516 -3.4297,1.961 -3.1719,3.711 0.3985,2.6523 3.4688,-0.6797 5.086,-1.0391 1.4531,-2.9922 5.1406,-1.4101 8.25,-2.0625 0.2773,-0.8906 -0.8164,-0.4492 -0.6368,-1.2695 1.375,0.3125 2.629,-0.3672 3.1094,-1.0391 0.4571,-0.6289 0.2188,-1.2578 -1.1953,-1.0781 0.019,-0.7031 -1.4375,-6.5625 -3.5312,-3.9609 -1.0547,1.3203 0.7773,3.9804 0.7578,5.4492 -0.875,-0.2891 -1.8125,-0.2422 -2.7305,-0.1914 -0.6562,0.031 -1.293,0.07 -1.9336,-0.01 -0.5976,-0.9727 -0.9766,-0.8907 -1.9922,-1.2891 -0.7969,-0.332 -1.6328,-2.6211 -2.0312,-2.5117 0.4179,-0.5977 0.7773,-1.2383 1.0547,-1.9219 -0.1602,-0.1484 -2.5508,-0.5508 -3.2305,-0.6094 1.5351,0.051 5.9609,-0.9179 3.7695,-2.8984 -1.5937,-1.4297 -3.9687,0.1992 -5.7422,0.7891 -1.6914,0.5625 -3.3867,1.4804 -4.8632,2.539 -0.4571,0.3321 -2.3907,0.1524 -3.2891,0.4336 0,-1.1406 3.1523,-3.2734 4.0664,-3.7617 1.5156,-0.8398 2.5508,-0.2109 3.5508,-1.9805 0.2578,-1.3593 1.0351,-1.9179 2.3711,-1.6718 1.7148,-0.09 4.3828,-1.1094 6.2773,-0.9883 3.2891,0.2187 5.8594,1.5703 8.7305,0.7109 1.3945,-0.4219 2.2539,-1.7305 3.168,-2.7617 1.2773,-0.02 2.5312,-0.09 3.8085,-0.2188 1.7735,-0.1211 3.168,-1.6679 2.629,-2.9726 -0.4961,-1.25 0.1796,-5.3203 -3.0665,-3.5977 -0.5585,-0.1211 -0.3789,-2.0508 -2.5546,-1.6914 0.6211,-0.2695 1.1992,-0.6289 1.6953,-1.0586 -0.6367,-1.2109 -6.3164,-1.6601 -7.6524,-1.0781 -0.2812,-0.7617 0.7383,-2.1719 -0.8164,-3.3711 -0.7773,-0.5898 -3.2304,-0.5625 -2.9922,-2.1016 1.4375,1.4297 3.2891,-0.9179 0.2188,-1.8984 -0.1172,-0.6328 2.1758,-0.1992 -0.1172,-1.5898 -0.5195,-0.3203 -2.2344,-1.4024 -1.9141,-2 0.6758,-1.2305 -4.4453,-5.9102 -5.8007,-0.7891 -0.1993,0.7188 -5.8985,2.7383 -6.3594,1.7773 -0.7149,-1.5312 -1.0938,-0.7109 -1.8321,-0.4687 -0.539,0.168 -1.3359,-0.2422 -2.2109,-0.6992 -0.2617,-0.8633 1.4336,-0.5625 0.9531,-2.7696 -0.4375,-2.0742 -0.6367,-1.3125 0.3594,-2.8515 0.8399,-1.2891 -5.7383,-0.2383 -5.1406,-2.4219 -1.6953,-0.957 -3.4102,-2.6992 -5.4024,-1.9687 -1.6523,0.6015 -2.9101,1.832 -4.664,1.3593 -1.2539,-0.3476 -2.9102,-1.9062 -3.9649,-0.75 -0.8203,0.8711 -0.8789,2.0196 0.4766,2.4532 -0.6367,0.7265 -1.1953,1.5078 -1.6953,2.3281 0.4609,0.2695 0.957,0.3398 1.4765,0.2109 -0.1601,0.6992 0,1.3399 0.4375,1.9063 -0.3164,0.4922 -0.4179,1.4414 -0.957,1.6523 -0.418,2 -3.289,1.918 -0.4375,3.4297 2.1328,1.1406 5.7422,3.5898 4.4453,6.2305 -0.9375,1.9414 -6.8984,3.3281 -9.1679,3.7383 -0.2383,2.0117 1.0742,1.9609 1.1132,3.9023 0.023,1.0586 0.6602,2.2695 0.6016,3.3086 -0.1602,2.4297 -1.1367,1.3008 -2.293,2.4297 -1.2968,1.2734 -2.1523,-1.1485 -3.3086,-1.6875 -1.7734,-0.8438 -2.1718,-2.1016 -1.9726,-3.793 0.1797,-1.6601 0.6758,-4.5156 -1.1563,-4.8867 -3.2695,-0.6524 -7.2773,0.4375 -10.1679,-1.6524 -1.4336,-1.0312 -2.4297,-2.9101 -4.4219,-3.2695 -1.0195,-0.1797 -2.3516,1 -3.1719,1.2695 -0.6758,0.2305 -1.7148,-0.2382 -2.1328,0.4219 0.5977,-0.9492 -0.2773,-4.7734 -2.4102,-4.6836 -2.0742,0.094 -2.4335,-2.5859 -1.9531,-3.5664 0.5781,-1.1914 4.3828,-2.4531 4.543,-3.6094 0.062,-0.4335 4.0273,-3.4921 2.75,-3.4023 3.9297,-1.3711 3.1523,-1.418 -0.4375,-2.3281 0.3984,-0.3789 1.4766,-1.1328 2.5703,-1.0625 1.7734,0.1133 3.6094,1.039 2.7109,-0.8594 2.5313,0.8281 5.3243,-1.0195 6.1407,-3.3984 -0.5782,-0.211 -5.8594,-0.25 -5.5,-1.2618 2.1328,0.7188 4.3047,1.3907 6.2187,-0.039 1.6133,-1.1992 2.7305,-1.6406 0.7539,-2.3086 1.8555,-0.5 3.9688,-0.6211 5.9414,-0.4414 -0.3398,-0.8516 -0.9765,-1.2695 -1.914,-1.2617 0.9375,-0.8282 1.875,0.2617 2.7109,0.3711 1.6563,0.2187 2.8125,-0.3907 3.8477,-1.5391 2.3906,-2.6992 -2.8516,-1.5313 -1.9727,-3.8516 0.2578,-0.2695 1.3555,-0.2109 1.7734,-0.059 0.5782,0.1993 1.1563,0.3985 1.3164,-0.6093 0.2188,-1.4922 -1.1953,-1.0899 -2.375,-1.3907 -1.9726,-0.4921 -8.1914,1.2383 -4.2421,1.9883 -0.5782,0.4219 -1.2188,0.7031 -1.9141,0.8516 -0.4375,0.9375 -1.0156,1.7812 -1.7539,2.5312 -1.418,1.5 -2.6914,1.961 -3.9688,0.027 0.2188,-0.3711 2.8125,-3.7774 -0.3164,-2.668 -1.2382,0.4375 -1.9726,1.7813 -3.0703,2.4609 0.5586,-0.8125 -0.6797,-1.8593 0.418,-2.332 -0.5195,-0.5312 -1.2539,-0.289 -1.9727,-0.051 -0.4179,0.1524 -0.8554,0.3008 -1.1953,0.2696 -0.1211,-1.2188 1.3555,-0.6485 1.6914,-1.4883 -0.7343,-1.0781 -2.0312,-0.2617 -1.7304,-1.7188 0.2968,-1.5 -2.8321,-0.3711 -3.2891,-0.1836 -1.4375,0.6016 -2.293,2.0508 -3.668,2.9844 0.2383,0.2188 0.5157,0.2891 0.8555,0.207 -0.1406,0.5899 -1.9727,1.6211 0.039,1.7696 0.7773,0.07 1.5781,-0.09 2.3945,-0.2383 0.6562,-0.1328 1.3359,-0.2617 2.0117,-0.2617 -0.02,0.3906 -2.8281,1.3789 -2.9687,1.4804 0.059,0.6133 0.5156,0.461 0.9765,0.3204 0.2774,-0.09 0.5391,-0.1797 0.7188,-0.1094 -0.6211,1.1914 -2.6328,1.6211 -3.5508,2.2695 -1.5547,1.082 -0.1172,1.0703 -0.8945,2.1914 -1.7344,0.2188 -0.6407,-1.1992 -0.4219,-1.9023 -1.0938,-0.3477 -4.2852,-0.2696 -4.0235,1.4922 -1.1757,0.5586 -6.1992,2.9804 -7.3945,2.3398 -2.6523,-1.4101 -6.082,2.2891 -7.6562,4.1406 l 0.019,-0.09 c -3.4648,-0.1406 -5.2617,2.8789 -8.4688,3.4101 0.6368,-0.582 1.254,-1.1406 1.9141,-1.7031 -1.2969,-0.9492 -6.9375,3.9102 -7.8359,4.9024 -4.0039,4.4414 -1.2539,-0.7891 -5.5,-1.2618 -0.5782,0.5313 0.8789,0.9727 0.6367,1.6915 -0.7149,0.01 -2.75,1.0117 -3.3867,1.2773 -0.7969,0.332 -2.6328,0.8008 -3.7266,1.6133 -0.3203,0.3711 -0.5976,0.707 -0.8984,1.0898 l -0.1602,0.1992 c -5.6406,7.1485 -10.4609,14.668 -14.4297,22.5508 1.7539,0.031 3.6094,0.078 4.0274,0.4375 -0.7188,2.0313 4.5429,1.4336 4.4258,2.6797 0.5351,-0.2383 -0.3399,2.4609 -0.3008,2.3906 -0.3399,0.9727 -0.5977,1.9493 -0.7383,2.7618 1.0781,-0.4024 0.2617,-2.0899 1.2773,-2.543 0.098,0.3906 -0.1211,3.582 -0.1797,3.7031 0.2774,1.6016 -1.2773,6.0899 -0.7578,6.7891 0.3789,0.5 2.0118,2.5 1.6133,3.0703 -0.6758,0.9101 -0.1172,4.1797 -0.3594,5.4297 -0.3164,1.789 -0.7539,3.5586 -0.8945,5.3711 -0.5,2.7695 -1.0976,5.8593 -0.7187,8.6797 0.5,3.5195 1.6953,6.6875 2.6523,10.1406 0.6758,2.3867 1.8711,0.8711 2.7891,2.8984 1.1172,2.4102 1.7734,5.7617 2.9687,8.3594 0.4805,1 3.7891,5.5508 1.0781,5.082 -0.1796,2.8281 3.9649,2.9102 4.2657,5.5 0.3398,3.0274 2.7695,3.9297 3.6054,6.7696 2.3321,0.09 -0.2187,-3.2305 -0.2187,-3.8086 -1.3945,-0.082 -2.1328,-3.8907 -2.3516,-5.5118 -1.3554,-0.582 -2.0312,-3.5117 -2.7304,-4.7421 -1.254,-2.1875 -2.3711,-4.0586 -2.1719,-6.6875 2.7695,0.7382 3.4101,3.2968 4.3437,6.039 0.4414,1.2188 1.1367,3.4102 1.836,4.1211 1.6328,1.25 1.6953,2.1211 1.914,3.8086 3.0899,1.7422 5.0821,6.5313 6.5547,9.5508 0.8594,1.7617 -0.457,2.8398 0.5586,4.5 0.957,1.5273 2.8125,2.2187 3.5274,3.9297 3.1093,0.9218 6.0195,3.1015 8.7304,4.6211 1.5742,0.8906 3.0313,1.9609 4.8438,2.3398 1.4375,0.3008 2.4726,-0.9687 3.8476,-0.9805 2.6914,-0.031 5.1641,4.3985 7.1758,5.8321 0.918,0.01 8.0117,3 8.0703,1.8867 0.3399,0.031 3.6289,5.1719 4.6641,5.7109 0.3008,1.1992 -0.875,1.3789 0.5586,2.4219 -0.1797,-0.1328 0.2422,0.1992 0.7187,0.4805 1.4141,-0.6211 2.9102,-1.1524 4.3867,-1.7813 -0.8203,-1.1094 -1.3984,-2.3203 -1.1171,-3.6797"
       id="path1464"
       inkscape:connector-curvature="0" />
    <path
       style="fill:#2b3038;fill-opacity:1;fill-rule:nonzero;stroke:none"
       d="m 3282.3789,3306.1563 c -0.6641,-2.4102 -4.7109,-0.1993 -6.3437,-1.3321 -1.3907,-0.9687 -2.9219,-2.7383 -4.793,-2.5781 -2.3399,0.1914 -3.9883,-0.3711 -6.3047,-0.8125 -1.6328,-0.3086 -2.1992,1.6836 -3.6094,1.6719 0.3242,-2.1992 -2.0742,-3.0196 -4.6718,-2.5899 -0.8477,-1.1797 -2.5196,-0.9883 -3.9688,-0.1406 0.2031,-0.3906 0.3008,-0.8281 0.3828,-1.2773 -1.168,-0.9727 -2.3359,0.1289 -3.664,0 -1.1719,1.0468 -2.2969,2.2304 -4.3946,2.3476 0.8672,-2.4805 3.4844,-3.1211 4.7969,-5.2109 0.6641,-1.0781 -1.7344,-2.3399 -2.0977,-3.2969 -1.1679,-3.2031 -0.9257,-2.7734 -3.6445,-4.6406 -1.7344,-1.2031 -4.1289,-1.9805 -6.3672,-2.1406 -1.9531,-0.1524 -2.1328,0.7578 -3.9687,0.09 -1.1446,-0.4297 -3.6446,-1.2617 -5.2969,-1.0898 0.6875,-3.7305 -3.7266,-4.5 -5.9219,-4.211 0.4649,-0.6601 1.0274,-1.2187 1.6914,-1.6992 -0.4609,-0.5391 -1.0078,-0.8906 -1.7109,-1.0508 0.9883,-0.2109 0.543,-1.918 0.8476,-2.5508 -1.8164,-0.2812 -2.7226,2.5899 -3.8085,1.2813 0.3203,-0.4219 1.371,-0.019 1.2695,-0.8516 -1.5938,-0.9609 -4.5742,-0.4492 -6.0039,0.5508 -1.9531,1.3711 -3.7266,-1.0781 -5.7813,-0.8477 -1.6914,0.1797 -2.3789,0.5977 -3.2422,-0.8398 -0.6445,-1.0625 -1.8359,-1.2891 -2.9804,-1.1406 -0.5664,-0.4414 -0.7266,-2.5 -1.8555,-1.7422 -0.6641,0.4414 -0.7461,1.4922 0.3633,1.5312 -0.9063,0.8516 -2.5781,0.4297 -3.3828,1.2813 -0.4063,-0.062 -1.0078,-1.3906 -0.1836,-1.6016 3.4258,-0.8711 -1.1875,-1.8789 -1.8711,-3.0195 -0.4844,-0.8281 -1.1485,-1.3711 -1.9141,-1.7109 -2.6992,-1.1797 -6.6679,0.1484 -9.1875,0.4296 -0.7851,-1.0976 -2.0937,-2.2382 -3.0429,-3.5195 -1.4883,0.6328 -2.961,1.1602 -4.3907,1.7813 0.625,0.3593 1.3321,0.6484 1.0703,-0.1524 0.8047,1.8789 2.5547,0.5508 2.5547,2.961 0.3047,0.7421 2.2969,1.082 2.7617,1.0507 0.4844,-0.031 0.9454,0.062 1.3907,0.2188 0.7656,0.2812 1.4492,0.7891 2.1562,1.3086 1.1055,0.832 1.0469,0.6133 2.7969,0.5703 -0.1992,-0.7383 -0.4609,-1.4375 -0.8438,-2.1055 1.8125,0 1.8125,-1.0625 3.8047,-0.6523 -0.078,0.789 1.2696,2.6289 0.8672,3.1797 -1.7109,0.4609 -3.6875,-0.09 -4.8945,1.332 -0.5234,0.6094 -0.5039,2.8789 -1.2891,2.9688 -1.0273,0.1289 -1.9726,1.1992 -2.0742,2.289 -0.3047,-0.4492 -0.7266,-0.7305 -1.2695,-0.8515 -0.7656,0.6015 1.1094,1.1523 0.4219,1.6914 -0.5821,0.1523 -1.0079,0.5 -1.2696,1.0703 -0.098,1.1718 1.3906,2.1875 1.4922,3.3789 0.1406,1.3008 0.7266,4.3437 0.1797,5.3398 -0.2813,0.5117 -3.2031,2.1992 -2.2734,2.3008 -1.4102,0.1016 -0.3438,1.5508 -1.9336,1.6289 -1.1289,-0.2578 -1.5118,0.2305 -1.1289,1.4922 -0.2032,0.9609 -2.8594,4.5898 -0.7266,5.3594 0.1406,0.051 1.9531,0.2617 2.1172,0.07 0,1.9023 -2.1758,1.5898 -2.961,2.8984 -0.1445,1.2813 2.5782,2.75 0.6446,2.75 0.5234,1.0313 1.8125,1.2617 2.7578,1.6914 0.5625,0.9805 1.25,1.8907 2.0156,2.7188 1.5117,1.6992 3.1406,3.332 3.9258,5.5312 2.1953,1.5821 2.8828,4.1719 4.7539,5.7617 1.6953,1.4297 3.7266,2.3868 5.7617,3.1875 2.2969,0.9024 4.1719,1.8399 6.2656,3.0938 0.3633,1.0391 1.5118,4.5781 0.6446,5.5078 -0.3008,0.3399 -0.543,6.9609 -0.1797,6.9883 -0.2227,1.5625 -1.6719,-0.8281 -0.3242,1.7031 0.3242,0.3477 0.4023,0.6992 0.2617,1.0586 -0.02,0.1406 -1.207,2.2695 -2.2774,1.6914 0.1641,0.4258 0.4258,0.7383 0.8086,0.918 9.5274,1.289 19.1563,1.539 28.7032,0.7695 -0.7657,-0.3398 -0.8438,-1.0703 -2.1758,-0.8984 3.4883,-0.6016 6.4883,1.1484 9.7695,-0.543 0.7461,-0.3867 1.9141,-1.8086 2.8633,-2.3672 l -0.1211,0.1172 c 1.8945,0.094 6.3242,-3.4101 6.4648,-4.957 0.3829,-3.8711 6.1641,-4.3828 7.875,-7.0508 4.0899,-0.5117 6.0665,0.8984 8.8672,-1.5508 2.293,-2.0078 2.9375,-4.0781 4.4493,-6.25 0.9882,-1.418 -1.5704,-4.7305 -0.7032,-6.3594 1.9141,-0.5195 4.9727,-0.8398 5.8008,-2.5078 3.625,-1.6797 8.3594,-5.3711 7.25,-9.4218"
       id="path1466"
       inkscape:connector-curvature="0" />
    <path
       style="fill:#2b3038;fill-opacity:1;fill-rule:nonzero;stroke:none"
       d="m 3129.3281,3124.1523 c 1.9766,0.2383 1.8399,1.0665 3.1563,2.3399 0.2539,-0.5234 4.8242,-5.6797 5.289,-5.1016 -0.4257,0.2813 -0.7734,0.6289 -1.0468,1.0586 0.2148,-0.1172 0.4257,-0.1289 0.6406,0 -0.6602,0.4297 -1.1641,0.9922 -1.4922,1.7031 1.3555,0.02 3.5469,-0.9609 4.3203,-1.332 1.9375,-0.957 3.7578,-2.1797 5.4063,-3.5703 1.375,0.2305 2.7304,-1.7187 4.4336,-1.8398 1.9179,-0.1407 4.1289,-1.0196 5.3086,-2.6289 -0.7149,-0.7422 -1.6641,0.9179 -2.1133,0.4296 0.9492,-0.9023 4.4375,-1.1523 4.0117,-2.5507 -1.4531,-0.4805 -2.8672,0.8515 -4.2422,0.012 0.9688,-0.8203 0.5039,-1.7305 0.4258,-2.7617 -2.6328,-0.1875 -3.2149,1.8203 -4.2227,3.6132 -0.7734,0.01 -0.098,-1.0625 -0.4258,-1.0625 -1.4335,0.211 -2.0742,1.5196 -3.1757,2.3399 0.016,0.1875 -5.0391,2.4492 -6.6094,2.2617 -1.9375,-0.2227 -2.0703,-1.3008 -4.1445,-1.0703 -0.3477,0.027 -0.6758,0.07 -1.0274,0.1094 -0.8906,0.789 -1.7617,1.5781 -2.6328,2.3906 0.019,0.2383 -0.098,0.5469 -0.3477,0.9805 -1.1054,1.7187 -1.1835,0.9765 -1.3203,3 -0.2109,0.707 -2.3047,1.4296 -0.1914,1.6796"
       id="path1468"
       inkscape:connector-curvature="0" />
    <path
       style="fill:#2b3038;fill-opacity:1;fill-rule:nonzero;stroke:none"
       d="m 3123.0977,3126.6328 c -0.4414,0.4805 -0.9961,1.0899 -1.4571,1.6406 1.1133,-0.4687 2.2617,-0.8789 2.6446,-1.2734 -0.1914,-0.3164 -0.6329,-0.418 -1.1875,-0.3672"
       id="path1470"
       inkscape:connector-curvature="0" />
    <path
       style="fill:#2b3038;fill-opacity:1;fill-rule:nonzero;stroke:none"
       d="m 3347.0586,3178.9414 c 0.082,-1.4922 -0.1875,-2.6523 -0.6563,-3.6016 -0.6367,1.0821 -0.2695,2.9297 0.6563,3.6016"
       id="path1472"
       inkscape:connector-curvature="0" />
    <path
       style="fill:#2b3038;fill-opacity:1;fill-rule:nonzero;stroke:none"
       d="m 3325.1523,3142.125 c -0.2656,-0.3164 -0.062,-1.6562 0.4102,-1.0586 -1.5781,1.6524 3.8047,4.2617 3.6211,6.3399 -0.4922,-0.2579 -0.9844,-0.2579 -1.4727,0.012 0.2657,0.5703 0.5508,1.1406 0.836,1.6875 -0.3242,0.1211 -0.6758,0.2031 -1.043,0.2226 0.125,1.7578 2.25,1.4571 2.9688,2.7383 -0.5313,-0.1289 -1.0235,-0.3476 -1.4961,-0.6289 -1.043,3.9102 -1.2461,0.9102 1.6992,2.957 -0.062,-0.3164 0,-0.6093 0.2265,-0.8359 1.5743,0.5977 2.4961,1.3867 4.461,1.6797 0.1211,-0.2305 -0.1445,-2.5703 -0.2266,-2.9688 -0.6953,-1.7109 -2.5976,-3.6718 -3.664,-5.2812 -1.1836,-1.7735 -2.5977,-3.4414 -3.7852,-5.082 -0.2461,-3.2383 -1.4297,-2.0782 -2.7617,-4.4375 0.4297,-0.031 0.7148,-0.2422 0.8398,-0.6407 -0.8789,-0.6015 -1.8008,-1.1601 -2.7422,-1.6914 0,0.5391 0.1211,1.0313 0.4297,1.4805 -0.164,-0.051 -0.3086,-0.1211 -0.4297,-0.2109 0.1016,1.0507 1.0039,5.5 2.1289,5.7187"
       id="path1474"
       inkscape:connector-curvature="0" />
    <path
       style="fill:#2b3038;fill-opacity:1;fill-rule:nonzero;stroke:none"
       d="m 3352.668,3197.8242 c -0.7422,-1.4922 -1.586,-2.75 -2.2852,-2.8789 -1.625,-0.3086 1.1328,-7.6523 -2.039,-7.9531 -0.8829,0.7695 -2.8594,-0.1289 -3.9532,-0.3984 -1.8711,-0.4493 -3.1289,0.121 -4.3008,1.2695 0.1641,0.5234 -5.2109,1.4805 -6.4023,-0.8867 -0.7227,-1.4727 2.1797,-1.3828 2.7578,-1.3321 2.4297,0.1602 2.0391,-1.9414 3.1094,-3.4609 0.6992,-1 0.039,-1.3203 -0.5586,-2.3672 0.4531,-0.9609 0.8047,-1.9531 1.0508,-2.9726 3.3789,0.3906 0.4531,-3.3477 1.914,-4.2383 0.6797,0.6875 1.4414,1.2578 2.3282,1.6875 0.2656,-0.6797 0.6992,-1.2383 1.2539,-1.6992 1.6679,2.2187 2.1445,5.0195 3.4179,7.4101 l 0.062,0.1094 c -2.6132,-9.3789 -6.2773,-18.5274 -10.9531,-27.2383 -0.5117,0.457 -0.9883,1.3906 -0.8203,2.3711 -1.6289,-0.8008 -1.3398,1.2383 -2.1445,1.7773 -0.8203,0.5508 -1.0274,0.1094 -1.3164,-0.3281 -0.2266,-0.3203 -0.4727,-0.6328 -0.9883,-0.6015 0.3281,0.75 0.5351,1.5312 0.6406,2.332 -1.4648,-1.1406 -1.75,-0.9219 -3.6055,-1.2617 -0.2461,1.8906 3.7891,4.9414 4.961,6.6289 0.7422,1.1015 1.875,5.1093 1.0117,6.4922 -1.9766,-1.461 -8.1133,-3.7305 -9.7578,-2.0899 -0.25,1.0313 1.1719,4.9492 1.418,6.1602 0.1875,1.0586 -0.1211,4.0195 -0.5547,5.0664 2.9648,1.6797 -0.7813,5.1719 4.2617,4.2226 2.1406,2.5586 2.0586,5.8985 -0.5352,7.7891 -2.3047,1.6602 -1.3164,2.8203 -2.6367,4.5586 -1.3984,1.8633 0.9492,3.8828 -0.9258,6.0742 -1.2968,1.4961 -3.2539,2.1953 -3.8281,3.9297 -0.8437,2.4961 -3.2109,3.5 -3.2344,6.4961 -2.3437,1.1016 -1.7695,3.0898 -3.375,4.6719 -1.2539,1.2187 -0.207,3.0976 -0.4336,4.6601 0.3321,-0.082 0.6172,-0.012 0.8438,0.211 0.5156,0.8476 0.7617,4.8281 0.6797,5.7695 -0.1211,1.5 -0.4532,5.1992 -1.3985,6.3476 -1.8125,2.2305 0.2891,2.8907 -0.2461,4.9415 -0.4336,1.6289 0.4102,3.9101 2.5118,3.4882 -1.2344,2.4922 3.6445,4.0821 2.9843,7.4141 0.6797,2.0078 4.1563,4.1875 5.9063,5.7383 1.8555,1.6289 3.2344,0.539 4.6328,-0.5508 1.2969,-1.0117 2.6367,-2.0273 4.4492,-0.8711 0.6563,0.4297 6.4024,-4.3984 7.4727,-5.0078 0.8242,0.8281 0.5351,2.3711 0.8633,3.3906 0.9453,-0.2305 1.707,-0.7226 2.3046,-1.4922 0.7422,4.0703 -2.2031,7.3711 -1.914,11.1992 0.02,0.1329 0.02,0.2735 0.02,0.4024 7.8867,-20.8633 10.3164,-43.2422 7.3516,-64.9805"
       id="path1476"
       inkscape:connector-curvature="0" />
    <path
       style="fill:#2b3038;fill-opacity:1;fill-rule:nonzero;stroke:none"
       d="m 3320.0703,3146.5938 c 2.125,3.5117 8.375,2.9414 5.0664,-1.711 1.7344,-0.1172 -2.125,-4.4609 -3.1875,-4.2305 -0.4297,0.2813 -0.7734,0.629 -1.0625,1.0625 0.4297,0.02 0.7383,0.2305 0.8594,0.6368 -0.7539,0 -1.2656,-0.5899 -2.125,-0.6289 -0.5508,1.0195 3.0039,5.289 0.4492,4.8711"
       id="path1478"
       inkscape:connector-curvature="0" />
    <path
       style="fill:#2b3038;fill-opacity:1;fill-rule:nonzero;stroke:none"
       d="m 3230.8789,3083.5234 c -1.1523,0.168 -2.3437,0.1407 -3.5742,0.1211 -2.1211,-0.039 -4.3008,-0.082 -6.1406,0.8868 0.9687,-0.027 1.8984,0.1796 2.7656,0.6328 -0.2422,0.031 -0.5859,0 -0.9492,-0.031 -0.8477,-0.07 -1.8555,-0.1406 -2.2422,0.461 0.5859,0.1679 0.9101,0.1328 1.0703,0.082 0.2227,-0.074 1.9219,1.1484 1.6797,1.8398 5.5117,0.7266 9.2695,-2.1211 14.0156,1.4297 -0.043,0.2578 -2.1836,1.7578 -1.8203,1.9883 1.6172,-0.3398 2.0234,-0.5781 3.293,-0.3008 -0.3008,0.09 -0.586,0.2305 -0.8477,0.4336 0.8086,0.066 1.5156,0.3477 2.1211,0.8399 -0.039,0.01 -2.1797,0.01 -1.8984,0.2148 0.4023,-0.1367 0.7656,-0.059 1.0703,0.2109 -0.4453,0.062 -0.8086,0.2813 -1.0703,0.6407 0.2617,-0.059 0.4648,0.012 0.6445,0.2109 -0.3398,-0.019 -0.6445,-0.012 -0.9688,0.02 -1.0273,0.4727 2.6875,0.7422 4.1797,0.6094 0.1016,-0.2187 0.2852,-0.2969 0.586,-0.2187 0.1015,0.1093 -0.1407,0.1796 -0.586,0.2187 l -0.039,0.2109 c 1.4531,0.4922 3.8789,0.3477 4.664,1.4688 -0.5039,-0.098 -0.3828,0.082 -0.2617,0.2617 0.1836,0.2578 0.3438,0.5195 -1.332,-0.02 -1.4141,-0.461 -3.8164,-1.3203 -5.1914,-0.2305 0.3828,0.09 0.6679,0.3008 0.8476,0.6406 -1.332,-0.2109 -2.1601,2.8907 -2.1172,2.9414 0.9883,0.9766 6.3204,0.4375 7.2071,-1.4726 -0.6055,-0.332 -1.2305,-0.6094 -1.8985,-0.8399 0.9922,0.1602 1.9805,0.3711 2.9688,0.6211 -0.2617,-0.051 -0.4844,0.02 -0.6445,0.2188 0.082,0.4414 0.4453,0.3906 0.789,0.3398 0.2422,-0.039 0.461,-0.07 0.4844,0.082 0.7266,2.6289 -3.5156,1.9062 -4.8672,2.7578 1.1289,0.2187 -0.7305,0.9531 -0.9101,1.5117 -0.4024,0.75 -0.2422,1.0508 0.5468,0.8789 -0.2226,0.1289 -0.4648,0.2578 -0.6875,0.3711 0.7852,0.8711 2.5039,0.1172 3.1914,0.8398 -3.7968,0.01 -1.3945,2.1875 1.6133,2.6485 0,1.6093 -0.8476,2.1015 0.7266,2.4297 -1.3321,-0.039 -1.0469,0.7226 -0.4649,1.4726 0.586,0.7383 1.4766,1.4883 1.4766,1.4688 0.3437,1.0703 -0.039,0.5273 1.0312,1.2968 0.3829,0.2735 1.9571,0.2539 2.1993,0.625 -0.3633,1.3164 -0.2813,2.4688 -0.059,4.0196 1.6953,0.539 2.8047,-1.2227 3.5547,0.019 0.1211,0.1797 0.8671,0.6914 1.1093,0.6914 l 0.059,-0.07 -0.059,0.07 c -1.3945,1.3281 2.6875,1.3281 3.25,1.3984 0.062,0.5782 0.3633,0.8868 0.9297,0.918 0.8086,0.031 0.7696,0.2813 -0.078,0.7695 1.5742,0.1329 2.9258,-0.066 4.4609,-0.4296 -0.3437,0.2304 -0.4218,0.5117 -0.2226,0.8515 1.375,0.3203 1.0508,-1.0429 1.2734,-1.0703 0.1836,0.019 2.2813,0.1914 2.3438,0.4219 -0.586,0.1797 -0.9922,0.539 -1.2735,1.0664 1.0508,0.1797 2.1211,0.4023 3.1719,0.6211 -1.3125,1.5117 0.543,0.8281 1.918,1.4805 0.707,-0.3008 1.3945,-0.2696 2.0781,-0.2422 0.6289,0.031 1.293,0.051 1.9414,-0.1875 0.4023,-1.293 -0.062,-1.0703 -0.3242,-0.8711 -0.2422,0.2812 -0.1602,0.1406 0,0 0.1601,-0.1602 0.4648,-0.4805 0.9492,-1.0391 -0.3633,-1.0586 -1.3516,-0.5 -0.6445,-2.6289 0.8047,-2.4023 -0.7696,-1.8203 -1.6992,-3.7227 0.4453,0.012 0.871,-0.059 1.2734,-0.2109 0.019,-0.5078 -0.1797,-0.8555 -0.6445,-1.0586 1.0898,-0.168 2.1601,0.1211 2.7656,-1.6992 -0.7891,-0.4102 -1.4961,-0.8984 -2.1211,-1.4805 0.5273,0.1211 1.0117,0.051 1.4766,-0.2187 -0.4454,-0.5391 -0.9493,-1.0313 -1.4961,-1.4805 0.5234,0.09 1.0312,0.019 1.4961,-0.2109 -0.082,-0.5703 -0.3672,-0.9883 -0.8516,-1.2696 2.75,0.9493 4.6484,2.461 7.2305,2.4024 -0.1407,-0.3399 -0.2618,-3.7539 -0.2618,-4.1211 0.586,0.4297 1.211,0.6406 1.918,0.6289 0.4063,-1.3789 -0.6836,-2.7383 0.6289,-3.8086 0.9258,0.3477 2.3203,0.9805 3.3086,0.4297 0,-0.012 2.1016,-0.2422 3.0703,-0.7109 -18.8008,-11.8829 -39.8476,-18.5391 -61.1328,-20.0704"
       id="path1480"
       inkscape:connector-curvature="0" />
    <path
       style="fill:#2b3038;fill-opacity:1;fill-rule:nonzero;stroke:none"
       d="m 3350.6289,3186.5039 c -0.086,-0.1016 -0.1875,-0.1289 -0.3906,0.059 0.059,1 0.4492,1.7617 0.9453,2.5 -0.1875,-0.8477 -0.3516,-1.707 -0.5547,-2.5586"
       id="path1482"
       inkscape:connector-curvature="0" />
    <path
       style="fill:#2b3038;fill-opacity:1;fill-rule:nonzero;stroke:none"
       d="m 3348.1328,3183.5977 c -0.1406,-2.3086 -0.4101,-3.3594 -1.7031,-4.4414 0.3711,1.5 0.3476,3.3398 1.293,4.6601 -0.02,-0.3867 0.125,-0.457 0.4101,-0.2187"
       id="path1484"
       inkscape:connector-curvature="0" />
    <path
       style="fill:#2b3038;fill-opacity:1;fill-rule:nonzero;stroke:none"
       d="m 3193.8203,3087.7656 c 1.2656,-0.332 2.5313,-0.6523 3.836,-0.6328 -0.9688,0.2383 -2.3907,0.3985 -3.836,0.6328 -0.793,0.2071 -1.6015,0.418 -2.414,0.5469 -0.711,0.2305 -1.3047,0.5117 -1.7188,0.8906 0.2773,-0.1679 0.1563,0.461 -0.078,0.6602 0.4726,-0.07 1.4023,-0.1719 0.6328,-0.5899 0.7305,-0.2109 4.0937,-0.5312 4.6641,-0.012 -1.0665,-0.039 -7.4532,0.5117 -7.6133,2.1328 1.1875,-0.082 4.3906,-0.9687 5.3008,-0.2187 -1.168,0.3867 -11.3125,1.039 -10.8165,3.8359 1.7383,-0.027 4.0508,-1.0898 5.8321,-1.3672 2,-0.3125 4.2148,-0.8711 6.1523,-1.4492 2.2149,-0.6601 7.0586,0.457 8.5625,-2.1015 -2.2148,-0.082 -4.8242,1.0507 -6.9804,0.4375 1.7578,-0.4766 3.6171,-0.2461 5.3789,-0.7071 1.3046,-0.3515 1.4023,-1.0508 2.7109,-1.1797 1.125,-0.1015 4.4883,-0.9922 5.0234,-2.1718 -1.207,-0.1797 -2.6523,0.5898 -3.8203,0.2226 2.1953,-0.7539 4.668,-0.094 6.7852,-1.082 -0.4531,0.1406 -0.8906,0.07 -1.2656,-0.1992 1.3828,0.098 9.4921,-1.7305 13.5273,-2.1719 -0.2578,0.012 -0.4961,0 -0.7109,-0.047 -3.7969,-0.051 -7.6172,0.066 -11.4141,0.3477 -3.4609,0.4687 -6.9023,1.1406 -10.3008,1.9297 -3.2851,0.7695 -7.9726,1.0312 -10.8008,2.9492 0.3164,-0.02 0.6328,-0.059 0.9493,-0.1094 0.7343,-0.2383 1.5625,-0.4102 2.414,-0.5469"
       id="path1486"
       inkscape:connector-curvature="0" />
    <path
       style="fill:#2b3038;fill-opacity:1;fill-rule:nonzero;stroke:none"
       d="m 3189.1836,3088.8516 c 0.2539,-0.1094 0.4883,-0.2305 0.6445,-0.4297 -0.2929,-0.031 -1.1718,0.3398 -0.6445,0.4297"
       id="path1488"
       inkscape:connector-curvature="0" />
    <path
       style="fill:#2b3038;fill-opacity:1;fill-rule:nonzero;stroke:none"
       d="m 3150.6719,3107.8828 c 7.4101,-2.8984 10.2422,-5.5273 7.6211,-5.3164 -1.9571,0.1602 -6.6094,3.5 -7.6211,5.3164"
       id="path1490"
       inkscape:connector-curvature="0" />
    <path
       style="fill:#2b3038;fill-opacity:1;fill-rule:nonzero;stroke:none"
       d="m 3176.7305,3094 c 0.1953,0.019 0.3515,0 0.4687,0 0.1367,0 0.2344,-0.1406 0.293,-0.25 2.1328,-0.668 4.8906,-1.2695 6.2031,-1.2695 1.3711,-1.1485 3.6602,-1.9102 5.2031,-2.5899 -0.3125,0.1407 -1.1718,-0.3008 -1.1914,-0.4023 0.078,-0.1094 0.1563,-0.1875 0.2539,-0.2578 -0.1953,0.07 -0.4687,0.1601 -0.7812,0.2578 -0.6289,-0.01 -1.7031,0.543 -2.3281,0.6523 l 0.1172,-0.02 -0.1993,0.1992 0.3164,-0.1992 c 0.2539,0 -0.8046,0.3203 -0.4531,0.3086 -0.3515,0.012 0.707,-0.3086 0.4531,-0.3086 -4.0312,1.2187 -10.1367,3.1289 -9.8632,4.5 0.375,-0.2109 0.9023,-0.4102 1.5078,-0.6211"
       id="path1492"
       inkscape:connector-curvature="0" />
    <path
       style="fill:#2b3038;fill-opacity:1;fill-rule:nonzero;stroke:none"
       d="m 3304.75,3115.6875 c -0.1016,-0.7891 -2.1523,-2.3672 -2.8398,-2.7773 -0.4883,-0.2813 -0.5079,-0.1211 -0.5899,0.027 -0.1211,0.1914 -0.3242,0.3711 -1.5234,-0.2109 -0.5039,-0.2383 -4.0977,-1.4883 -4.1758,-1.2578 0.3242,0.2421 0.3828,0.5312 0.1992,0.8476 -0.019,-0.3984 -3.3047,-2.7578 -4.4414,-2.957 -0.2617,0.4883 0.8125,0.6992 0.4258,0.8476 -0.75,-0.2773 -2.0274,-0.8867 -2.1289,0.2227 0.7305,1.5195 3.4883,0.1875 4.0351,1.8984 -0.2226,0.07 -0.6054,-0.027 -0.9726,-0.1289 -0.668,-0.1601 -1.3789,-0.3281 -1.5625,0.3399 1.0976,0.6797 2.8203,0.539 3.6133,1.6914 -0.6524,-0.1914 -0.9961,0.019 -1.0782,0.6367 1.2579,0.3711 13.3321,4.9922 13.1485,2.7226 -0.02,0 -0.2227,-0.4726 -0.5664,-0.9492 -0.3672,-0.5117 -0.8946,-1.0117 -1.543,-0.9531"
       id="path1494"
       inkscape:connector-curvature="0" />
    <path
       style="fill:#2b3038;fill-opacity:1;fill-rule:nonzero;stroke:none"
       d="m 3202.918,3243.0664 c -0.02,-1.9609 -2.1836,-1.9609 -3.5977,-1.8984 -0.078,-0.5 0.6485,-0.6211 0.1992,-1.0625 -1.3984,-0.6602 -2.9492,-0.9492 -4.4414,-1.2617 -0.3945,-1.0665 -1.4961,-1.4883 -2.4961,-1.7891 -1.8086,-0.5274 -3.4179,-2.1289 -5.1289,-2.0899 -2.2812,0.039 -4.0664,-0.9882 -6.582,-0.3203 -1.1406,0.3008 -4.4023,2.0508 -3.3984,3.8203 1.1953,0.2696 4.6953,-1.8906 5.9336,-2.5585 0.3515,2 2.8867,1.5781 4.871,2.539 1.711,0.8125 3.0079,-0.039 3.754,1.6485 0.6484,1.4648 1.9843,0.9531 3.2617,1.7226 -0.4336,0.7383 -1.4532,0.5508 -1.2774,1.6992 2.9492,-0.4687 5.9532,-0.039 8.9024,-0.4492"
       id="path1496"
       inkscape:connector-curvature="0" />
    <path
       style="fill:#2b3038;fill-opacity:1;fill-rule:nonzero;stroke:none"
       d="m 3193.8398,3248.1445 c 0.2149,0.1094 4.2383,0.9375 4,-0.1836 -1.0585,-1.9492 -7.7109,-1.9296 -4,0.1836"
       id="path1498"
       inkscape:connector-curvature="0" />
    <path
       style="fill:#2b3038;fill-opacity:1;fill-rule:nonzero;stroke:none"
       d="m 3205.5352,3247.793 c 0.8906,0.2265 1.7773,0.2773 2.6875,0.1367 0.414,0.7422 1.0664,1.1601 1.914,1.2695 0.4727,-4.0976 7.3242,0.4805 7.4024,-2.5586 -1.6993,-2.0508 -5.2696,-3.6093 -7.5,-3.3984 -1.1875,0.1172 -5.4883,-1.0195 -5.8438,0.4609 0,0.01 2.7031,2.8164 2.5469,2.75 -1.6211,0.7071 -3.082,-0.9023 -4.6797,-0.2031 -0.3359,2.4727 2.3906,1.3516 3.4727,1.543"
       id="path1500"
       inkscape:connector-curvature="0" />
    <path
       style="fill:#2b3038;fill-opacity:1;fill-rule:nonzero;stroke:none"
       d="m 3220,3247.5313 c 0.098,2.0781 4.6289,0.9609 4.3125,-0.2696 -0.5156,-0.051 -4.3906,-1.8008 -4.3125,0.2696"
       id="path1502"
       inkscape:connector-curvature="0" />
    <path
       style="fill:#2b3038;fill-opacity:1;fill-rule:nonzero;stroke:none"
       d="m 3161.9844,3103.0977 c 2.5273,2.1093 4.3359,-1.3438 5.0742,-1.3008 -0.7188,-0.1524 -7.1328,-0.4102 -5.0742,1.3008"
       id="path1504"
       inkscape:connector-curvature="0" />
    <path
       style="fill:#2b3038;fill-opacity:1;fill-rule:nonzero;stroke:none"
       d="m 3143.5508,3111.9766 c -0.8281,0.01 -3.0899,-0.4336 -3.1485,1.0586 1.5469,1.3007 7.0313,-0.5313 6.5665,-2.7696 -0.6758,-0.082 -1.2344,-0.3593 -1.6993,-0.8398 -1.1406,-0.031 -2.2031,0.25 -3.1875,0.8594 -0.5,0.039 1.2578,1.5781 1.4688,1.6914"
       id="path1506"
       inkscape:connector-curvature="0" />
    <path
       style="fill:#2b3038;fill-opacity:1;fill-rule:nonzero;stroke:none"
       d="m 3175.6523,3099.0508 c 4.0625,-0.4531 7.7696,-2.5899 11.7735,-2.6445 1.1758,-0.01 2.9844,-0.2891 3.6914,-1.418 0.9023,1.2109 2.7851,0.3789 3.8828,0.1406 1.5117,-0.3516 1.9844,-1 3.5313,-1.8594 -3.6094,-1.0507 -7.9454,0.1563 -11.3399,1.4493 -1.5703,0.5898 -2.5312,0.4179 -4.1016,1.039 -1,0.3906 -3.75,0.02 -4.4726,0.7422 0.4883,-0.8594 1.7461,-0.5312 2.332,-1.2812 -1.9609,0.09 -3.7265,0.75 -5.5117,1.5 -0.059,0.9101 0.8242,0.1914 0.8633,0.6289 -0.4727,0.7695 -0.9414,0.6406 -0.6485,1.7031"
       id="path1508"
       inkscape:connector-curvature="0" />
    <path
       style="fill:#2b3038;fill-opacity:1;fill-rule:nonzero;stroke:none"
       d="m 3204.6992,3107.668 c -2.2226,-0.7422 -5.0742,-0.1407 -5.0742,2.5508 2.0078,0.8085 5.3281,0.1875 5.0742,-2.5508"
       id="path1510"
       inkscape:connector-curvature="0" />
    <path
       style="fill:#2b3038;fill-opacity:1;fill-rule:nonzero;stroke:none"
       d="m 3219.5781,3101.8828 c -0.9336,0.1524 -2.0429,0.6719 -3.0156,0.4531 0.8125,-0.1796 1.5859,-0.4726 2.3398,-0.8515 -0.2382,-0.9805 -1.8242,-0.8672 -3.3359,-0.7696 -1.3476,0.1016 -3.4922,1.25 -3.6914,0.5704 1.25,-0.051 -1.8242,-3.4219 -2.957,-1.0508 -0.1563,-1.3008 -1.0703,-1.0391 -2.0039,-0.7891 -0.5157,0.1524 -1.0118,0.2891 -1.3711,0.1602 0.7148,-0.1914 1.3711,-0.5391 1.9062,-1.0586 -1.4883,-1.0508 -9.2695,-1.9492 -9.3281,1.0781 -0.9141,-0.6602 -1.5508,-0.3711 -2.1836,-0.09 -0.5547,0.25 -1.1133,0.5 -1.8477,0.1015 0.5977,-0.5625 1.0938,-1.2031 1.4883,-1.9101 -2.2617,-2.1719 -6.3125,-0.2891 -8.4726,1.0781 0.3945,-0.1289 0.7539,-0.059 1.0703,0.2109 -0.9531,0.012 -2.5625,-0.01 -2.7578,1.2813 0.3359,0.1289 0.6133,0.3398 0.832,0.6289 -0.6367,-0.031 -1.0703,0.25 -1.2695,0.8515 0.2773,0.6875 1.5468,0.047 1.707,0.8477 -0.6562,0.6523 -1.4297,0.8711 -2.3242,0.6406 0.5156,-0.01 0.9531,-0.2187 1.2734,-0.6406 -0.6758,-1.0898 -1.9687,-1.1484 -2.125,-2.3281 0.9922,-1.1406 2.6211,-1.3633 3.5938,-2.5508 -2.6602,0.3281 -10.2032,2.2695 -9.0938,5.3203 -0.7929,0.09 -1.289,0.5078 -1.4883,1.2813 0.5547,0.039 1.1133,-0.031 1.668,-0.1016 0.8516,-0.1094 1.707,-0.2188 2.5586,0.09 -0.793,0.668 -2.8359,-0.01 -3.1562,1.2696 0.8359,0.9687 2.582,0.5 3.5546,0.1914 1.1719,-0.3711 1.1329,-0.1992 1.3711,-0.023 0.1993,0.1329 0.5743,0.2813 1.9844,0.1133 3.0156,-0.3515 5.8359,-0.6211 8.7734,-0.5312 0.1797,-1.2188 0.8321,-1.0078 1.7071,-0.8008 0.5742,0.1406 1.289,0.2812 2.0039,-0.01 2.2422,-0.8906 -0.418,-1.1914 -0.5547,-1.5196 0.9336,-0.6015 6.1523,1.8985 7.0078,2.3086 -0.7344,0.3321 -1.5312,0.4688 -2.3437,0.4297 -0.2969,1.8711 1.9843,0.7305 2.8984,0.4688 1.9062,-0.5586 1.6094,0.582 3.375,0.9609 4.6836,1.0078 0.8125,4.6797 -2.0039,5.3399 -0.043,0.7695 1.8242,1.2929 1.4883,1.9023 -2.4805,0.2266 -4.2696,0.6094 -6.6524,0.6875 -1.1093,0.051 -3.6523,1.1797 -3.3125,2.9414 1.4688,0.09 7.3633,-0.9101 7.4414,-2.0703 0.043,-0.6602 6.3946,2.8203 7.1875,3.5195 -0.4961,0.07 -0.7734,0.3594 -0.8359,0.8477 1.7891,1.3945 4.5273,1.1445 5.9375,3.1953 2.5195,-0.3047 4.9414,0.4062 7.4219,0.5859 -0.02,-3.3476 -2.3789,-3.3984 -6.7461,-4.3593 2.6992,0.5898 6.4883,-0.1407 6.9453,0.1601 1.2305,0.7891 1.1328,2.2695 2.543,2.2813 0.078,-0.3125 0.1562,-2.1719 0,-2.3321 0.2578,0.1719 0.5351,0.2422 0.8515,0.211 0.3789,-2.0078 -1.1914,-1.9414 -2.1445,-3.1719 0.3984,0.1016 0.6172,-0.039 0.6367,-0.418 -1.0742,0.012 -6.9687,-3.5508 -6.5703,-4.0078 0.5352,0.4766 1.1719,0.6172 1.9062,0.418 0.2188,-1.0703 -0.9335,-0.6602 -1.0546,-1.4883 2.0273,-0.75 4.4882,-0.9531 6.1367,0.3086 1.3086,1.0391 1.7851,3.5391 3.3945,3.4883 0.2149,-0.6367 -0.8164,-1.418 -0.2187,-1.9102 0.8906,-0.078 2.1015,-0.457 2.9765,-0.4297 0.6563,-0.3867 -0.7148,-0.7187 0,-1.0586 1.5469,0.1485 2.8164,-1.0507 0.6953,-1.789 -1.7461,-0.6094 -1.9648,0.1289 -2.8203,-0.961 -1.0312,0.039 -2.4414,0.6407 -3.3945,0.012 0.6172,0.1875 1.1133,0.047 1.4687,-0.4336 -1.5078,-2.3789 -7.2461,-1.668 -9.7461,-3.1602 0.2969,-0.2695 0.6563,-0.3398 1.0743,-0.2109 0.2148,-0.5469 -1.0938,-0.7774 -0.6563,-1.0586 1.0899,0.4101 2.2227,0.5508 3.3945,0.4219 0.1368,-1.0118 -0.6367,-1 -1.4492,-1 -0.6562,0.01 -1.289,0.019 -1.5078,-0.4805 4.1485,-0.012 1.2891,-1.5078 -0.1797,-1.293"
       id="path1512"
       inkscape:connector-curvature="0" />
    <path
       style="fill:#2b3038;fill-opacity:1;fill-rule:nonzero;stroke:none"
       d="m 3184.9961,3121.2852 c 0.8828,-0.02 6.6562,3.3125 6.5781,-0.01 -1.0937,-0.4296 -2.2109,-0.5585 -3.3867,-0.4179 0.5898,-1.9727 -2.3867,-0.6524 -3.7383,-1.2031 -2.9961,-1.2188 -0.2929,-0.879 -2.4101,-1.1094 0.059,-0.8086 -0.293,-1.3086 -1.0743,-1.4805 -0.5898,1.1524 -1.6093,1.9922 -1.9609,3.2695 -0.625,2.2227 -1.5273,1.5313 -2.4648,3.5235 1.1523,0.1601 2.3281,-0.9024 3.3867,-0.6524 -0.1172,0.418 -0.1172,0.8516 0,1.2696 1.8203,-0.07 2.8594,-1.7696 4.6601,-1.9102 0.4883,-0.3906 -0.332,-1.168 0.4102,-1.2812"
       id="path1514"
       inkscape:connector-curvature="0" />
    <path
       style="fill:#2b3038;fill-opacity:1;fill-rule:nonzero;stroke:none"
       d="m 3195.9648,3114.4414 c -0.7851,-0.2422 -2.1406,0.6797 -2.746,0.2188 1.0781,-0.4102 1.9804,-1.0508 2.746,-1.9102 -1.746,0.039 -5.1992,1.5625 -6.3554,2.7695 0.3359,-0.078 0.6094,-0.01 0.8437,0.211 -1.0586,0.3086 -3.5859,1.5468 -4.2148,2.3398 1.8437,1.1172 9.8828,-0.09 9.7265,-3.6289"
       id="path1516"
       inkscape:connector-curvature="0" />
    <path
       style="fill:#2b3038;fill-opacity:1;fill-rule:nonzero;stroke:none"
       d="m 3170.1445,3097.1602 c 1.9297,-0.2618 3.3516,-1.0313 4.6563,-1.918 -1.7539,0.4492 -3.4297,0.957 -4.6563,1.918"
       id="path1518"
       inkscape:connector-curvature="0" />
    <path
       style="fill:#2b3038;fill-opacity:1;fill-rule:nonzero;stroke:none"
       d="m 3165.2969,3112.4219 c -0.7383,0.07 -2.6016,-0.9492 -3.5938,-1.0508 -0.6601,0.6289 -2.6992,2.2305 -2.9687,2.9805 2.3672,-0.2891 4.9687,0.3789 6.5625,-1.9297"
       id="path1520"
       inkscape:connector-curvature="0" />
    <path
       style="fill:#2b3038;fill-opacity:1;fill-rule:nonzero;stroke:none"
       d="m 3187.9531,3089.2344 c 0.2344,-0.078 0.3907,-0.1406 0.4883,-0.1914 -0.1953,0.031 -0.332,0.094 -0.4883,0.1914"
       id="path1522"
       inkscape:connector-curvature="0" />
    <path
       style="fill:#2b3038;fill-opacity:1;fill-rule:nonzero;stroke:none"
       d="m 3170.0586,3099.8008 c 1.1484,0.6797 4.8867,-1.5 4.4414,-1.6992 -1.4023,0.6992 -3.1953,0.6211 -4.4414,1.6992"
       id="path1524"
       inkscape:connector-curvature="0" />
    <path
       style="fill:#2b3038;fill-opacity:1;fill-rule:nonzero;stroke:none"
       d="m 3168.6094,3103.5625 c 1.5,0.8086 3.0625,-0.2734 7.1953,-3.8711 1.7344,-1.5195 -4.8164,1.6875 -7.1953,3.8711"
       id="path1526"
       inkscape:connector-curvature="0" />
    <path
       style="fill:#2b3038;fill-opacity:1;fill-rule:nonzero;stroke:none"
       d="m 3168.4414,3098.0156 c -0.582,-0.2109 -5.0898,0.5508 -5.1484,1.0664 1.2422,-0.1757 4.7812,1.0118 5.1484,-1.0664"
       id="path1528"
       inkscape:connector-curvature="0" />
    <path
       style="fill:#2b3038;fill-opacity:1;fill-rule:nonzero;stroke:none"
       d="m 3157.7734,3109.0039 c -0.3476,0.2188 -0.6211,0.5078 -0.8515,0.8477 1.8008,-0.1797 4.9844,-1.5782 5.2929,-3.6094 -2.7539,-0.3516 -5.5273,2.6406 -4.4414,2.7617"
       id="path1530"
       inkscape:connector-curvature="0" />
    <path
       style="fill:#2b3038;fill-opacity:1;fill-rule:nonzero;stroke:none"
       d="m 3248.5039,3155.3438 c -0.2578,0 -0.5195,0.031 -0.7383,0.07 -1.5976,0.332 -2.5195,1.7304 -3.2383,3.2422 -0.6992,1.5 -1.1992,3.1093 -1.996,3.8984 l -0.1993,0.1914 c -0.6211,0.5 -0.6797,1.082 -0.2226,1.7305 -0.7774,0.1093 -1.3789,0.5 -1.7774,1.1875 -0.1015,0.25 -0.1406,0.4492 -0.1015,0.6211 0.082,0.539 0.6797,0.7421 1.4023,0.8125 0.2383,0.02 0.4961,0.027 0.7383,0.027 0.2383,0 0.4805,-0.01 0.6992,-0.019 0.2188,-0.01 0.4375,-0.02 0.5977,-0.02 l 0.2226,0.012 c 0.1172,0.01 0.3164,0.01 0.5782,0.01 0.4804,0 1.1406,-0.01 1.8593,-0.031 0.7188,-0.01 1.4961,-0.027 2.1953,-0.027 0.5196,0 0.9805,0.01 1.3399,0.027 0.4414,0.023 0.7187,0.062 0.7383,0.1406 -0.1172,0.039 -0.2188,0.09 -0.3164,0.1407 -0.7227,0.3711 -1.3204,0.8906 -1.8008,1.5625 0.3594,0.1797 0.6797,0.25 0.9804,0.25 0.6993,0 1.2579,-0.4532 1.7774,-0.8946 l 0.1601,-0.1289 c 0.4805,-0.3984 0.9805,-0.7695 1.5782,-0.7695 0.1211,0 0.2422,0.012 0.3789,0.039 -0.1797,1.8125 -0.5781,1.7617 1.5195,2.4414 0.2813,0.09 0.5195,0.1289 0.6992,0.1289 0.8203,0 0.8594,-0.7578 1.1211,-1.6992 0.5781,-2 -2.0586,-1.6797 -2.5,-2.1407 -0.059,-0.5898 0.3008,-0.7812 0.6992,-0.9375 0.4805,-0.2031 0.9805,-0.3632 0.7813,-1.1914 -0.1797,-0.098 -0.3203,-0.1328 -0.4609,-0.1328 -0.2188,0 -0.418,0.094 -0.6172,0.1836 -0.2032,0.09 -0.4219,0.1914 -0.6602,0.1914 l -0.1797,-0.023 c 0.039,-1.0313 1.6367,-2.2696 -0.3008,-2.7071 -0.3007,-0.074 -0.5976,-0.094 -0.8593,-0.094 -0.3594,0 -0.6993,0.051 -1.0196,0.1133 -0.3007,0.051 -0.5976,0.1094 -0.8984,0.1094 -0.5391,0 -1.0781,-0.1719 -1.7969,-0.8008 2.4375,-0.711 -0.6015,-0.8594 -1.6015,-0.8594 -0.1602,0 -0.2774,0.01 -0.2969,0.01 0.5781,-0.8281 1.957,-2.3984 2.5976,-3.5508 0.1993,-0.3476 0.3399,-0.6562 0.3594,-0.8984 -0.539,-0.1484 -1.0195,-0.2109 -1.4414,-0.2109"
       id="path1532"
       inkscape:connector-curvature="0" />
  </g>
</svg>
