<?xml version="1.0" encoding="UTF-8" standalone="no"?>
<svg
   xmlns:dc="http://purl.org/dc/elements/1.1/"
   xmlns:cc="http://creativecommons.org/ns#"
   xmlns:rdf="http://www.w3.org/1999/02/22-rdf-syntax-ns#"
   xmlns:svg="http://www.w3.org/2000/svg"
   xmlns="http://www.w3.org/2000/svg"
   xmlns:sodipodi="http://sodipodi.sourceforge.net/DTD/sodipodi-0.dtd"
   xmlns:inkscape="http://www.inkscape.org/namespaces/inkscape"
   width="40.001228pt"
   height="42pt"
   viewBox="0 0 40.001228 42"
   version="1.2"
   id="svg21"
   sodipodi:docname="stack.eps"
   inkscape:version="0.92.3 (2405546, 2018-03-11)">
  <metadata
     id="metadata27">
    <rdf:RDF>
      <cc:Work
         rdf:about="">
        <dc:format>image/svg+xml</dc:format>
        <dc:type
           rdf:resource="http://purl.org/dc/dcmitype/StillImage" />
        <dc:title></dc:title>
      </cc:Work>
    </rdf:RDF>
  </metadata>
  <defs
     id="defs25" />
  <sodipodi:namedview
     pagecolor="#ffffff"
     bordercolor="#666666"
     borderopacity="1"
     objecttolerance="10"
     gridtolerance="10"
     guidetolerance="10"
     inkscape:pageopacity="0"
     inkscape:pageshadow="2"
     inkscape:window-width="784"
     inkscape:window-height="480"
     id="namedview23"
     showgrid="false"
     inkscape:zoom="2.765625"
     inkscape:cx="90.667485"
     inkscape:cy="29.333335"
     inkscape:window-x="0"
     inkscape:window-y="0"
     inkscape:window-maximized="0"
     inkscape:current-layer="surface529" />
  <g
     id="surface529"
     transform="translate(-11.999386,-12)">
    <path
       style="fill:#b5b5a6;fill-opacity:1;fill-rule:nonzero;stroke:none"
       d="m 32,54 c -0.632812,0 -1.269531,-0.144531 -1.753906,-0.433594 L 12.726562,43.050781 c -0.941406,-0.5625 -0.96875,-1.46875 -0.08203,-2.050781 0.02734,0.01953 0.05469,0.03516 0.08203,0.05078 L 30.246094,51.566406 C 30.730469,51.855469 31.367188,52 32,52 c 0.632812,0 1.269531,-0.144531 1.753906,-0.433594 L 51.273438,41.050781 c 0.02734,-0.01563 0.05469,-0.03125 0.08203,-0.05078 0.886719,0.582031 0.859375,1.488281 -0.08203,2.050781 L 33.753906,53.566406 C 33.269531,53.855469 32.632812,54 32,54"
       id="path4"
       inkscape:connector-curvature="0" />
    <path
       style="fill:#c74554;fill-opacity:1;fill-rule:nonzero;stroke:none"
       d="m 33.753906,51.566406 c -0.96875,0.578125 -2.539062,0.578125 -3.507812,0 L 12.726562,41.050781 c -0.96875,-0.582031 -0.96875,-1.519531 0,-2.101562 L 30.246094,28.433594 c 0.96875,-0.578125 2.539062,-0.578125 3.507812,0 l 17.519532,10.515625 c 0.96875,0.582031 0.96875,1.519531 0,2.101562 L 33.753906,51.566406"
       id="path6"
       inkscape:connector-curvature="0" />
    <path
       style="fill:#b5b5a6;fill-opacity:1;fill-rule:nonzero;stroke:none"
       d="m 48.027344,37 -1.667969,-1 4.914063,-2.949219 c 0.02734,-0.01563 0.05469,-0.03125 0.08203,-0.05078 0.886719,0.582031 0.859375,1.488281 -0.08203,2.050781 L 48.027344,37 m -32.054688,0 -3.246094,-1.949219 c -0.941406,-0.5625 -0.96875,-1.46875 -0.08203,-2.050781 0.02734,0.01953 0.05469,0.03516 0.08203,0.05078 L 17.640625,36 15.972656,37"
       id="path8"
       inkscape:connector-curvature="0" />
    <path
       style="fill:#a33d47;fill-opacity:1;fill-rule:nonzero;stroke:none"
       d="m 32,46 c -0.632812,0 -1.269531,-0.144531 -1.753906,-0.433594 L 15.972656,37 17.640625,36 30.246094,43.566406 C 30.730469,43.855469 31.367188,44 32,44 c 0.632812,0 1.269531,-0.144531 1.753906,-0.433594 L 46.359375,36 48.027344,37 33.753906,45.566406 C 33.269531,45.855469 32.632812,46 32,46"
       id="path10"
       inkscape:connector-curvature="0" />
    <path
       style="fill:#75caa8;fill-opacity:1;fill-rule:nonzero;stroke:none"
       d="m 33.753906,43.566406 c -0.96875,0.578125 -2.539062,0.578125 -3.507812,0 L 12.726562,33.050781 c -0.96875,-0.582031 -0.96875,-1.519531 0,-2.101562 L 30.246094,20.433594 c 0.96875,-0.578125 2.539062,-0.578125 3.507812,0 l 17.519532,10.515625 c 0.96875,0.582031 0.96875,1.519531 0,2.101562 L 33.753906,43.566406"
       id="path12"
       inkscape:connector-curvature="0" />
    <path
       style="fill:#b5b5a6;fill-opacity:1;fill-rule:nonzero;stroke:none"
       d="M 48.027344,29 33.753906,20.433594 C 33.269531,20.144531 32.632812,20 32,20 c -0.632812,0 -1.269531,0.144531 -1.753906,0.433594 L 15.972656,29 12.726562,27.050781 c -0.96875,-0.582031 -0.96875,-1.519531 0,-2.101562 L 30.246094,14.433594 C 30.730469,14.144531 31.367188,14 32,14 c 0.632812,0 1.269531,0.144531 1.753906,0.433594 l 17.519532,10.515625 c 0.96875,0.582031 0.96875,1.519531 0,2.101562 L 48.027344,29"
       id="path14"
       inkscape:connector-curvature="0" />
    <path
       style="fill:#61a38c;fill-opacity:1;fill-rule:nonzero;stroke:none"
       d="m 32,38 c -0.632812,0 -1.269531,-0.144531 -1.753906,-0.433594 L 15.972656,29 30.246094,20.433594 C 30.730469,20.144531 31.367188,20 32,20 c 0.632812,0 1.269531,0.144531 1.753906,0.433594 L 48.027344,29 33.753906,37.566406 C 33.269531,37.855469 32.632812,38 32,38"
       id="path16"
       inkscape:connector-curvature="0" />
    <path
       style="fill:#475470;fill-opacity:1;fill-rule:nonzero;stroke:none"
       d="m 33.753906,35.566406 c -0.96875,0.578125 -2.539062,0.578125 -3.507812,0 L 12.726562,25.050781 c -0.96875,-0.582031 -0.96875,-1.519531 0,-2.101562 L 30.246094,12.433594 c 0.96875,-0.578125 2.539062,-0.578125 3.507812,0 l 17.519532,10.515625 c 0.96875,0.582031 0.96875,1.519531 0,2.101562 L 33.753906,35.566406"
       id="path18"
       inkscape:connector-curvature="0" />
  </g>
</svg>
