<?xml version="1.0" encoding="UTF-8" standalone="no"?>
<svg
   xmlns:dc="http://purl.org/dc/elements/1.1/"
   xmlns:cc="http://creativecommons.org/ns#"
   xmlns:rdf="http://www.w3.org/1999/02/22-rdf-syntax-ns#"
   xmlns:svg="http://www.w3.org/2000/svg"
   xmlns="http://www.w3.org/2000/svg"
   xmlns:sodipodi="http://sodipodi.sourceforge.net/DTD/sodipodi-0.dtd"
   xmlns:inkscape="http://www.inkscape.org/namespaces/inkscape"
   width="43.0625pt"
   height="43.253906pt"
   viewBox="0 0 43.0625 43.253906"
   version="1.2"
   id="svg53"
   sodipodi:docname="rgb.eps"
   inkscape:version="0.92.3 (2405546, 2018-03-11)">
  <metadata
     id="metadata59">
    <rdf:RDF>
      <cc:Work
         rdf:about="">
        <dc:format>image/svg+xml</dc:format>
        <dc:type
           rdf:resource="http://purl.org/dc/dcmitype/StillImage" />
        <dc:title></dc:title>
      </cc:Work>
    </rdf:RDF>
  </metadata>
  <defs
     id="defs57" />
  <sodipodi:namedview
     pagecolor="#ffffff"
     bordercolor="#666666"
     borderopacity="1"
     objecttolerance="10"
     gridtolerance="10"
     guidetolerance="10"
     inkscape:pageopacity="0"
     inkscape:pageshadow="2"
     inkscape:window-width="784"
     inkscape:window-height="480"
     id="namedview55"
     showgrid="false"
     inkscape:zoom="2.765625"
     inkscape:cx="28.75"
     inkscape:cy="27.333335"
     inkscape:window-x="0"
     inkscape:window-y="0"
     inkscape:window-maximized="0"
     inkscape:current-layer="surface516" />
  <g
     id="surface516"
     transform="translate(-10.4375,-9.246094)">
    <path
       style="fill:#3f4a5e;fill-opacity:1;fill-rule:nonzero;stroke:none"
       d="M 23.605469,52.5 C 16.34375,52.5 10.4375,46.59375 10.4375,39.332031 c 0,-0.464843 0.02344,-0.921875 0.07031,-1.375 0.6875,6.628907 6.289063,11.796875 13.097657,11.796875 6.8125,0 12.414062,-5.167968 13.101562,-11.800781 0.04687,0.453125 0.07031,0.914063 0.07031,1.378906 0,2.449219 -0.671875,4.746094 -1.84375,6.710938 -0.25,0.15625 -0.453125,0.386719 -0.578125,0.679687 -0.05078,0.117188 -0.08594,0.234375 -0.105469,0.355469 C 31.851562,50.363281 27.976562,52.5 23.605469,52.5 M 13.53125,37.960938 c -0.0625,-0.449219 -0.09375,-0.910157 -0.09375,-1.375 0,-3.0625 1.347656,-5.796876 3.484375,-7.664063 0.1875,0.09375 0.359375,0.226563 0.5,0.398437 0.519531,0.644532 0.421875,1.589844 -0.21875,2.109376 -2.035156,1.652343 -3.332031,3.980468 -3.671875,6.53125 m 19.230469,-5.40625 c 0.04297,-0.04297 0.08203,-0.08984 0.125,-0.136719 0.01953,0.04297 0.03906,0.08203 0.05469,0.121093 -0.05859,0.0078 -0.121094,0.01172 -0.179687,0.01563"
       id="path4"
       inkscape:connector-curvature="0" />
    <path
       style="fill:#75caa8;fill-opacity:1;fill-rule:nonzero;stroke:none"
       d="m 25.96875,26.691406 c 4.472656,1.0625 7.8125,5.089844 7.808594,9.894532 0,2.8125 -1.136719,5.34375 -2.980469,7.191406 -1.84375,1.839844 -4.375,2.976562 -7.191406,2.976562 -2.8125,0 -5.34375,-1.136718 -7.1875,-2.976562 -1.84375,-1.847656 -2.980469,-4.378906 -2.980469,-7.191406 0,-3.191407 1.464844,-6.03125 3.765625,-7.898438 0.640625,-0.523438 0.738281,-1.46875 0.21875,-2.109375 -0.523437,-0.644531 -1.46875,-0.742187 -2.113281,-0.222656 -2.96875,2.410156 -4.871094,6.105469 -4.871094,10.230469 0,7.273437 5.894531,13.167968 13.167969,13.167968 7.277343,0 13.171875,-5.894531 13.171875,-13.167968 -0.0039,-6.222657 -4.308594,-11.433594 -10.113282,-12.8125 -0.804687,-0.191407 -1.613281,0.304687 -1.808593,1.113281 -0.191407,0.804687 0.308593,1.613281 1.113281,1.804687"
       id="path6"
       inkscape:connector-curvature="0" />
    <path
       style="fill:#3f4a5e;fill-opacity:1;fill-rule:nonzero;stroke:none"
       d="m 31.996094,38.328125 c -0.578125,0 -1.148438,-0.03516 -1.703125,-0.109375 -0.01563,-0.08594 -0.02734,-0.171875 -0.03906,-0.257812 0.113282,-0.84375 0.332032,-1.65625 0.644532,-2.421876 0.359374,0.03125 0.726562,0.04688 1.097656,0.04688 0.355468,0 0.707031,-0.01563 1.054687,-0.04297 0.304688,0.765625 0.523438,1.574219 0.632813,2.414062 -0.01172,0.08984 -0.02344,0.179688 -0.03906,0.269531 -0.542969,0.06641 -1.09375,0.101563 -1.648437,0.101563 M 36.75,37.441406 c 0.01953,-0.28125 0.02734,-0.570312 0.02734,-0.855468 0,-0.628907 -0.04297,-1.242188 -0.128906,-1.847657 1.875,-0.707031 3.546874,-1.832031 4.898437,-3.253906 0.08984,0.04687 0.171875,0.109375 0.253906,0.175781 0.625,0.542969 0.695313,1.492188 0.152344,2.117188 -1.425781,1.648437 -3.21875,2.894531 -5.203125,3.664062 m -9.5625,-0.01953 c -4.890625,-1.925781 -8.363281,-6.695313 -8.363281,-12.261719 0,-0.464844 0.02344,-0.921875 0.07031,-1.371094 0.523438,5.015626 3.855469,9.195313 8.398438,10.929688 -0.08594,0.59375 -0.128907,1.199219 -0.132813,1.816406 0,0.01563 0,0.03516 0,0.05078 0,0.28125 0.0078,0.558593 0.02734,0.835937"
       id="path8"
       inkscape:connector-curvature="0" />
    <path
       style="fill:#383f4f;fill-opacity:1;fill-rule:nonzero;stroke:none"
       d="m 33.683594,37.957031 c -0.109375,-0.839843 -0.328125,-1.648437 -0.632813,-2.414062 0.222657,-0.01953 0.445313,-0.04297 0.667969,-0.07031 0.03906,0.367188 0.05859,0.738282 0.05859,1.113282 0,0.464843 -0.03125,0.921874 -0.09375,1.371093"
       id="path10"
       inkscape:connector-curvature="0" />
    <path
       style="fill:#61a38c;fill-opacity:1;fill-rule:nonzero;stroke:none"
       d="m 33.644531,38.226562 c 0.01563,-0.08984 0.02734,-0.179687 0.03906,-0.269531 0.0625,-0.449219 0.09375,-0.90625 0.09375,-1.371093 0,-0.375 -0.01953,-0.746094 -0.05859,-1.113282 1.015625,-0.132812 1.996094,-0.382812 2.929688,-0.734375 0.08594,0.605469 0.128906,1.21875 0.128906,1.847657 0,0.285156 -0.0078,0.574218 -0.02734,0.855468 -0.992188,0.386719 -2.035156,0.648438 -3.105469,0.785156"
       id="path12"
       inkscape:connector-curvature="0" />
    <path
       style="fill:#3f4a5e;fill-opacity:1;fill-rule:nonzero;stroke:none"
       d="m 44.113281,23.96875 c -0.621093,-0.1875 -1.265625,-0.328125 -1.921875,-0.421875 -0.125,-0.167969 -0.214844,-0.359375 -0.261718,-0.574219 -1.015626,-4.625 -5.191407,-7.984375 -9.933594,-7.984375 -5.144532,0 -9.40625,3.839844 -10.078125,8.800781 -0.0625,-0.449218 -0.09375,-0.90625 -0.09375,-1.375 0,-2.8125 1.136719,-5.34375 2.980469,-7.191406 1.84375,-1.839844 4.375,-2.976562 7.191406,-2.976562 0,0 0.0039,0 0.0039,0 4.863281,0 8.929688,3.421875 9.929688,7.980468 0.152343,0.699219 0.773437,1.179688 1.464843,1.179688 0.105469,0 0.210938,-0.01172 0.320313,-0.03516 0.300781,-0.06641 0.5625,-0.21875 0.757812,-0.425782 0.15625,0.449219 0.285156,0.910157 0.386719,1.382813 0.144531,0.667969 -0.175781,1.328125 -0.746094,1.640625"
       id="path14"
       inkscape:connector-curvature="0" />
    <path
       style="fill:#c74554;fill-opacity:1;fill-rule:nonzero;stroke:none"
       d="m 39.683594,29.070312 c -1.867188,2.15625 -4.613282,3.515626 -7.6875,3.515626 -2.816406,-0.0039 -5.347656,-1.136719 -7.191406,-2.980469 -1.84375,-1.84375 -2.980469,-4.378907 -2.980469,-7.191407 0,-2.8125 1.136719,-5.34375 2.980469,-7.191406 1.84375,-1.839844 4.375,-2.976562 7.191406,-2.976562 4.863281,-0.0039 8.933594,3.421875 9.933594,7.980468 0.175781,0.808594 0.976562,1.320313 1.785156,1.144532 0.808594,-0.175782 1.320312,-0.976563 1.144531,-1.785156 C 43.5625,13.667969 38.296875,9.246094 31.996094,9.246094 c -7.277344,0 -13.167969,5.894531 -13.171875,13.167968 0.0039,7.273438 5.894531,13.167969 13.171875,13.171876 3.972656,0 7.546875,-1.765626 9.957031,-4.554688 0.542969,-0.625 0.472656,-1.570312 -0.152344,-2.113281 -0.625,-0.542969 -1.574219,-0.476563 -2.117187,0.152343"
       id="path16"
       inkscape:connector-curvature="0" />
    <path
       style="fill:#3f4a5e;fill-opacity:1;fill-rule:nonzero;stroke:none"
       d="m 29.105469,44.035156 c -0.652344,0 -1.253907,-0.429687 -1.441407,-1.085937 -0.332031,-1.171875 -0.503906,-2.390625 -0.503906,-3.617188 0,-0.464843 0.02344,-0.921875 0.07031,-1.371093 0.08203,0.765624 0.226562,1.515624 0.433593,2.242187 0.1875,0.65625 0.789063,1.085937 1.441407,1.085937 0.136719,0 0.273437,-0.01562 0.414062,-0.05469 0.300781,-0.08594 0.554688,-0.261719 0.738281,-0.484375 0.06641,0.464844 0.164063,0.925781 0.289063,1.375 0.230469,0.796875 -0.230469,1.625 -1.027344,1.851562 -0.136719,0.03906 -0.277343,0.05859 -0.414062,0.05859 m 2.59375,-11.453125 c -0.234375,-0.0078 -0.46875,-0.02344 -0.703125,-0.04687 0.01953,-0.04297 0.03906,-0.08594 0.05859,-0.128906 0.04297,0.05078 0.08594,0.09766 0.128906,0.144531 0.105468,-0.0039 0.210937,-0.0039 0.316406,-0.0039 0.07813,0 0.15625,0 0.234375,0.0039 l 0.01172,0.0039 0.363281,-0.222657 -0.410156,0.25"
       id="path18"
       inkscape:connector-curvature="0" />
    <path
       style="fill:#383f4f;fill-opacity:1;fill-rule:nonzero;stroke:none"
       d="m 31.996094,32.585938 c -0.101563,0 -0.199219,-0.0039 -0.296875,-0.0039 l 0.410156,-0.25 0.324219,0.242188 c -0.144532,0.0078 -0.292969,0.01172 -0.4375,0.01172"
       id="path20"
       inkscape:connector-curvature="0" />
    <path
       style="fill:#383f4f;fill-opacity:1;fill-rule:nonzero;stroke:none"
       d="m 30.253906,37.960938 c -0.0625,-0.453126 -0.09375,-0.914063 -0.09375,-1.375 0,-0.0039 0,-0.0078 0,-0.01172 0,-0.375 0.01953,-0.746094 0.0625,-1.109375 0.222656,0.03125 0.449219,0.05469 0.675782,0.07422 -0.3125,0.765626 -0.53125,1.578126 -0.644532,2.421876"
       id="path22"
       inkscape:connector-curvature="0" />
    <path
       style="fill:#a33d47;fill-opacity:1;fill-rule:nonzero;stroke:none"
       d="m 30.898438,35.539062 c -0.226563,-0.01953 -0.453126,-0.04297 -0.675782,-0.07422 0.113282,-1.03125 0.378906,-2.015625 0.773438,-2.929688 0.234375,0.02344 0.46875,0.03906 0.703125,0.04687 0.09766,0 0.195312,0.0039 0.296875,0.0039 0.144531,0 0.292968,-0.0039 0.4375,-0.01172 l 0.1875,0.140625 c -0.71875,0.835937 -1.304688,1.789062 -1.722656,2.824218"
       id="path24"
       inkscape:connector-curvature="0" />
    <path
       style="fill:#3f4a5e;fill-opacity:1;fill-rule:nonzero;stroke:none"
       d="m 40.332031,52.5 c -1.800781,0 -3.546875,-0.355469 -5.191406,-1.0625 -0.761719,-0.328125 -1.113281,-1.207031 -0.785156,-1.96875 0.152343,-0.363281 0.4375,-0.632812 0.769531,-0.78125 0.0078,0 0.01172,0.0039 0.01563,0.0039 1.59375,0.683594 3.351563,1.0625 5.1875,1.0625 0,0 0,0 0.0039,0 6.808594,0 12.410157,-5.167968 13.097657,-11.796875 0.04687,0.453125 0.07031,0.910157 0.07031,1.375 C 53.5,46.59375 47.59375,52.5 40.332031,52.5 M 50.40625,37.960938 c -0.589844,-4.371094 -3.964844,-7.867188 -8.277344,-8.640626 -0.08203,-0.148437 -0.191406,-0.285156 -0.328125,-0.402343 -0.28125,-0.246094 -0.632812,-0.367188 -0.980469,-0.367188 -0.421874,0 -0.839843,0.175781 -1.136718,0.519531 -0.03125,0.03906 -0.06641,0.07813 -0.101563,0.117188 -1.554687,0.113281 -3.007812,0.582031 -4.289062,1.316406 -0.355469,-0.679687 -0.765625,-1.324218 -1.230469,-1.925781 1.726562,-1.355469 3.898438,-2.164063 6.269531,-2.164063 2.8125,0 5.34375,1.136719 7.191407,2.980469 1.839843,1.84375 2.976562,4.378907 2.976562,7.191407 0,0.464843 -0.03125,0.925781 -0.09375,1.375 m -18.296875,-5.628907 0.574219,-0.34375 -0.574219,0.34375"
       id="path26"
       inkscape:connector-curvature="0" />
    <path
       style="fill:#383f4f;fill-opacity:1;fill-rule:nonzero;stroke:none"
       d="m 32.433594,32.574219 -0.324219,-0.242188 0.574219,-0.34375 c 0.07031,0.144531 0.140625,0.285157 0.203125,0.429688 -0.04297,0.04687 -0.08203,0.09375 -0.125,0.136719 -0.109375,0.0078 -0.21875,0.01562 -0.328125,0.01953"
       id="path28"
       inkscape:connector-curvature="0" />
    <path
       style="fill:#61a38c;fill-opacity:1;fill-rule:nonzero;stroke:none"
       d="m 32.886719,32.417969 c -0.0625,-0.144531 -0.132813,-0.285157 -0.203125,-0.429688 l 1.304687,-0.78125 C 33.605469,30.714844 33.1875,30.253906 32.738281,29.820312 32.867188,29.675781 33,29.53125 33.140625,29.394531 c 0.289063,-0.292969 0.597656,-0.5625 0.921875,-0.816406 0.464844,0.601563 0.875,1.246094 1.230469,1.925781 -0.894531,0.515625 -1.707031,1.160156 -2.40625,1.914063"
       id="path30"
       inkscape:connector-curvature="0" />
    <path
       style="fill:#a33d47;fill-opacity:1;fill-rule:nonzero;stroke:none"
       d="m 32.621094,32.714844 -0.1875,-0.140625 c 0.109375,-0.0039 0.21875,-0.01172 0.328125,-0.01953 -0.04687,0.05469 -0.09375,0.105468 -0.140625,0.160156 m 9.507812,-3.394532 c -0.582031,-0.105468 -1.183594,-0.160156 -1.796875,-0.160156 -0.253906,0 -0.503906,0.0078 -0.75,0.02734 0.03516,-0.03906 0.07031,-0.07813 0.101563,-0.117188 0.296875,-0.34375 0.714844,-0.519531 1.136718,-0.519531 0.347657,0 0.699219,0.121094 0.980469,0.367188 0.136719,0.117187 0.246094,0.253906 0.328125,0.402343"
       id="path32"
       inkscape:connector-curvature="0" />
    <path
       style="fill:#7db5d7;fill-opacity:1;fill-rule:nonzero;stroke:none"
       d="M 30.160156,36.585938 C 30.160156,35.167969 29.433594,33.285156 30,32 c -0.925781,-0.375 -0.804688,-0.28125 -1.710938,-0.699219 -0.726562,1.660157 -1.128906,3.460938 -1.128906,5.285157 0,1.230468 0.171875,2.445312 0.503906,3.617187 0.1875,0.65625 0.789063,1.085937 1.441407,1.085937 0.136719,0 0.273437,-0.01562 0.414062,-0.05859 0.796875,-0.226563 1.257813,-1.054688 1.027344,-1.851563 -0.253906,-0.902344 -0.386719,-1.84375 -0.386719,-2.792968"
       id="path34"
       inkscape:connector-curvature="0" />
    <path
       style="fill:#7db5d7;fill-opacity:1;fill-rule:nonzero;stroke:none"
       d="m 30.546875,39.378906 c -0.25,-0.886718 -0.386719,-1.824218 -0.386719,-2.792968 0,-2.8125 1.136719,-5.347657 2.980469,-7.191407 1.84375,-1.84375 4.375,-2.980469 7.191406,-2.980469 2.8125,0 5.34375,1.136719 7.191407,2.980469 1.839843,1.84375 2.976562,4.378907 2.976562,7.191407 0,2.8125 -1.136719,5.34375 -2.976562,7.191406 -1.847657,1.839844 -4.378907,2.976562 -7.191407,2.976562 -1.429687,0 -2.78125,-0.289062 -4.007812,-0.820312 -0.761719,-0.324219 -1.644531,0.02734 -1.96875,0.789062 -0.328125,0.761719 0.02344,1.644532 0.785156,1.96875 1.59375,0.683594 3.351563,1.0625 5.191406,1.0625 7.273438,0 13.167969,-5.894531 13.167969,-13.167968 0,-7.273438 -5.894531,-13.167969 -13.167969,-13.171876 -7.277343,0.0039 -13.171875,5.898438 -13.171875,13.171876 0,1.25 0.175782,2.464843 0.503906,3.617187 0.226563,0.792969 1.054688,1.257813 1.855469,1.03125 0.792969,-0.226563 1.257813,-1.058594 1.027344,-1.855469"
       id="path36"
       inkscape:connector-curvature="0" />
    <path
       style="fill:#3f4a5e;fill-opacity:1;fill-rule:nonzero;stroke:none"
       d="m 28.652344,30.496094 c -0.824219,-0.46875 -1.722656,-0.832032 -2.683594,-1.058594 -0.804688,-0.195312 -1.304688,-1.003906 -1.113281,-1.808594 0.113281,-0.472656 0.441406,-0.84375 0.855469,-1.027344 0.08203,0.03906 0.167968,0.06641 0.257812,0.08984 1.445312,0.34375 2.773438,0.996094 3.90625,1.886719 -0.460938,0.597656 -0.871094,1.242187 -1.222656,1.917969"
       id="path38"
       inkscape:connector-curvature="0" />
    <path
       style="fill:#61a38c;fill-opacity:1;fill-rule:nonzero;stroke:none"
       d="m 29.875,28.578125 c -1.132812,-0.890625 -2.460938,-1.542969 -3.90625,-1.886719 -0.08984,-0.02344 -0.175781,-0.05078 -0.257812,-0.08984 0.1875,-0.08203 0.390624,-0.125 0.601562,-0.125 0.117188,0 0.234375,0.01172 0.351562,0.03906 1.324219,0.316406 2.558594,0.820313 3.679688,1.484375 -0.164062,0.1875 -0.316406,0.378906 -0.46875,0.578125"
       id="path40"
       inkscape:connector-curvature="0" />
    <path
       style="fill:#383f4f;fill-opacity:1;fill-rule:nonzero;stroke:none"
       d="m 31.746094,32.554688 -0.01172,-0.0039 c -0.07813,-0.0039 -0.15625,-0.0039 -0.234375,-0.0039 -0.105469,0 -0.210938,0 -0.316406,0.0039 -0.04297,-0.04687 -0.08594,-0.09375 -0.128906,-0.144531 0.09766,-0.214844 0.203124,-0.425781 0.3125,-0.628906 l 0.742187,0.554687 -0.363281,0.222657"
       id="path42"
       inkscape:connector-curvature="0" />
    <path
       style="fill:#383f4f;fill-opacity:1;fill-rule:nonzero;stroke:none"
       d="M 32.109375,32.332031 31.367188,31.777344 C 31.550781,31.4375 31.75,31.109375 31.96875,30.792969 c 0.265625,0.382812 0.503906,0.78125 0.714844,1.195312 l -0.574219,0.34375"
       id="path44"
       inkscape:connector-curvature="0" />
    <path
       style="fill:#518575;fill-opacity:1;fill-rule:nonzero;stroke:none"
       d="m 32.683594,31.988281 c -0.210938,-0.414062 -0.449219,-0.8125 -0.714844,-1.195312 0.238281,-0.339844 0.492188,-0.664063 0.769531,-0.972657 0.449219,0.433594 0.867188,0.894532 1.25,1.386719 l -1.304687,0.78125"
       id="path46"
       inkscape:connector-curvature="0" />
    <path
       style="fill:#6391b0;fill-opacity:1;fill-rule:nonzero;stroke:none"
       d="M 31.054688,32.40625 C 30.359375,31.660156 29.550781,31.011719 28.652344,30.496094 29.003906,29.820312 29.414062,29.175781 29.875,28.578125 30.027344,28.378906 30.179688,28.1875 30.34375,28 c 0.871094,0.515625 1.671875,1.128906 2.394531,1.820312 -0.277343,0.308594 -0.53125,0.632813 -0.769531,0.972657 -0.21875,0.316406 -0.417969,0.644531 -0.601562,0.984375 -0.109376,0.203125 -0.214844,0.414062 -0.3125,0.628906"
       id="path48"
       inkscape:connector-curvature="0" />
    <path
       style="fill:#75caa8;fill-opacity:1;fill-rule:nonzero;stroke:none"
       d="m 25.96875,26.691406 c 3.183594,0.757813 5.699219,2.941406 6.949219,5.78125 0.371093,-0.355468 0.761719,-0.714844 1.257812,-0.878906 0.480469,-0.160156 0.972657,-0.269531 1.460938,-0.394531 -1.625,-3.652344 -4.871094,-6.453125 -8.972657,-7.425781 -0.804687,-0.195313 -1.613281,0.304687 -1.808593,1.109374 -0.191407,0.808594 0.308593,1.617188 1.113281,1.808594"
       id="path50"
       inkscape:connector-curvature="0" />
  </g>
</svg>
