<?xml version="1.0" encoding="UTF-8" standalone="no"?>
<svg
   xmlns:dc="http://purl.org/dc/elements/1.1/"
   xmlns:cc="http://creativecommons.org/ns#"
   xmlns:rdf="http://www.w3.org/1999/02/22-rdf-syntax-ns#"
   xmlns:svg="http://www.w3.org/2000/svg"
   xmlns="http://www.w3.org/2000/svg"
   xmlns:sodipodi="http://sodipodi.sourceforge.net/DTD/sodipodi-0.dtd"
   xmlns:inkscape="http://www.inkscape.org/namespaces/inkscape"
   width="255.78906pt"
   height="282.92188pt"
   viewBox="0 0 255.78906 282.92188"
   version="1.2"
   id="svg2633"
   sodipodi:docname="42.eps"
   inkscape:version="0.92.3 (2405546, 2018-03-11)">
  <metadata
     id="metadata2637">
    <rdf:RDF>
      <cc:Work
         rdf:about="">
        <dc:format>image/svg+xml</dc:format>
        <dc:type
           rdf:resource="http://purl.org/dc/dcmitype/StillImage" />
        <dc:title></dc:title>
      </cc:Work>
    </rdf:RDF>
  </metadata>
  <sodipodi:namedview
     pagecolor="#ffffff"
     bordercolor="#666666"
     borderopacity="1"
     objecttolerance="10"
     gridtolerance="10"
     guidetolerance="10"
     inkscape:pageopacity="0"
     inkscape:pageshadow="2"
     inkscape:window-width="1920"
     inkscape:window-height="1016"
     id="namedview2635"
     showgrid="false"
     inkscape:zoom="0.19"
     inkscape:cx="-1149.8692"
     inkscape:cy="1009.8552"
     inkscape:window-x="0"
     inkscape:window-y="0"
     inkscape:window-maximized="1"
     inkscape:current-layer="surface445" />
  <defs
     id="defs14">
    <clipPath
       id="clip1">
      <path
         d="m 4633,2664 h 1 v 1 h -1 z m 0,0"
         id="path2"
         inkscape:connector-curvature="0" />
    </clipPath>
    <clipPath
       id="clip2">
      <path
         d="m 4633.3906,2664.7109 h -0.1914 l 0.1211,-0.07 c 0.031,0.02 0.051,0.039 0.07,0.07"
         id="path5"
         inkscape:connector-curvature="0" />
    </clipPath>
    <clipPath
       id="clip3">
      <path
         d="m 2137,4078 h 114 v 5 h -114 z m 0,0"
         id="path8"
         inkscape:connector-curvature="0" />
    </clipPath>
    <clipPath
       id="clip4">
      <path
         d="m 2137.0391,4082.1289 c 1.5703,-1.7695 3.8007,-3.2187 7,-3.6289 l 106.2226,-0.039 -0.051,0.078 h -105.2617 c -3.0195,0 -5.8203,1.3593 -7.9101,3.5898"
         id="path11"
         inkscape:connector-curvature="0" />
    </clipPath>
  </defs>
  <g
     id="surface445"
     transform="translate(-3578.6562,-4037.5195)">
    <path
       style="fill:#232626;fill-opacity:1;fill-rule:nonzero;stroke:none"
       d="m 3657.7695,4062.1484 c 0,13.6133 -11.0429,24.6407 -24.6406,24.6407 -13.6211,0 -24.6406,-11.0274 -24.6406,-24.6407 0,-13.5976 11.0195,-24.6289 24.6406,-24.6289 13.5977,0 24.6406,11.0313 24.6406,24.6289"
       id="path1846"
       inkscape:connector-curvature="0" />
    <path
       style="fill:#232626;fill-opacity:1;fill-rule:nonzero;stroke:none"
       d="m 3659.5742,4204.5078 h -52.8789 c -1.9101,0 -3.4609,-1.5586 -3.4609,-3.4687 v -107.1602 c 0,-1.8984 1.5508,-3.4609 3.4609,-3.4609 h 52.8789 c 1.9102,0 3.461,1.5625 3.461,3.4609 v 107.1602 c 0,1.9101 -1.5508,3.4687 -3.461,3.4687"
       id="path1848"
       inkscape:connector-curvature="0" />
    <path
       style="fill:#232626;fill-opacity:1;fill-rule:nonzero;stroke:none"
       d="m 3616.7773,4320.4414 c -7.4375,0 -13.539,-6.0898 -13.539,-13.5391 v -109.7812 c 0,-7.4492 6.1015,-13.5391 13.539,-13.5391 7.4415,0 13.543,6.0899 13.543,13.5391 v 109.7812 c 0,7.4493 -6.1015,13.5391 -13.543,13.5391"
       id="path1850"
       inkscape:connector-curvature="0" />
    <path
       style="fill:#232626;fill-opacity:1;fill-rule:nonzero;stroke:none"
       d="m 3649.5039,4320.418 c -7.4609,0 -13.5508,-6.0899 -13.5508,-13.5391 v -109.7812 c 0,-7.4493 6.0899,-13.5391 13.5508,-13.5391 7.4414,0 13.5313,6.0898 13.5313,13.5391 v 109.7812 c 0,7.4492 -6.0899,13.5391 -13.5313,13.5391"
       id="path1852"
       inkscape:connector-curvature="0" />
    <path
       style="fill:#232626;fill-opacity:1;fill-rule:nonzero;stroke:none"
       d="m 3589.1484,4203.2812 c -5.7656,0 -10.4921,-4.7304 -10.4921,-10.5117 v -72.6093 c 0,-5.7813 4.7265,-10.5118 10.4921,-10.5118 5.7852,0 10.5118,4.7305 10.5118,10.5118 v 72.6093 c 0,5.7813 -4.7266,10.5117 -10.5118,10.5117"
       id="path1854"
       inkscape:connector-curvature="0" />
    <path
       style="fill:#232626;fill-opacity:1;fill-rule:nonzero;stroke:none"
       d="m 3596.4219,4126.6992 h 12.1523 v -36.3633 c 0,0 -24.9922,-0.9179 -29.9062,27.125 v 9.2383 h 17.7539"
       id="path1856"
       inkscape:connector-curvature="0" />
    <path
       style="fill:#232626;fill-opacity:1;fill-rule:nonzero;stroke:none"
       d="m 3677.0859,4203.2773 c 5.7657,0 10.4961,-4.7265 10.4961,-10.5078 v -72.6093 c 0,-5.7813 -4.7304,-10.5118 -10.4961,-10.5118 -5.7929,0 -10.5195,4.7305 -10.5195,10.5118 v 72.6093 c 0,5.7813 4.7266,10.5078 10.5195,10.5078"
       id="path1858"
       inkscape:connector-curvature="0" />
    <path
       style="fill:#232626;fill-opacity:1;fill-rule:nonzero;stroke:none"
       d="m 3670.0117,4126.6992 h -12.2422 v -36.3594 c 0,0 25,-0.9218 29.9102,27.1211 v 9.2383 h -17.668"
       id="path1860"
       inkscape:connector-curvature="0" />
    <path
       style="fill:#f0fafd;fill-opacity:1;fill-rule:nonzero;stroke:none"
       d="m 3636.3359,4111.9375 h -6.6992 l -3.75,50.25 7.1016,7.0234 7.0781,-7.0234 -3.7305,-50.25"
       id="path1862"
       inkscape:connector-curvature="0" />
    <path
       style="fill:#f0fafd;fill-opacity:1;fill-rule:nonzero;stroke:none"
       d="m 3632.9766,4097.25 -5.8047,4.4492 2.2539,7.2891 h 7.0781 l 2.2774,-7.2891 -5.8047,-4.4492"
       id="path1864"
       inkscape:connector-curvature="0" />
    <path
       style="fill:#ca232b;fill-opacity:1;fill-rule:nonzero;stroke:none"
       d="m 3834.1641,4176.5078 c -6.6602,-22.1289 -13.1758,-44.3086 -20.043,-66.3789 -3.3164,-10.6719 -10.6563,-17.6992 -21.6211,-20.4726 -2.918,-0.7383 -6.0195,-0.6954 -9.1953,-1.0274 -4,-0.1211 -8.3281,-0.2109 -12.7266,-0.1992 h -0.023 c -4.4024,-0.012 -8.7305,0.078 -12.7266,0.1992 -3.1758,0.332 -6.2812,0.2891 -9.2226,1.0274 -10.9375,2.7734 -18.2774,9.8007 -21.5977,20.4726 -6.8906,22.0703 -13.3828,44.25 -20.039,66.3789 -0.051,0.1328 -0.1915,0.2188 -0.2852,0.332 0,1.3594 0,2.7188 0,4.0782 1.2695,4.1093 3.5547,7.1718 8.1406,7.7695 5.1524,0.6719 9.0586,-2.2773 10.8203,-8.1563 1.8594,-6.1328 3.6485,-12.2851 5.4571,-18.4335 3.6718,-12.4297 7.3398,-24.8594 11.0117,-37.3008 1.1758,-3.9571 1.1758,-3.9571 5.8086,-3.5274 l -30.2266,105.3164 h 28.3438 c 0,1.043 0,1.9102 0,2.7813 0,25.2226 0.023,50.4414 -0.023,75.6601 0,4.5625 1.25,8.3516 5.5313,10.5704 7.2187,3.7226 15.289,-0.8594 15.8086,-8.9375 0.047,-0.9024 0.023,-1.8125 0.023,-2.7188 0,-24.7617 0,-49.5312 0,-74.293 0,-0.8984 0,-1.8007 0,-2.8711 h 6.375 c 0,1.0704 0,1.9727 0,2.8711 -0.023,24.7618 -0.023,49.5313 -0.023,74.293 0,0.9063 -0.024,1.8164 0.047,2.7188 0.4922,8.0781 8.5625,12.6601 15.7813,8.9375 4.3086,-2.2188 5.5547,-6.0079 5.5312,-10.5704 -0.023,-25.2187 0,-50.4375 0,-75.6601 0,-0.8711 0,-1.7383 0,-2.7813 h 28.3438 l -30.25,-105.3164 c 4.6562,-0.4297 4.6562,-0.4297 5.8086,3.5274 3.6719,12.4414 7.3633,24.8711 11.0351,37.3008 1.7852,6.1484 3.5977,12.3007 5.4336,18.4335 1.7891,5.879 5.6914,8.8282 10.8438,8.1563 4.5625,-0.5977 6.8711,-3.6602 8.1406,-7.7695 0,-1.3594 0,-2.7188 0,-4.0782 -0.094,-0.1132 -0.2578,-0.1992 -0.2812,-0.332"
       id="path1866"
       inkscape:connector-curvature="0" />
    <path
       style="fill:#ca232b;fill-opacity:1;fill-rule:nonzero;stroke:none"
       d="m 3793.875,4062.6211 c 0,12.8789 -10.4531,23.3164 -23.3008,23.3164 -12.8945,0 -23.3203,-10.4375 -23.3203,-23.3164 0,-12.8711 10.4258,-23.3125 23.3203,-23.3125 12.8477,0 23.3008,10.4414 23.3008,23.3125"
       id="path1868"
       inkscape:connector-curvature="0" />
  </g>
</svg>
