<?xml version="1.0" encoding="UTF-8" standalone="no"?>
<svg
   xmlns:dc="http://purl.org/dc/elements/1.1/"
   xmlns:cc="http://creativecommons.org/ns#"
   xmlns:rdf="http://www.w3.org/1999/02/22-rdf-syntax-ns#"
   xmlns:svg="http://www.w3.org/2000/svg"
   xmlns="http://www.w3.org/2000/svg"
   xmlns:sodipodi="http://sodipodi.sourceforge.net/DTD/sodipodi-0.dtd"
   xmlns:inkscape="http://www.inkscape.org/namespaces/inkscape"
   width="286.84738pt"
   height="245.47304pt"
   viewBox="0 0 286.84738 245.47304"
   version="1.2"
   id="svg2633"
   sodipodi:docname="42.eps"
   inkscape:version="0.92.3 (2405546, 2018-03-11)">
  <metadata
     id="metadata2637">
    <rdf:RDF>
      <cc:Work
         rdf:about="">
        <dc:format>image/svg+xml</dc:format>
        <dc:type
           rdf:resource="http://purl.org/dc/dcmitype/StillImage" />
        <dc:title></dc:title>
      </cc:Work>
    </rdf:RDF>
  </metadata>
  <sodipodi:namedview
     pagecolor="#ffffff"
     bordercolor="#666666"
     borderopacity="1"
     objecttolerance="10"
     gridtolerance="10"
     guidetolerance="10"
     inkscape:pageopacity="0"
     inkscape:pageshadow="2"
     inkscape:window-width="1920"
     inkscape:window-height="1016"
     id="namedview2635"
     showgrid="false"
     inkscape:zoom="0.19"
     inkscape:cx="-2292.5657"
     inkscape:cy="-1578.2286"
     inkscape:window-x="0"
     inkscape:window-y="0"
     inkscape:window-maximized="1"
     inkscape:current-layer="surface445" />
  <defs
     id="defs14">
    <clipPath
       id="clip1">
      <path
         d="m 4633,2664 h 1 v 1 h -1 z m 0,0"
         id="path2"
         inkscape:connector-curvature="0" />
    </clipPath>
    <clipPath
       id="clip2">
      <path
         d="m 4633.3906,2664.7109 h -0.1914 l 0.1211,-0.07 c 0.031,0.02 0.051,0.039 0.07,0.07"
         id="path5"
         inkscape:connector-curvature="0" />
    </clipPath>
    <clipPath
       id="clip3">
      <path
         d="m 2137,4078 h 114 v 5 h -114 z m 0,0"
         id="path8"
         inkscape:connector-curvature="0" />
    </clipPath>
    <clipPath
       id="clip4">
      <path
         d="m 2137.0391,4082.1289 c 1.5703,-1.7695 3.8007,-3.2187 7,-3.6289 l 106.2226,-0.039 -0.051,0.078 h -105.2617 c -3.0195,0 -5.8203,1.3593 -7.9101,3.5898"
         id="path11"
         inkscape:connector-curvature="0" />
    </clipPath>
  </defs>
  <g
     id="surface445"
     transform="translate(-3078.5486,-2159.1441)">
    <path
       style="fill:#e61928;fill-opacity:1;fill-rule:nonzero;stroke:none"
       d="m 3330.5156,2302.9102 c -2.2929,2.9765 -4.6875,5.9296 -7.125,8.8828 -33.9179,40.9375 -79.4609,79.2539 -101.3984,92.8242 -26.9961,-16.7109 -89.7227,-70.8281 -122.5664,-121.2461 -1.8164,-2.7891 -3.5313,-5.5547 -5.1406,-8.3242 -10.4102,-17.6992 -16.6094,-34.6367 -15.6368,-48.9727 3.4922,-52.2969 47.6094,-63.9062 47.6094,-63.9062 56.5938,-14.6016 95.7344,28.4218 95.7344,28.4218 0,0 39.0586,-43.0234 95.6562,-28.4218 0,0 44.1602,11.6093 47.6485,63.9062 1.4687,21.7696 -13.5469,49.5313 -34.7813,76.836"
       id="path1006"
       inkscape:connector-curvature="0" />
    <path
       style="fill:#f0fafd;fill-opacity:1;fill-rule:nonzero;stroke:none"
       d="m 3330.5156,2302.918 c -2.3125,2.9609 -4.7031,5.9453 -7.1328,8.8867 l -77.2344,-2.2266 c -1.5937,-0.039 -1.9414,-0.062 -2.5156,-0.1836 -1.5703,-0.3281 -6.7422,-0.3476 -10.0937,-8.6445 l -3.043,-8.5195 c 0,0 -0.8164,-2.2657 -1.7578,1.0234 -0.9375,3.2695 -9.3164,21.9024 -9.3164,21.9024 0,0 -3.3321,7.8671 -6.9063,1.207 l -8.6445,-56.1289 c 0,0 -0.8164,-1.2696 -0.7734,0.9179 0.02,2.168 -8.3594,98.0157 -8.3594,98.0157 0,0 -2.9414,13.3008 -7.1914,1.4101 l -9.3789,-63.7304 c 0,0 -0.4688,-5.5157 -1.8594,0.1836 0,0 -5.457,18.5546 -10.8906,10.1171 0,0 -5.293,-10.2773 -8.1914,-18.4921 l -57.8047,-5.2735 c -1.8203,-2.7773 -3.5352,-5.5781 -5.1485,-8.3164 l 68.8555,6.582 5.7617,14.0157 8.7891,-23.8672 c 0.2851,-0.7149 0.8984,-1.4883 1.6719,-1.5703 0.7968,-0.082 2.0039,0.2031 2.7812,1.9804 0,0 1.9219,3.2071 2.8594,11.4844 0.9219,8.293 5.6406,47.9531 5.6406,47.9531 l 3.4102,-61.3593 3.8828,-40.5352 c 0.125,-1.25 0.3672,-2.4961 0.7578,-3.6992 1.4687,-4.6992 5.4961,-15.0195 9.5625,-3.2695 0.8164,2.3281 1.3281,4.7617 1.5742,7.2109 0.7969,7.7851 3.1641,30.7109 4.3281,41.7461 l 2.7618,23.9648 c 0,0 5.9257,-13.6679 7.7617,-15.7304 1.9609,-2.2071 5.375,-9.3789 12.2812,0.9804 0,0 4.8008,8.7032 8.1328,18.4492 l 85.4297,3.5157"
       id="path1008"
       inkscape:connector-curvature="0" />
    <path
       style="fill:#f0fafd;fill-opacity:1;fill-rule:nonzero;stroke:none"
       d="m 3145.9102,2173.5625 c -5.1602,-0.2891 -10.1641,0.1367 -14.9375,1.2969 -6.0079,1.4492 -11.6133,4.0156 -16.7149,7.6094 -0.5195,0.3867 -2.5312,1.8554 -3.0312,2.2617 -4.8321,3.9609 -8.7735,8.7343 -11.75,14.1445 -2.3555,4.2891 -4.0743,9.0039 -5.1563,14.0469 -0.4453,2.0664 1.0625,4.039 3.168,4.0976 1.6406,0.078 3.0703,-1.0625 3.418,-2.6679 0.059,-0.2696 0.1171,-0.5391 0.1953,-0.8321 0.019,-0.094 0.039,-0.2109 0.059,-0.3281 0.094,-0.4062 0.2109,-0.8086 0.3086,-1.1953 l 0.074,-0.2539 c 0.078,-0.3086 0.1758,-0.6172 0.2539,-0.9063 0.039,-0.1562 0.078,-0.289 0.1328,-0.4257 0.078,-0.25 0.1367,-0.4844 0.2148,-0.7149 0.059,-0.1562 0.1133,-0.3086 0.1524,-0.4648 0.078,-0.2305 0.1562,-0.4414 0.2344,-0.6563 0.059,-0.1523 0.094,-0.3086 0.1523,-0.4648 0.098,-0.211 0.1562,-0.4024 0.2344,-0.6172 0.059,-0.1524 0.1328,-0.3086 0.1914,-0.4649 0.078,-0.1914 0.1562,-0.4023 0.2344,-0.5976 0.055,-0.1524 0.1132,-0.3086 0.1914,-0.4453 0.078,-0.1914 0.1562,-0.3867 0.2304,-0.5781 0.078,-0.1563 0.1563,-0.2891 0.2149,-0.4454 0.078,-0.1914 0.1523,-0.3671 0.25,-0.5586 0.078,-0.1367 0.1367,-0.289 0.2109,-0.4257 0.098,-0.1953 0.1758,-0.3672 0.2539,-0.543 0.094,-0.1523 0.1524,-0.2891 0.2305,-0.4219 0.078,-0.1758 0.1758,-0.3476 0.2695,-0.5429 0.078,-0.1172 0.1563,-0.2696 0.2344,-0.3868 0.078,-0.1914 0.1914,-0.3476 0.2891,-0.5195 0.059,-0.1367 0.1367,-0.2734 0.2109,-0.3867 0.098,-0.1953 0.2148,-0.3477 0.3086,-0.5235 0.078,-0.1171 0.1367,-0.25 0.2344,-0.3671 0.098,-0.1719 0.2109,-0.3477 0.3281,-0.5196 0.059,-0.1172 0.1367,-0.2343 0.1914,-0.332 0.1367,-0.1914 0.2539,-0.3828 0.3867,-0.5781 l 0.1758,-0.25 c 0.1914,-0.2696 0.3672,-0.543 0.5586,-0.8125 l 0.098,-0.098 c 0.1563,-0.2305 0.3086,-0.4609 0.4844,-0.6758 0.074,-0.078 0.1328,-0.1718 0.211,-0.2695 0.1171,-0.1562 0.25,-0.3281 0.3671,-0.4844 0.078,-0.094 0.1563,-0.1914 0.25,-0.289 0.1172,-0.1524 0.2344,-0.2891 0.3477,-0.4453 0.078,-0.094 0.1758,-0.1915 0.2539,-0.2891 0.1133,-0.1367 0.2305,-0.2695 0.3477,-0.4063 0.094,-0.1132 0.1718,-0.2109 0.25,-0.3086 0.1367,-0.1171 0.2304,-0.25 0.3671,-0.3867 0.078,-0.098 0.1758,-0.1914 0.2696,-0.289 0.098,-0.1172 0.2148,-0.25 0.3281,-0.3672 0.098,-0.078 0.1953,-0.1914 0.293,-0.2891 0.094,-0.1172 0.2304,-0.2344 0.3281,-0.3281 0.094,-0.1172 0.1914,-0.1953 0.2891,-0.293 0.098,-0.1133 0.2304,-0.2304 0.3281,-0.3476 0.1172,-0.074 0.1914,-0.1719 0.289,-0.25 0.1172,-0.1172 0.2305,-0.2305 0.3477,-0.3477 0.098,-0.078 0.1758,-0.1523 0.2695,-0.25 0.1172,-0.098 0.2344,-0.1953 0.3672,-0.3086 0.078,-0.078 0.1758,-0.1562 0.2735,-0.2344 0.1132,-0.1132 0.2304,-0.2109 0.3476,-0.3281 l 0.2695,-0.2109 c 0.1172,-0.1172 0.25,-0.2149 0.3868,-0.3086 l 0.2304,-0.2149 c 0.1368,-0.1132 0.2891,-0.2304 0.4258,-0.3281 l 0.211,-0.1719 c 0.1367,-0.1171 0.2929,-0.2343 0.4453,-0.3281 l 1.4101,-1.0078 c 0.1367,-0.074 0.2735,-0.1719 0.4063,-0.2695 0.078,-0.059 0.1953,-0.1367 0.289,-0.1914 0.1368,-0.098 0.2539,-0.1758 0.3868,-0.2735 0.098,-0.055 0.2148,-0.1328 0.3085,-0.1914 0.1368,-0.098 0.254,-0.1758 0.4063,-0.2695 0.098,-0.059 0.2148,-0.1172 0.3086,-0.1953 0.1367,-0.078 0.2734,-0.1524 0.4062,-0.25 0.1172,-0.059 0.2344,-0.1367 0.3477,-0.1953 0.1172,-0.074 0.2734,-0.1719 0.4062,-0.25 0.1172,-0.059 0.2344,-0.1172 0.3282,-0.1914 0.1562,-0.078 0.2929,-0.1563 0.4453,-0.2344 0.1172,-0.074 0.2305,-0.1328 0.3476,-0.1914 0.1563,-0.078 0.2891,-0.1563 0.4454,-0.2344 0.1171,-0.055 0.2304,-0.1133 0.3476,-0.1914 0.1563,-0.078 0.3086,-0.1563 0.4649,-0.2305 0.1132,-0.059 0.2304,-0.1172 0.3671,-0.1758 0.1524,-0.078 0.3086,-0.1523 0.461,-0.2304 0.1367,-0.059 0.2539,-0.098 0.3672,-0.1563 0.1757,-0.078 0.3476,-0.1523 0.5039,-0.2304 0.1172,-0.059 0.2304,-0.1172 0.3672,-0.1563 0.1718,-0.074 0.3671,-0.1523 0.5586,-0.25 0.098,-0.039 0.1953,-0.078 0.3125,-0.1172 0.25,-0.094 0.5195,-0.2109 0.7695,-0.3086 l 0.1367,-0.039 c 0.2891,-0.1133 0.5977,-0.2305 0.9102,-0.3282 0.1132,-0.039 0.1914,-0.078 0.289,-0.1171 0.2305,-0.055 0.4414,-0.1329 0.6758,-0.211 0.1172,-0.039 0.2305,-0.078 0.3672,-0.1172 0.1719,-0.055 0.3867,-0.1133 0.5781,-0.1718 0.1367,-0.039 0.2695,-0.078 0.4063,-0.1172 0.1953,-0.059 0.3867,-0.1133 0.5781,-0.1719 0.1562,-0.039 0.293,-0.078 0.4453,-0.098 0.1953,-0.059 0.3867,-0.098 0.582,-0.1562 0.1328,-0.039 0.2891,-0.074 0.4414,-0.094 0.1954,-0.059 0.3868,-0.098 0.5821,-0.1367 0.1523,-0.039 0.3086,-0.078 0.4648,-0.098 0.1914,-0.039 0.4024,-0.074 0.5781,-0.1133 0.1719,-0.039 0.3282,-0.059 0.4844,-0.078 0.211,-0.039 0.4024,-0.078 0.5977,-0.1172 0.1718,-0.02 0.3281,-0.059 0.5039,-0.078 0.1914,-0.019 0.3828,-0.055 0.5976,-0.074 0.1524,-0.019 0.3282,-0.039 0.5,-0.078 0.1953,-0.019 0.4063,-0.059 0.6211,-0.078 0.1719,-0.02 0.3477,-0.039 0.5,-0.039 0.2149,-0.02 0.4453,-0.039 0.6602,-0.059 0.1523,-0.019 0.3281,-0.039 0.5,-0.039 0.2148,-0.02 0.4453,-0.039 0.6758,-0.039 0.1757,-0.016 0.3281,-0.016 0.4843,-0.035 0.25,-0.019 0.5039,-0.019 0.7539,-0.039 0.1524,0 0.2891,0 0.4454,0 0.3086,-0.02 0.6367,-0.02 0.9453,-0.02 h 0.2695 c 0.4063,0 0.8125,0.02 1.2383,0.02 0.1172,0 0.2305,0.019 0.3476,0.019 0.2696,0.019 0.5586,0.039 0.8516,0.039 1.6211,0.094 3.0898,-1.0078 3.457,-2.5899 0.4844,-2.0703 -1.0234,-4.039 -3.1093,-4.1367"
       id="path1010"
       inkscape:connector-curvature="0" />
  </g>
</svg>
