<?xml version="1.0" encoding="UTF-8" standalone="no"?>
<svg
   xmlns:dc="http://purl.org/dc/elements/1.1/"
   xmlns:cc="http://creativecommons.org/ns#"
   xmlns:rdf="http://www.w3.org/1999/02/22-rdf-syntax-ns#"
   xmlns:svg="http://www.w3.org/2000/svg"
   xmlns="http://www.w3.org/2000/svg"
   xmlns:sodipodi="http://sodipodi.sourceforge.net/DTD/sodipodi-0.dtd"
   xmlns:inkscape="http://www.inkscape.org/namespaces/inkscape"
   width="302.17819pt"
   height="247.52344pt"
   viewBox="0 0 302.17819 247.52344"
   version="1.2"
   id="svg2633"
   sodipodi:docname="42.eps"
   inkscape:version="0.92.3 (2405546, 2018-03-11)">
  <metadata
     id="metadata2637">
    <rdf:RDF>
      <cc:Work
         rdf:about="">
        <dc:format>image/svg+xml</dc:format>
        <dc:type
           rdf:resource="http://purl.org/dc/dcmitype/StillImage" />
        <dc:title></dc:title>
      </cc:Work>
    </rdf:RDF>
  </metadata>
  <sodipodi:namedview
     pagecolor="#ffffff"
     bordercolor="#666666"
     borderopacity="1"
     objecttolerance="10"
     gridtolerance="10"
     guidetolerance="10"
     inkscape:pageopacity="0"
     inkscape:pageshadow="2"
     inkscape:window-width="1920"
     inkscape:window-height="1016"
     id="namedview2635"
     showgrid="false"
     inkscape:zoom="0.19"
     inkscape:cx="-1004.613"
     inkscape:cy="-1103.7655"
     inkscape:window-x="0"
     inkscape:window-y="0"
     inkscape:window-maximized="1"
     inkscape:current-layer="surface445" />
  <defs
     id="defs14">
    <clipPath
       id="clip1">
      <path
         d="m 4633,2664 h 1 v 1 h -1 z m 0,0"
         id="path2"
         inkscape:connector-curvature="0" />
    </clipPath>
    <clipPath
       id="clip2">
      <path
         d="m 4633.3906,2664.7109 h -0.1914 l 0.1211,-0.07 c 0.031,0.02 0.051,0.039 0.07,0.07"
         id="path5"
         inkscape:connector-curvature="0" />
    </clipPath>
    <clipPath
       id="clip3">
      <path
         d="m 2137,4078 h 114 v 5 h -114 z m 0,0"
         id="path8"
         inkscape:connector-curvature="0" />
    </clipPath>
    <clipPath
       id="clip4">
      <path
         d="m 2137.0391,4082.1289 c 1.5703,-1.7695 3.8007,-3.2187 7,-3.6289 l 106.2226,-0.039 -0.051,0.078 h -105.2617 c -3.0195,0 -5.8203,1.3593 -7.9101,3.5898"
         id="path11"
         inkscape:connector-curvature="0" />
    </clipPath>
  </defs>
  <g
     id="surface445"
     transform="translate(-2106.8225,-1153.6719)">
    <path
       style="fill:#f8ae30;fill-opacity:1;fill-rule:nonzero;stroke:none"
       d="m 2404.5195,1259.9531 c -4.7422,0 -43.5586,-0.023 -43.5586,-0.023 l -0.1406,141.0625 H 2154.957 l -0.1289,-141.0625 c 0,0 -38.8086,0 -43.5586,0 -4.75,0 -5.8906,-1.8867 -2.4687,-4.2461 l 4.9062,-3.3516 144.2422,-98.6601 144.1875,98.6836 4.8867,3.3515 c 3.4219,2.336 2.2657,4.2461 -2.5039,4.2461"
       id="path494"
       inkscape:connector-curvature="0" />
    <path
       style="fill:#19284c;fill-opacity:1;fill-rule:nonzero;stroke:none"
       d="m 2404.5352,1259.9688 c -0.4727,0 -1.2969,0 -2.4063,0 l -144.1797,-98.6563 -144.2383,98.6797 h -2.4414 c -4.75,0 -5.8867,-1.9336 -2.4687,-4.2695 l 149.1484,-102.0352 149.086,102.0117 c 3.4218,2.3594 2.2421,4.2696 -2.5,4.2696"
       id="path496"
       inkscape:connector-curvature="0" />
    <path
       style="fill:#19284c;fill-opacity:1;fill-rule:nonzero;stroke:none"
       d="m 2223.8398,1312.7227 h -52.039 v -41.1016 h 52.039 v 41.1016"
       id="path498"
       inkscape:connector-curvature="0" />
    <path
       style="fill:#19284c;fill-opacity:1;fill-rule:nonzero;stroke:none"
       d="m 2345.3359,1312.7227 h -52.039 v -41.1016 h 52.039 v 41.1016"
       id="path500"
       inkscape:connector-curvature="0" />
    <path
       style="fill:#19284c;fill-opacity:1;fill-rule:nonzero;stroke:none"
       d="m 2281.1758,1401.1953 h -46.5235 v -66.8359 h 46.5235 v 66.8359"
       id="path502"
       inkscape:connector-curvature="0" />
    <path
       style="fill:#19284c;fill-opacity:1;fill-rule:nonzero;stroke:none"
       d="m 2338.0625,1226.6289 h -42.0703 v -54.9101 h 42.0703 v 54.9101"
       id="path504"
       inkscape:connector-curvature="0" />
  </g>
</svg>
