<?xml version="1.0" encoding="UTF-8" standalone="no"?>
<svg
   xmlns:dc="http://purl.org/dc/elements/1.1/"
   xmlns:cc="http://creativecommons.org/ns#"
   xmlns:rdf="http://www.w3.org/1999/02/22-rdf-syntax-ns#"
   xmlns:svg="http://www.w3.org/2000/svg"
   xmlns="http://www.w3.org/2000/svg"
   xmlns:sodipodi="http://sodipodi.sourceforge.net/DTD/sodipodi-0.dtd"
   xmlns:inkscape="http://www.inkscape.org/namespaces/inkscape"
   width="255.77344pt"
   height="207.80469pt"
   viewBox="0 0 255.77344 207.80469"
   version="1.2"
   id="svg2633"
   sodipodi:docname="42.eps"
   inkscape:version="0.92.3 (2405546, 2018-03-11)">
  <metadata
     id="metadata2637">
    <rdf:RDF>
      <cc:Work
         rdf:about="">
        <dc:format>image/svg+xml</dc:format>
        <dc:type
           rdf:resource="http://purl.org/dc/dcmitype/StillImage" />
        <dc:title></dc:title>
      </cc:Work>
    </rdf:RDF>
  </metadata>
  <sodipodi:namedview
     pagecolor="#ffffff"
     bordercolor="#666666"
     borderopacity="1"
     objecttolerance="10"
     gridtolerance="10"
     guidetolerance="10"
     inkscape:pageopacity="0"
     inkscape:pageshadow="2"
     inkscape:window-width="1920"
     inkscape:window-height="1016"
     id="namedview2635"
     showgrid="false"
     inkscape:zoom="0.19"
     inkscape:cx="-454.10229"
     inkscape:cy="-286.88529"
     inkscape:window-x="0"
     inkscape:window-y="0"
     inkscape:window-maximized="1"
     inkscape:current-layer="surface445" />
  <defs
     id="defs14">
    <clipPath
       id="clip1">
      <path
         d="m 4633,2664 h 1 v 1 h -1 z m 0,0"
         id="path2"
         inkscape:connector-curvature="0" />
    </clipPath>
    <clipPath
       id="clip2">
      <path
         d="m 4633.3906,2664.7109 h -0.1914 l 0.1211,-0.07 c 0.031,0.02 0.051,0.039 0.07,0.07"
         id="path5"
         inkscape:connector-curvature="0" />
    </clipPath>
    <clipPath
       id="clip3">
      <path
         d="m 2137,4078 h 114 v 5 h -114 z m 0,0"
         id="path8"
         inkscape:connector-curvature="0" />
    </clipPath>
    <clipPath
       id="clip4">
      <path
         d="m 2137.0391,4082.1289 c 1.5703,-1.7695 3.8007,-3.2187 7,-3.6289 l 106.2226,-0.039 -0.051,0.078 h -105.2617 c -3.0195,0 -5.8203,1.3593 -7.9101,3.5898"
         id="path11"
         inkscape:connector-curvature="0" />
    </clipPath>
  </defs>
  <g
     id="surface445"
     transform="translate(-196.51953,-2629.0039)">
    <path
       style="fill:#2e354a;fill-opacity:1;fill-rule:nonzero;stroke:none"
       d="M 426.96484,2836.8086 H 222.54297 c -11.40625,0 -20.65235,-9.2539 -20.65235,-20.6445 v -133.9844 c 0,-11.4024 9.2461,-20.6445 20.65235,-20.6445 h 204.42187 c 11.40625,0 20.65235,9.2421 20.65235,20.6445 v 133.9844 c 0,11.3906 -9.2461,20.6445 -20.65235,20.6445"
       id="path1056"
       inkscape:connector-curvature="0" />
    <path
       style="fill:#f0574f;fill-opacity:1;fill-rule:nonzero;stroke:none"
       d="m 452.29297,2749.2539 -127.88672,6.7422 -127.88672,-6.7422 v -71.8476 c 0,-11.4024 9.40625,-20.6446 21.01563,-20.6446 h 213.74218 c 11.60547,0 21.01563,9.2422 21.01563,20.6446 v 71.8476"
       id="path1058"
       inkscape:connector-curvature="0" />
    <path
       style="fill:#cccac5;fill-opacity:1;fill-rule:nonzero;stroke:none"
       d="m 197,2735.7344 v 6.5976 l 127.5,6.7227 127.5,-6.7227 v -6.5976 l -127.5,6.7226 -127.5,-6.7226"
       id="path1060"
       inkscape:connector-curvature="0" />
    <path
       style="fill:#fdfafa;fill-opacity:1;fill-rule:nonzero;stroke:none"
       d="m 330.125,2768.2578 h -10.74219 c -2.28906,0 -4.16406,-1.8672 -4.16406,-4.1562 v -35.0508 c 0,-2.2891 1.875,-4.1719 4.16406,-4.1719 H 330.125 c 2.28906,0 4.16406,1.8828 4.16406,4.1719 v 35.0508 c 0,2.289 -1.875,4.1562 -4.16406,4.1562"
       id="path1062"
       inkscape:connector-curvature="0" />
    <path
       style="fill:#304259;fill-opacity:1;fill-rule:nonzero;stroke:none"
       d="m 375.28906,2646.9141 v 22.9648 h -8.1875 l 0.0937,-16.8867 c 0,-4.1055 -2.91797,-7.457 -6.51562,-7.457 h -71.66407 c -3.59765,0 -6.51562,3.3515 -6.51562,7.457 l -0.0898,16.8867 h -8.90625 v -22.9648 c 0,-6.5899 4.66796,-11.9141 10.42187,-11.9141 h 80.94141 c 5.75781,0 10.42187,5.3242 10.42187,11.9141"
       id="path1064"
       inkscape:connector-curvature="0" />
    <path
       style="fill:#f3b317;fill-opacity:1;fill-rule:nonzero;stroke:none"
       d="m 355.85547,2641.3359 c 0,5.1211 -3.25,9.2539 -7.25781,9.2539 h -48.08594 c -4.00781,0 -7.25781,-4.1328 -7.25781,-9.2539 v -3.082 c 0,-5.1055 3.25,-9.25 7.25781,-9.25 h 48.08594 c 4.00781,0 7.25781,4.1445 7.25781,9.25 v 3.082"
       id="path1066"
       inkscape:connector-curvature="0" />
  </g>
</svg>
