<?xml version="1.0" encoding="UTF-8" standalone="no"?>
<svg
   xmlns:dc="http://purl.org/dc/elements/1.1/"
   xmlns:cc="http://creativecommons.org/ns#"
   xmlns:rdf="http://www.w3.org/1999/02/22-rdf-syntax-ns#"
   xmlns:svg="http://www.w3.org/2000/svg"
   xmlns="http://www.w3.org/2000/svg"
   xmlns:sodipodi="http://sodipodi.sourceforge.net/DTD/sodipodi-0.dtd"
   xmlns:inkscape="http://www.inkscape.org/namespaces/inkscape"
   width="287.55734pt"
   height="125.28854pt"
   viewBox="0 0 287.55734 125.28854"
   version="1.2"
   id="svg2633"
   sodipodi:docname="42.eps"
   inkscape:version="0.92.3 (2405546, 2018-03-11)">
  <metadata
     id="metadata2637">
    <rdf:RDF>
      <cc:Work
         rdf:about="">
        <dc:format>image/svg+xml</dc:format>
        <dc:type
           rdf:resource="http://purl.org/dc/dcmitype/StillImage" />
        <dc:title></dc:title>
      </cc:Work>
    </rdf:RDF>
  </metadata>
  <sodipodi:namedview
     pagecolor="#ffffff"
     bordercolor="#666666"
     borderopacity="1"
     objecttolerance="10"
     gridtolerance="10"
     guidetolerance="10"
     inkscape:pageopacity="0"
     inkscape:pageshadow="2"
     inkscape:window-width="1920"
     inkscape:window-height="1016"
     id="namedview2635"
     showgrid="false"
     inkscape:zoom="0.19"
     inkscape:cx="145.23769"
     inkscape:cy="-515.88551"
     inkscape:window-x="0"
     inkscape:window-y="0"
     inkscape:window-maximized="1"
     inkscape:current-layer="surface445" />
  <defs
     id="defs14">
    <clipPath
       id="clip1">
      <path
         d="m 4633,2664 h 1 v 1 h -1 z m 0,0"
         id="path2"
         inkscape:connector-curvature="0" />
    </clipPath>
    <clipPath
       id="clip2">
      <path
         d="m 4633.3906,2664.7109 h -0.1914 l 0.1211,-0.07 c 0.031,0.02 0.051,0.039 0.07,0.07"
         id="path5"
         inkscape:connector-curvature="0" />
    </clipPath>
    <clipPath
       id="clip3">
      <path
         d="m 2137,4078 h 114 v 5 h -114 z m 0,0"
         id="path8"
         inkscape:connector-curvature="0" />
    </clipPath>
    <clipPath
       id="clip4">
      <path
         d="m 2137.0391,4082.1289 c 1.5703,-1.7695 3.8007,-3.2187 7,-3.6289 l 106.2226,-0.039 -0.051,0.078 h -105.2617 c -3.0195,0 -5.8203,1.3593 -7.9101,3.5898"
         id="path11"
         inkscape:connector-curvature="0" />
    </clipPath>
  </defs>
  <g
     id="surface445"
     transform="translate(-185.6814,-268.52396)">
    <path
       style="fill:#353d4a;fill-opacity:1;fill-rule:nonzero;stroke:none"
       d="m 408.98047,371.51172 c 0,11.60937 11.59765,21.02344 25.90625,21.02344 14.30469,0 25.90234,-9.41407 25.90234,-21.02344 0,-11.60938 -11.59765,-21.02344 -25.90234,-21.02344 -14.3086,0 -25.90625,9.41406 -25.90625,21.02344"
       id="path20"
       inkscape:connector-curvature="0" />
    <path
       style="fill:#abd41c;fill-opacity:1;fill-rule:nonzero;stroke:none"
       d="m 418.44922,371.49609 c 0,7.375 7.35937,13.35547 16.4375,13.35547 9.07422,0 16.4375,-5.98047 16.4375,-13.35547 0,-7.34765 -7.36328,-13.32812 -16.4375,-13.32812 -9.07813,0 -16.4375,5.98047 -16.4375,13.32812"
       id="path22"
       inkscape:connector-curvature="0" />
    <path
       style="fill:#353d4a;fill-opacity:1;fill-rule:nonzero;stroke:none"
       d="m 211.48828,372.79297 c 0,11.60937 11.60156,21.01953 25.90625,21.01953 14.30469,0 25.90234,-9.41016 25.90234,-21.01953 0,-11.60547 -11.59765,-21.01563 -25.90234,-21.01563 -14.30469,0 -25.90625,9.41016 -25.90625,21.01563"
       id="path24"
       inkscape:connector-curvature="0" />
    <path
       style="fill:#abd41c;fill-opacity:1;fill-rule:nonzero;stroke:none"
       d="m 222.34766,372.80859 c 0,6.74219 6.73437,12.20703 15.04687,12.20703 8.30859,0 15.04297,-5.46484 15.04297,-12.20703 0,-6.74609 -6.73438,-12.21093 -15.04297,-12.21093 -8.3125,0 -15.04687,5.46484 -15.04687,12.21093"
       id="path26"
       inkscape:connector-curvature="0" />
    <path
       style="fill:#353d4a;fill-opacity:1;fill-rule:nonzero;stroke:none"
       d="m 449.16797,319.65625 c -17.00781,-4.09375 -48.76172,-7.49219 -52.59766,-8.19141 -0.91797,-0.14453 -1.58594,-0.78125 -1.73047,-0.92968 -2.62109,-3.10547 -27.9414,-34.35547 -33.71484,-36.5625 -20.8125,-7.89844 -106.14063,-7 -119.46094,1.33593 -12.58594,7.8711 -27.30078,32.58594 -30.78515,38.25 -0.16407,0.26172 -8.36719,4.82032 -8.71094,5.05078 -2.27735,1.59766 -13.13672,9.0625 -15.11719,18.06641 0,0 -1.90234,21.86719 -1.22266,27.53125 0.45704,3.77734 7.98047,10.60156 12.46485,11.00781 h 0.0156 l 2.81641,-0.0312 0.10937,-0.11328 c -0.043,-0.58203 -0.0664,-1.16406 -0.0664,-1.74219 0,-2.20703 0.28515,-4.35937 0.86328,-6.42187 0.42969,-1.48047 1.01562,-2.96094 1.67187,-4.35547 5.25782,-10.48437 17.96875,-17.89062 32.78125,-17.89062 12.48047,0 23.46875,5.25781 29.7461,13.1875 l 0.0117,0.0273 c 0.82422,0.72656 1.63281,1.51172 2.42968,2.35156 l 0.0234,0.0586 2.37891,11.64843 0.0156,0.0586 c 0.14844,0.17187 1.41797,1.76953 2.1875,1.27734 l 0.0391,-0.0586 c 0.0586,-0.14453 0.33203,-0.75391 0.6914,-0.58203 l 0.0469,0.0586 c 1.03906,3.54297 14.83984,5.14062 20.6289,5.14062 l 87.59375,-0.14453 c 5.375,0 11.96485,-1.04687 13.94532,-3.89062 0.35156,-0.52344 0.44921,-0.78516 0.77734,-1.25 0.14844,-0.23438 0.42969,-0.90235 0.45312,-0.92969 h 0.008 l 2.03125,-4.85156 0.0117,-0.0274 1.05468,-1.625 0.0117,-0.0312 c 0.14453,-0.40625 0.40235,-1.30859 0.56641,-1.68359 4.79297,-11.21094 18.28515,-19.46094 33.74609,-19.46094 15.37891,0 28.12891,8.19141 32.96875,19.31641 1.32031,2.98828 2.12891,6.125 1.83985,9.46484 -0.0352,0.4375 -0.21875,0.46485 -0.0195,0.37891 0.85547,-0.32031 1.94922,-25.46875 3.28125,-30.64063 2.25,-8.79687 -9.08203,-19.22656 -23.78515,-22.79687"
       id="path28"
       inkscape:connector-curvature="0" />
    <path
       style="fill:#c7e68c;fill-opacity:1;fill-rule:nonzero;stroke:none"
       d="m 233.41406,309.51953 c -2.04687,-0.43359 -1.94922,-3.47656 -1.5039,-4.08203 0,0 14.82031,-21.49219 24.42187,-23.40234 12.69531,-2.51954 29.48438,-2.78125 29.99609,-2.8086 2.32422,-0.14844 3.54297,0.40235 3.29688,3.85156 -0.29297,4.11329 -2.9375,7.67188 -1.62891,22.64844 0.0469,0.55078 -0.55859,2.66406 -3.70703,2.66406 -12.79297,0 -49.13672,1.47657 -50.875,1.12891"
       id="path30"
       inkscape:connector-curvature="0" />
    <path
       style="fill:#f0fafd;fill-opacity:1;fill-rule:nonzero;stroke:none"
       d="m 397.92578,370.875 c -0.64062,-16.14844 16.80859,-29.12109 36.83984,-29.12109 19.97657,0 36.22657,12.88671 36.83594,28.97656 l 0.0195,0.14453 -0.008,0.0586 0.008,0.11328 h -0.0195 c -0.11719,1.91407 -2.04687,3.42969 -4.42969,3.42969 -2.45703,0 -4.44921,-1.60156 -4.44921,-3.60156 l -0.0469,-0.71484 c -0.65234,-12.08985 -12.84766,-21.23438 -27.91016,-21.23438 -15.04296,0 -27.30078,9.63281 -27.98046,21.69141 l 0.0312,0.25781 c 0,2 -1.99219,3.60156 -4.44922,3.60156 -2.38672,0 -4.3125,-1.51562 -4.42578,-3.42969 0,0 -0.0117,-0.0859 -0.0156,-0.17187"
       id="path32"
       inkscape:connector-curvature="0" />
    <path
       style="fill:#f0fafd;fill-opacity:1;fill-rule:nonzero;stroke:none"
       d="m 200.84766,371.79687 c -0.63672,-16.14062 16.80859,-29.11328 36.83984,-29.11328 19.98047,0 36.23047,12.88672 36.83984,28.97266 l 0.0195,0.14062 -0.008,0.0586 0.008,0.14062 h -0.0195 c -0.11718,1.88672 -2.04687,3.42969 -4.43359,3.42969 -2.45703,0 -4.44922,-1.62891 -4.44922,-3.62891 l -0.0469,-0.71484 C 264.94922,358.99609 252.75,349.85547 237.6875,349.85547 c -15.04297,0 -27.29688,9.6289 -27.97656,21.68359 l 0.0312,0.25781 c 0,2 -1.99219,3.62891 -4.45313,3.62891 -2.38281,0 -4.3125,-1.54297 -4.42578,-3.42969 0,0 -0.0117,-0.11328 -0.0156,-0.19922"
       id="path34"
       inkscape:connector-curvature="0" />
    <path
       style="fill:#f0fafd;fill-opacity:1;fill-rule:nonzero;stroke:none"
       d="m 326.64844,326.16406 c 0,3.9375 -5.20703,7.15235 -11.625,7.15235 -6.42188,0 -11.62891,-3.21485 -11.62891,-7.15235 0,-3.96094 5.20703,-7.14844 11.62891,-7.14844 6.41797,0 11.625,3.1875 11.625,7.14844"
       id="path36"
       inkscape:connector-curvature="0" />
    <path
       style="fill:#c7e68c;fill-opacity:1;fill-rule:nonzero;stroke:none"
       d="m 305.47656,280.57812 c 0.31641,-3.21875 5.58203,-3.53515 6.21485,-3.53515 0.63281,0 26.28515,0.89844 38.29687,2.69531 12.01172,1.79688 32.72266,28.97266 32.72266,28.97266 0.55078,0.7539 3.03515,4.66797 0.50781,5.1875 -2.53125,0.52343 -75.39063,-1.96875 -79.70703,-4.02735 -2.48438,-1.1875 1.64844,-26.10547 1.96484,-29.29297"
       id="path38"
       inkscape:connector-curvature="0" />
    <path
       style="fill:#f0fafd;fill-opacity:1;fill-rule:nonzero;stroke:none"
       d="m 464.96875,334.92578 c 3.58984,4.90234 4.625,9.83594 2.3125,10.95313 -2.3125,1.14453 -7.08984,-1.89454 -10.67578,-6.79688 -3.58594,-4.90234 -4.61719,-9.80469 -2.3125,-10.94922 2.3125,-1.14844 7.08984,1.89063 10.67578,6.79297"
       id="path40"
       inkscape:connector-curvature="0" />
  </g>
</svg>
